{
.appVersion = "1029";
copyright = "Copyright 2011 The Paytone Project Authors (https://github.com/googlefonts/paytoneFont)";
customParameters = (
{
name = trademark;
value = "Paytone One is a trademark of vernon adams.";
},
{
name = "Use Typo Metrics";
value = 1;
},
{
name = license;
value = "This Font Software is licensed under the SIL Open Font License, Version 1.1. This license is available with a FAQ at: http://scripts.sil.org/OFL";
},
{
name = licenseURL;
value = "http://scripts.sil.org/OFL";
},
{
name = fsType;
value = (
);
},
{
name = "Disable Last Change";
value = 1;
},
{
name = "Use Line Breaks";
value = 1;
}
);
date = "2011-05-03 18:31:34 +0000";
designer = "Vernon Adams";
designerURL = "http://www.sansoxygen.com";
disablesAutomaticAlignment = 1;
familyName = "Paytone One";
featurePrefixes = (
{
automatic = 1;
code = "languagesystem DFLT dflt;
languagesystem latn dflt;
languagesystem latn ROM;
languagesystem latn MOL;
";
name = Languagesystems;
}
);
features = (
{
automatic = 1;
code = "feature locl;
feature sups;
feature frac;
feature ordn;
";
name = aalt;
},
{
automatic = 1;
code = "script latn;
language ROM;
sub Scedilla by Scommaaccent;
sub scedilla by scommaaccent;
language MOL;
sub Scedilla by Scommaaccent;
sub scedilla by scommaaccent;
";
name = locl;
},
{
automatic = 1;
code = "sub one by onesuperior;
sub two by twosuperior;
sub three by threesuperior;
sub four by foursuperior;
";
name = sups;
},
{
automatic = 1;
code = "sub one slash four by onequarter;
sub one slash two by onehalf;
sub three slash four by threequarters;
";
name = frac;
},
{
automatic = 1;
code = "sub [zero one two three four five six seven eight nine] [A a]' by ordfeminine;
sub [zero one two three four five six seven eight nine] [O o]' by ordmasculine;
";
name = ordn;
},
{
automatic = 1;
code = "sub f i by fi;
sub f l by fl;
";
name = liga;
}
);
fontMaster = (
{
alignmentZones = (
"{688, 16}",
"{501, 7}",
"{0, 16}",
"{-170, 0}"
);
ascender = 1113;
capHeight = 688;

glyphs = (
{
glyphname = A;
layers = (
{
hints = (
{
horizontal = 1;
place = "{132, 123}";
},
{
horizontal = 1;
place = "{0, 21}";
target = up;
type = BottomGhost;
},
{
horizontal = 1;
place = "{688, -20}";
target = down;
type = TopGhost;
}
);
layerId = UUID0;
paths = (
{
closed = 1;
nodes = (
"195 688 LINE",
"499 688 LINE",
"698 0 LINE",
"463 0 LINE",
"437 132 LINE",
"259 132 LINE",
"230 0 LINE",
"5 0 LINE"
);
},
{
closed = 1;
nodes = (
"413 255 LINE",
"348 556 LINE",
"280 255 LINE"
);
}
);
width = 699;
}
);
leftKerningGroup = A;
unicode = 0041;
},
{
glyphname = AE;
layers = (
{
hints = (
{
horizontal = 1;
place = "{0, 150}";
},
{
horizontal = 1;
place = "{132, 123}";
},
{
horizontal = 1;
place = "{285, 126}";
},
{
horizontal = 1;
place = "{536, 151}";
}
);
layerId = UUID0;
paths = (
{
closed = 1;
nodes = (
"232 688 LINE",
"807 688 LINE",
"834 536 LINE",
"558 536 LINE",
"582 411 LINE",
"831 411 LINE",
"855 285 LINE",
"612 285 LINE",
"642 150 LINE",
"899 150 LINE",
"927 0 LINE",
"448 0 LINE",
"426 132 LINE",
"257 132 LINE",
"216 0 LINE",
"-3 0 LINE"
);
},
{
closed = 1;
nodes = (
"402 255 LINE",
"361 506 LINE",
"294 255 LINE"
);
}
);
width = 935;
}
);
rightKerningGroup = E;
unicode = 00C6;
},
{
glyphname = B;
layers = (
{
hints = (
{
horizontal = 1;
place = "{-16, 160}";
},
{
horizontal = 1;
place = "{306, 110}";
},
{
horizontal = 1;
place = "{555, 133}";
}
);
layerId = UUID0;
paths = (
{
closed = 1;
nodes = (
"331 -16 OFFCURVE",
"217 -11 OFFCURVE",
"65 -1 CURVE",
"65 688 LINE",
"409 688 LINE SMOOTH",
"556 688 OFFCURVE",
"665 624 OFFCURVE",
"665 521 CURVE SMOOTH",
"665 437 OFFCURVE",
"628 385 OFFCURVE",
"556 374 CURVE",
"647 366 OFFCURVE",
"696 307 OFFCURVE",
"696 209 CURVE SMOOTH",
"696 86 OFFCURVE",
"572 -16 OFFCURVE",
"405 -16 CURVE SMOOTH"
);
},
{
closed = 1;
nodes = (
"477 277 OFFCURVE",
"434 306 OFFCURVE",
"373 306 CURVE SMOOTH",
"287 306 LINE",
"287 145 LINE",
"302 145 OFFCURVE",
"316 145 OFFCURVE",
"330 145 CURVE SMOOTH",
"386 145 LINE SMOOTH",
"437 145 OFFCURVE",
"477 174 OFFCURVE",
"477 223 CURVE SMOOTH"
);
},
{
closed = 1;
nodes = (
"457 531 OFFCURVE",
"428 555 OFFCURVE",
"369 555 CURVE SMOOTH",
"288 555 LINE",
"288 416 LINE",
"367 416 LINE SMOOTH",
"418 416 OFFCURVE",
"457 443 OFFCURVE",
"457 484 CURVE SMOOTH"
);
}
);
width = 721;
}
);
leftKerningGroup = B;
unicode = 0042;
},
{
glyphname = C;
layers = (
{
hints = (
{
horizontal = 1;
place = "{-16, 181}";
},
{
horizontal = 1;
place = "{525, 178}";
}
);
layerId = UUID0;
paths = (
{
closed = 1;
nodes = (
"473 165 OFFCURVE",
"502 174 OFFCURVE",
"551 193 CURVE",
"579 35 LINE",
"521 1 OFFCURVE",
"458 -16 OFFCURVE",
"389 -16 CURVE SMOOTH",
"292 -16 OFFCURVE",
"209 17 OFFCURVE",
"141 82 CURVE SMOOTH",
"68 150 OFFCURVE",
"32 237 OFFCURVE",
"31 344 CURVE",
"31 553 OFFCURVE",
"183 703 OFFCURVE",
"383 703 CURVE SMOOTH",
"455 703 OFFCURVE",
"520 686 OFFCURVE",
"578 653 CURVE",
"551 498 LINE",
"503 516 OFFCURVE",
"460 525 OFFCURVE",
"421 525 CURVE SMOOTH",
"313 525 OFFCURVE",
"255 459 OFFCURVE",
"255 345 CURVE SMOOTH",
"255 232 OFFCURVE",
"318 165 OFFCURVE",
"427 165 CURVE SMOOTH"
);
}
);
width = 604;
}
);
leftKerningGroup = C;
rightKerningGroup = C;
unicode = 0043;
},
{
glyphname = D;
layers = (
{
hints = (
{
horizontal = 1;
place = "{0, 180}";
},
{
horizontal = 1;
place = "{508, 180}";
}
);
layerId = UUID0;
paths = (
{
closed = 1;
nodes = (
"65 688 LINE",
"364 688 LINE SMOOTH",
"586 688 OFFCURVE",
"732 546 OFFCURVE",
"732 349 CURVE SMOOTH",
"732 140 OFFCURVE",
"587 0 OFFCURVE",
"364 0 CURVE SMOOTH",
"65 0 LINE"
);
},
{
closed = 1;
nodes = (
"364 180 LINE SMOOTH",
"464 180 OFFCURVE",
"508 275 OFFCURVE",
"508 351 CURVE SMOOTH",
"508 442 OFFCURVE",
"449 508 OFFCURVE",
"364 508 CURVE SMOOTH",
"286 508 LINE",
"286 180 LINE"
);
}
);
width = 764;
}
);
leftKerningGroup = B;
rightKerningGroup = D;
unicode = 0044;
},
{
glyphname = Eth;
layers = (
{
hints = (
{
horizontal = 1;
place = "{0, 180}";
},
{
horizontal = 1;
place = "{302, 85}";
},
{
horizontal = 1;
place = "{492, 180}";
}
);
layerId = UUID0;
paths = (
{
closed = 1;
nodes = (
"1 302 LINE",
"1 387 LINE",
"91 387 LINE",
"91 672 LINE",
"390 672 LINE SMOOTH",
"608 672 OFFCURVE",
"758 532 OFFCURVE",
"758 341 CURVE SMOOTH",
"758 145 OFFCURVE",
"609 0 OFFCURVE",
"390 0 CURVE SMOOTH",
"91 0 LINE",
"91 302 LINE"
);
},
{
closed = 1;
nodes = (
"390 180 LINE SMOOTH",
"479 180 OFFCURVE",
"534 252 OFFCURVE",
"534 343 CURVE SMOOTH",
"534 431 OFFCURVE",
"472 492 OFFCURVE",
"390 492 CURVE SMOOTH",
"312 492 LINE",
"312 387 LINE",
"391 387 LINE",
"391 302 LINE",
"312 302 LINE",
"312 180 LINE"
);
}
);
width = 790;
}
);
leftKerningGroup = B;
rightKerningGroup = D;
unicode = 00D0;
},
{
glyphname = Dcroat;
layers = (
{
hints = (
{
horizontal = 1;
place = "{0, 180}";
},
{
horizontal = 1;
place = "{289, 85}";
},
{
horizontal = 1;
place = "{492, 180}";
}
);
layerId = UUID0;
paths = (
{
closed = 1;
nodes = (
"38 374 LINE",
"65 374 LINE",
"65 672 LINE",
"364 672 LINE SMOOTH",
"582 672 OFFCURVE",
"732 534 OFFCURVE",
"732 341 CURVE SMOOTH",
"732 248 OFFCURVE",
"702 169 OFFCURVE",
"640 105 CURVE SMOOTH",
"572 35 OFFCURVE",
"480 0 OFFCURVE",
"364 0 CURVE SMOOTH",
"65 0 LINE",
"65 289 LINE",
"38 289 LINE"
);
},
{
closed = 1;
nodes = (
"364 180 LINE SMOOTH",
"453 180 OFFCURVE",
"508 252 OFFCURVE",
"508 343 CURVE SMOOTH",
"508 430 OFFCURVE",
"446 492 OFFCURVE",
"364 492 CURVE SMOOTH",
"286 492 LINE",
"286 374 LINE",
"351 374 LINE",
"351 289 LINE",
"286 289 LINE",
"286 180 LINE"
);
}
);
width = 764;
}
);
leftKerningGroup = B;
rightKerningGroup = D;
unicode = 0110;
},
{
glyphname = E;
layers = (
{
hints = (
{
horizontal = 1;
place = "{0, 150}";
},
{
horizontal = 1;
place = "{285, 126}";
},
{
horizontal = 1;
place = "{536, 151}";
}
);
layerId = UUID0;
paths = (
{
closed = 1;
nodes = (
"65 688 LINE",
"548 688 LINE",
"548 536 LINE",
"308 536 LINE",
"308 411 LINE",
"527 411 LINE",
"527 285 LINE",
"308 285 LINE",
"308 150 LINE",
"548 150 LINE",
"548 0 LINE",
"65 0 LINE"
);
}
);
width = 595;
}
);
leftKerningGroup = B;
rightKerningGroup = E;
unicode = 0045;
},
{
glyphname = F;
layers = (
{
hints = (
{
horizontal = 1;
place = "{271, 127}";
},
{
horizontal = 1;
place = "{536, 151}";
},
{
horizontal = 1;
place = "{0, 21}";
target = up;
type = BottomGhost;
}
);
layerId = UUID0;
paths = (
{
closed = 1;
nodes = (
"65 688 LINE",
"539 688 LINE",
"539 536 LINE",
"280 536 LINE",
"280 397 LINE",
"520 397 LINE",
"520 271 LINE",
"280 271 LINE",
"280 0 LINE",
"65 0 LINE"
);
}
);
width = 570;
}
);
leftKerningGroup = B;
unicode = 0046;
},
{
glyphname = G;
layers = (
{
hints = (
{
horizontal = 1;
place = "{-16, 180}";
},
{
horizontal = 1;
place = "{526, 177}";
}
);
layerId = UUID0;
paths = (
{
closed = 1;
nodes = (
"540 498 LINE",
"481 517 OFFCURVE",
"436 526 OFFCURVE",
"403 526 CURVE SMOOTH",
"305 526 OFFCURVE",
"252 439 OFFCURVE",
"252 347 CURVE SMOOTH",
"252 246 OFFCURVE",
"314 164 OFFCURVE",
"403 164 CURVE SMOOTH",
"415 164 OFFCURVE",
"428 165 OFFCURVE",
"443 167 CURVE",
"443 329 LINE",
"616 349 LINE",
"616 36 LINE",
"538 1 OFFCURVE",
"458 -16 OFFCURVE",
"375 -16 CURVE SMOOTH",
"280 -16 OFFCURVE",
"198 20 OFFCURVE",
"131 91 CURVE SMOOTH",
"63 162 OFFCURVE",
"30 249 OFFCURVE",
"30 350 CURVE SMOOTH",
"30 448 OFFCURVE",
"64 532 OFFCURVE",
"133 601 CURVE SMOOTH",
"201 669 OFFCURVE",
"281 703 OFFCURVE",
"375 703 CURVE SMOOTH",
"460 703 OFFCURVE",
"537 687 OFFCURVE",
"606 653 CURVE"
);
}
);
width = 659;
}
);
leftKerningGroup = C;
rightKerningGroup = G;
unicode = 0047;
},
{
glyphname = H;
layers = (
{
hints = (
{
horizontal = 1;
place = "{270, 145}";
},
{
horizontal = 1;
place = "{0, 21}";
target = up;
type = BottomGhost;
},
{
horizontal = 1;
place = "{688, -20}";
target = down;
type = TopGhost;
}
);
layerId = UUID0;
paths = (
{
closed = 1;
nodes = (
"65 688 LINE",
"290 688 LINE",
"290 414 LINE",
"503 414 LINE",
"503 688 LINE",
"729 688 LINE",
"729 0 LINE",
"503 0 LINE",
"503 270 LINE",
"290 270 LINE",
"290 0 LINE",
"65 0 LINE"
);
}
);
width = 794;
}
);
leftKerningGroup = B;
rightKerningGroup = H;
unicode = 0048;
},
{
glyphname = Hbar;
layers = (
{
hints = (
{
horizontal = 1;
place = "{270, 145}";
},
{
horizontal = 1;
place = "{478, 85}";
},
{
horizontal = 1;
place = "{0, 21}";
target = up;
type = BottomGhost;
},
{
horizontal = 1;
place = "{672, -20}";
target = down;
type = TopGhost;
}
);
layerId = UUID0;
paths = (
{
closed = 1;
nodes = (
"42 563 LINE",
"70 563 LINE",
"70 672 LINE",
"295 672 LINE",
"295 563 LINE",
"508 563 LINE",
"508 672 LINE",
"733 672 LINE",
"733 563 LINE",
"763 563 LINE",
"763 478 LINE",
"733 478 LINE",
"733 0 LINE",
"508 0 LINE",
"508 270 LINE",
"295 270 LINE",
"295 0 LINE",
"70 0 LINE",
"70 478 LINE",
"42 478 LINE"
);
},
{
closed = 1;
nodes = (
"508 414 LINE",
"508 478 LINE",
"295 478 LINE",
"295 414 LINE"
);
}
);
width = 804;
}
);
leftKerningGroup = B;
rightKerningGroup = H;
unicode = 0126;
},
{
glyphname = I;
layers = (
{
hints = (
{
horizontal = 1;
place = "{0, 21}";
target = up;
type = BottomGhost;
},
{
horizontal = 1;
place = "{688, -20}";
target = down;
type = TopGhost;
}
);
layerId = UUID0;
paths = (
{
closed = 1;
nodes = (
"65 688 LINE",
"296 688 LINE",
"296 0 LINE",
"65 0 LINE"
);
}
);
width = 361;
}
);
leftKerningGroup = B;
rightKerningGroup = H;
unicode = 0049;
},
{
glyphname = J;
layers = (
{
hints = (
{
horizontal = 1;
place = "{-45, 163}";
},
{
horizontal = 1;
place = "{688, -20}";
target = down;
type = TopGhost;
}
);
layerId = UUID0;
paths = (
{
closed = 1;
nodes = (
"159 118 OFFCURVE",
"181 146 OFFCURVE",
"181 201 CURVE SMOOTH",
"181 688 LINE",
"396 688 LINE",
"396 201 LINE SMOOTH",
"396 47 OFFCURVE",
"310 -45 OFFCURVE",
"171 -45 CURVE SMOOTH",
"109 -45 OFFCURVE",
"52 -27 OFFCURVE",
"-1 8 CURVE",
"46 132 LINE",
"72 123 OFFCURVE",
"95 118 OFFCURVE",
"114 118 CURVE SMOOTH"
);
}
);
width = 456;
}
);
leftKerningGroup = J;
rightKerningGroup = J;
unicode = 004A;
},
{
glyphname = K;
layers = (
{
hints = (
{
horizontal = 1;
place = "{273, 134}";
},
{
horizontal = 1;
place = "{0, 21}";
target = up;
type = BottomGhost;
},
{
horizontal = 1;
place = "{688, -20}";
target = down;
type = TopGhost;
}
);
layerId = UUID0;
paths = (
{
closed = 1;
nodes = (
"65 688 LINE",
"297 688 LINE",
"297 407 LINE",
"369 407 LINE",
"502 688 LINE",
"733 688 LINE",
"733 643 LINE",
"575 347 LINE",
"756 45 LINE",
"756 0 LINE",
"513 0 LINE",
"365 273 LINE",
"297 273 LINE",
"297 0 LINE",
"65 0 LINE"
);
}
);
width = 767;
}
);
leftKerningGroup = B;
rightKerningGroup = K;
unicode = 004B;
},
{
glyphname = L;
layers = (
{
hints = (
{
horizontal = 1;
place = "{0, 147}";
},
{
horizontal = 1;
place = "{688, -20}";
target = down;
type = TopGhost;
}
);
layerId = UUID0;
paths = (
{
closed = 1;
nodes = (
"65 688 LINE",
"281 688 LINE",
"281 147 LINE",
"520 147 LINE",
"520 0 LINE",
"65 0 LINE"
);
}
);
width = 538;
}
);
leftKerningGroup = B;
rightKerningGroup = L;
unicode = 004C;
},
{
glyphname = Lslash;
layers = (
{
hints = (
{
horizontal = 1;
place = "{0, 147}";
},
{
horizontal = 1;
place = "{688, -20}";
target = down;
type = TopGhost;
}
);
layerId = UUID0;
paths = (
{
closed = 1;
nodes = (
"3 385 LINE",
"93 408 LINE",
"93 688 LINE",
"308 688 LINE",
"308 462 LINE",
"457 501 LINE",
"457 416 LINE",
"308 377 LINE",
"308 147 LINE",
"547 147 LINE",
"547 0 LINE",
"93 0 LINE",
"93 323 LINE",
"3 300 LINE"
);
}
);
width = 564;
}
);
leftKerningGroup = B;
rightKerningGroup = L;
unicode = 0141;
},
{
glyphname = M;
layers = (
{
hints = (
{
horizontal = 1;
place = "{0, 21}";
target = up;
type = BottomGhost;
},
{
horizontal = 1;
place = "{688, -20}";
target = down;
type = TopGhost;
}
);
layerId = UUID0;
paths = (
{
closed = 1;
nodes = (
"65 688 LINE",
"273 688 LINE",
"445 354 LINE",
"613 688 LINE",
"821 688 LINE",
"821 0 LINE",
"613 0 LINE",
"613 367 LINE",
"486 127 LINE",
"401 127 LINE",
"273 367 LINE",
"273 0 LINE",
"65 0 LINE"
);
}
);
width = 887;
}
);
leftKerningGroup = B;
rightKerningGroup = H;
unicode = 004D;
},
{
glyphname = N;
layers = (
{
hints = (
{
horizontal = 1;
place = "{0, 21}";
target = up;
type = BottomGhost;
},
{
horizontal = 1;
place = "{688, -20}";
target = down;
type = TopGhost;
}
);
layerId = UUID0;
paths = (
{
closed = 1;
nodes = (
"65 688 LINE",
"266 688 LINE",
"540 317 LINE",
"540 688 LINE",
"719 688 LINE",
"719 0 LINE",
"519 0 LINE",
"243 358 LINE",
"243 0 LINE",
"65 0 LINE"
);
}
);
width = 784;
}
);
leftKerningGroup = B;
rightKerningGroup = H;
unicode = 004E;
},
{
glyphname = Eng;
layers = (
{
hints = (
{
horizontal = 1;
place = "{-248, 149}";
},
{
horizontal = 1;
place = "{672, -20}";
target = down;
type = TopGhost;
},
{
horizontal = 1;
place = "{0, 21}";
target = up;
type = BottomGhost;
}
);
layerId = UUID0;
paths = (
{
closed = 1;
nodes = (
"406 -84 LINE",
"437 -94 OFFCURVE",
"460 -99 OFFCURVE",
"476 -99 CURVE SMOOTH",
"519 -99 OFFCURVE",
"541 -71 OFFCURVE",
"541 -16 CURVE",
"243 358 LINE",
"243 0 LINE",
"65 0 LINE",
"65 672 LINE",
"266 672 LINE",
"540 317 LINE",
"540 672 LINE",
"719 672 LINE",
"719 -16 LINE SMOOTH",
"719 -152 OFFCURVE",
"649 -248 OFFCURVE",
"531 -248 CURVE SMOOTH",
"482 -248 OFFCURVE",
"425 -235 OFFCURVE",
"360 -208 CURVE"
);
}
);
width = 784;
}
);
leftKerningGroup = B;
rightKerningGroup = H;
unicode = 014A;
},
{
glyphname = O;
layers = (
{
hints = (
{
horizontal = 1;
place = "{-16, 182}";
},
{
horizontal = 1;
place = "{527, 175}";
}
);
layerId = UUID0;
paths = (
{
closed = 1;
nodes = (
"31 442 OFFCURVE",
"63 526 OFFCURVE",
"126 594 CURVE SMOOTH",
"193 667 OFFCURVE",
"285 703 OFFCURVE",
"399 703 CURVE SMOOTH",
"624 703 OFFCURVE",
"767 550 OFFCURVE",
"767 343 CURVE SMOOTH",
"767 155 OFFCURVE",
"635 -16 OFFCURVE",
"399 -16 CURVE SMOOTH",
"158 -16 OFFCURVE",
"31 158 OFFCURVE",
"31 343 CURVE SMOOTH"
);
},
{
closed = 1;
nodes = (
"502 166 OFFCURVE",
"543 263 OFFCURVE",
"543 344 CURVE SMOOTH",
"543 449 OFFCURVE",
"487 523 OFFCURVE",
"399 527 CURVE",
"296 525 OFFCURVE",
"255 430 OFFCURVE",
"255 344 CURVE SMOOTH",
"255 243 OFFCURVE",
"311 166 OFFCURVE",
"399 166 CURVE SMOOTH"
);
}
);
width = 798;
}
);
leftKerningGroup = C;
rightKerningGroup = O;
unicode = 004F;
},
{
glyphname = Oslash;
layers = (
{
hints = (
{
horizontal = 1;
place = "{-16, 182}";
},
{
horizontal = 1;
place = "{527, 175}";
},
{
horizontal = 1;
place = "{-166, 21}";
target = up;
type = BottomGhost;
},
{
horizontal = 1;
place = "{819, -20}";
target = down;
type = TopGhost;
}
);
layerId = UUID0;
paths = (
{
closed = 1;
nodes = (
"421 703 OFFCURVE",
"441 701 OFFCURVE",
"461 699 CURVE",
"492 819 LINE",
"560 819 LINE",
"525 685 LINE",
"670 639 OFFCURVE",
"767 513 OFFCURVE",
"767 343 CURVE SMOOTH",
"767 154 OFFCURVE",
"636 -16 OFFCURVE",
"400 -16 CURVE SMOOTH",
"381 -16 OFFCURVE",
"363 -15 OFFCURVE",
"346 -13 CURVE",
"307 -166 LINE",
"240 -166 LINE",
"283 0 LINE",
"132 43 OFFCURVE",
"32 172 OFFCURVE",
"32 343 CURVE SMOOTH",
"32 442 OFFCURVE",
"63 526 OFFCURVE",
"126 594 CURVE SMOOTH",
"194 667 OFFCURVE",
"285 703 OFFCURVE",
"400 703 CURVE SMOOTH"
);
},
{
closed = 1;
nodes = (
"417 525 LINE",
"416 525 OFFCURVE",
"410 526 OFFCURVE",
"400 527 CURVE",
"304 526 OFFCURVE",
"255 439 OFFCURVE",
"255 344 CURVE SMOOTH",
"255 271 OFFCURVE",
"283 214 OFFCURVE",
"330 185 CURVE"
);
},
{
closed = 1;
nodes = (
"400 166 LINE SMOOTH",
"502 166 OFFCURVE",
"543 262 OFFCURVE",
"543 344 CURVE SMOOTH",
"543 415 OFFCURVE",
"519 469 OFFCURVE",
"478 500 CURVE",
"392 166 LINE"
);
}
);
width = 799;
}
);
leftKerningGroup = C;
rightKerningGroup = O;
unicode = 00D8;
},
{
glyphname = OE;
layers = (
{
hints = (
{
horizontal = 1;
place = "{-16, 181}";
},
{
horizontal = 1;
place = "{0, 150}";
},
{
horizontal = 1;
place = "{285, 126}";
},
{
horizontal = 1;
place = "{513, 159}";
},
{
horizontal = 1;
place = "{513, 178}";
}
);
layerId = UUID0;
paths = (
{
closed = 1;
nodes = (
"405 690 OFFCURVE",
"447 673 OFFCURVE",
"498 642 CURVE",
"498 672 LINE",
"977 672 LINE",
"977 521 LINE",
"736 521 LINE",
"736 411 LINE",
"956 411 LINE",
"956 285 LINE",
"736 285 LINE",
"736 150 LINE",
"977 150 LINE",
"977 0 LINE",
"495 0 LINE",
"495 29 LINE",
"438 0 OFFCURVE",
"386 -16 OFFCURVE",
"340 -16 CURVE SMOOTH",
"245 -16 OFFCURVE",
"168 22 OFFCURVE",
"110 98 CURVE SMOOTH",
"58 167 OFFCURVE",
"31 247 OFFCURVE",
"31 338 CURVE SMOOTH",
"31 503 OFFCURVE",
"154 690 OFFCURVE",
"348 690 CURVE SMOOTH"
);
},
{
closed = 1;
nodes = (
"414 165 OFFCURVE",
"458 170 OFFCURVE",
"495 180 CURVE",
"495 497 LINE",
"448 507 OFFCURVE",
"405 513 OFFCURVE",
"365 513 CURVE SMOOTH",
"300 513 OFFCURVE",
"255 442 OFFCURVE",
"255 339 CURVE SMOOTH",
"255 246 OFFCURVE",
"290 165 OFFCURVE",
"365 165 CURVE SMOOTH"
);
}
);
width = 1024;
}
);
leftKerningGroup = C;
rightKerningGroup = E;
unicode = 0152;
},
{
glyphname = P;
layers = (
{
hints = (
{
horizontal = 1;
place = "{235, 139}";
},
{
horizontal = 1;
place = "{544, 144}";
},
{
horizontal = 1;
place = "{0, 21}";
target = up;
type = BottomGhost;
}
);
layerId = UUID0;
paths = (
{
closed = 1;
nodes = (
"65 688 LINE",
"313 688 LINE SMOOTH",
"519 688 OFFCURVE",
"636 604 OFFCURVE",
"636 460 CURVE SMOOTH",
"636 320 OFFCURVE",
"497 235 OFFCURVE",
"323 235 CURVE SMOOTH",
"281 235 LINE",
"281 0 LINE",
"65 0 LINE"
);
},
{
closed = 1;
nodes = (
"393 374 OFFCURVE",
"435 403 OFFCURVE",
"435 460 CURVE SMOOTH",
"435 516 OFFCURVE",
"386 544 OFFCURVE",
"324 544 CURVE SMOOTH",
"281 544 LINE",
"281 376 LINE",
"291 375 OFFCURVE",
"305 374 OFFCURVE",
"324 374 CURVE SMOOTH"
);
}
);
width = 649;
}
);
leftKerningGroup = B;
unicode = 0050;
},
{
glyphname = Thorn;
layers = (
{
hints = (
{
horizontal = 1;
place = "{166, 139}";
},
{
horizontal = 1;
place = "{475, 144}";
},
{
horizontal = 1;
place = "{0, 21}";
target = up;
type = BottomGhost;
},
{
horizontal = 1;
place = "{688, -20}";
target = down;
type = TopGhost;
}
);
layerId = UUID0;
paths = (
{
closed = 1;
nodes = (
"65 688 LINE",
"280 688 LINE",
"280 618 LINE",
"313 618 LINE SMOOTH",
"519 618 OFFCURVE",
"636 535 OFFCURVE",
"636 391 CURVE SMOOTH",
"636 252 OFFCURVE",
"500 166 OFFCURVE",
"322 166 CURVE SMOOTH",
"280 166 LINE",
"280 0 LINE",
"65 0 LINE"
);
},
{
closed = 1;
nodes = (
"391 305 OFFCURVE",
"435 333 OFFCURVE",
"435 391 CURVE SMOOTH",
"435 444 OFFCURVE",
"385 475 OFFCURVE",
"323 475 CURVE SMOOTH",
"280 475 LINE",
"280 307 LINE",
"291 305 OFFCURVE",
"304 305 OFFCURVE",
"323 305 CURVE SMOOTH"
);
}
);
width = 651;
}
);
leftKerningGroup = B;
unicode = 00DE;
},
{
glyphname = Q;
layers = (
{
hints = (
{
horizontal = 1;
place = "{-16, 181}";
},
{
horizontal = 1;
place = "{525, 178}";
},
{
horizontal = 1;
place = "{-159, 21}";
target = up;
type = BottomGhost;
}
);
layerId = UUID0;
paths = (
{
closed = 1;
nodes = (
"767 -61 LINE",
"641 -159 LINE",
"420 -14 LINE",
"414 -15 OFFCURVE",
"406 -16 OFFCURVE",
"398 -16 CURVE SMOOTH",
"319 -16 OFFCURVE",
"252 1 OFFCURVE",
"198 35 CURVE SMOOTH",
"94 99 OFFCURVE",
"30 215 OFFCURVE",
"30 345 CURVE SMOOTH",
"30 440 OFFCURVE",
"61 522 OFFCURVE",
"123 590 CURVE SMOOTH",
"191 665 OFFCURVE",
"283 703 OFFCURVE",
"398 703 CURVE SMOOTH",
"638 703 OFFCURVE",
"767 531 OFFCURVE",
"767 345 CURVE SMOOTH",
"767 235 OFFCURVE",
"723 131 OFFCURVE",
"639 61 CURVE",
"767 -23 LINE"
);
},
{
closed = 1;
nodes = (
"501 165 OFFCURVE",
"542 263 OFFCURVE",
"542 345 CURVE SMOOTH",
"542 448 OFFCURVE",
"487 525 OFFCURVE",
"398 525 CURVE SMOOTH",
"294 525 OFFCURVE",
"255 425 OFFCURVE",
"255 345 CURVE SMOOTH",
"255 245 OFFCURVE",
"312 165 OFFCURVE",
"398 165 CURVE SMOOTH"
);
}
);
width = 798;
}
);
leftKerningGroup = C;
rightKerningGroup = O;
unicode = 0051;
},
{
glyphname = R;
layers = (
{
hints = (
{
horizontal = 1;
place = "{-16, 177}";
},
{
horizontal = 1;
place = "{539, 148}";
},
{
horizontal = 1;
place = "{0, 21}";
target = up;
type = BottomGhost;
}
);
layerId = UUID0;
paths = (
{
closed = 1;
nodes = (
"678 2 LINE",
"636 -10 OFFCURVE",
"605 -16 OFFCURVE",
"586 -16 CURVE SMOOTH",
"465 -16 OFFCURVE",
"389 40 OFFCURVE",
"358 149 CURVE",
"331 261 LINE",
"284 261 LINE",
"284 0 LINE",
"65 0 LINE",
"65 688 LINE",
"371 688 LINE SMOOTH",
"530 688 OFFCURVE",
"657 615 OFFCURVE",
"657 485 CURVE SMOOTH",
"657 390 OFFCURVE",
"608 334 OFFCURVE",
"524 298 CURVE",
"529 274 LINE SMOOTH",
"531 263 OFFCURVE",
"533 255 OFFCURVE",
"534 250 CURVE SMOOTH",
"540 229 LINE",
"555 180 OFFCURVE",
"577 161 OFFCURVE",
"644 161 CURVE SMOOTH",
"649 161 OFFCURVE",
"660 163 OFFCURVE",
"678 165 CURVE"
);
},
{
closed = 1;
nodes = (
"457 527 OFFCURVE",
"411 539 OFFCURVE",
"353 539 CURVE SMOOTH",
"284 539 LINE",
"284 401 LINE",
"322 401 LINE",
"354 403 LINE",
"405 407 OFFCURVE",
"457 419 OFFCURVE",
"457 476 CURVE SMOOTH"
);
}
);
width = 698;
}
);
leftKerningGroup = B;
rightKerningGroup = R;
unicode = 0052;
},
{
glyphname = S;
layers = (
{
hints = (
{
horizontal = 1;
place = "{-16, 168}";
},
{
horizontal = 1;
place = "{537, 167}";
}
);
layerId = UUID0;
paths = (
{
closed = 1;
nodes = (
"563 61 OFFCURVE",
"460 -16 OFFCURVE",
"288 -16 CURVE SMOOTH",
"193 -16 OFFCURVE",
"109 1 OFFCURVE",
"37 36 CURVE",
"57 85 OFFCURVE",
"73 131 OFFCURVE",
"84 172 CURVE SMOOTH",
"86 179 OFFCURVE",
"88 185 OFFCURVE",
"90 189 CURVE",
"163 171 LINE",
"198 164 OFFCURVE",
"247 152 OFFCURVE",
"274 152 CURVE SMOOTH",
"319 152 OFFCURVE",
"359 157 OFFCURVE",
"359 194 CURVE SMOOTH",
"359 240 OFFCURVE",
"263 254 OFFCURVE",
"196 277 CURVE",
"104 306 OFFCURVE",
"34 376 OFFCURVE",
"34 480 CURVE SMOOTH",
"34 629 OFFCURVE",
"124 703 OFFCURVE",
"302 703 CURVE SMOOTH",
"386 703 OFFCURVE",
"465 686 OFFCURVE",
"538 650 CURVE",
"484 501 LINE",
"358 533 OFFCURVE",
"348 536 OFFCURVE",
"318 536 CURVE SMOOTH",
"302 536 LINE SMOOTH",
"294 536 OFFCURVE",
"290 537 OFFCURVE",
"286 537 CURVE SMOOTH",
"256 537 OFFCURVE",
"240 530 OFFCURVE",
"240 503 CURVE SMOOTH",
"240 482 OFFCURVE",
"258 467 OFFCURVE",
"294 456 CURVE",
"470 415 OFFCURVE",
"563 336 OFFCURVE",
"563 225 CURVE SMOOTH"
);
}
);
width = 592;
}
);
leftKerningGroup = S;
rightKerningGroup = S;
unicode = 0053;
},
{
glyphname = T;
layers = (
{
hints = (
{
horizontal = 1;
place = "{542, 146}";
},
{
horizontal = 1;
place = "{0, 21}";
target = up;
type = BottomGhost;
}
);
layerId = UUID0;
paths = (
{
closed = 1;
nodes = (
"172 542 LINE",
"29 542 LINE",
"29 688 LINE",
"548 688 LINE",
"548 542 LINE",
"405 542 LINE",
"405 0 LINE",
"172 0 LINE"
);
}
);
width = 577;
}
);
leftKerningGroup = T;
rightKerningGroup = T;
unicode = 0054;
},
{
glyphname = Tbar;
layers = (
{
hints = (
{
horizontal = 1;
place = "{253, 85}";
},
{
horizontal = 1;
place = "{526, 146}";
},
{
horizontal = 1;
place = "{0, 21}";
target = up;
type = BottomGhost;
}
);
layerId = UUID0;
paths = (
{
closed = 1;
nodes = (
"177 253 LINE",
"105 253 LINE",
"105 338 LINE",
"177 338 LINE",
"177 526 LINE",
"34 526 LINE",
"34 672 LINE",
"553 672 LINE",
"553 526 LINE",
"410 526 LINE",
"410 338 LINE",
"481 338 LINE",
"481 253 LINE",
"410 253 LINE",
"410 0 LINE",
"177 0 LINE"
);
}
);
width = 587;
}
);
leftKerningGroup = T;
rightKerningGroup = T;
unicode = 0166;
},
{
glyphname = U;
layers = (
{
hints = (
{
horizontal = 1;
place = "{-16, 181}";
},
{
horizontal = 1;
place = "{688, -20}";
target = down;
type = TopGhost;
}
);
layerId = UUID0;
paths = (
{
closed = 1;
nodes = (
"474 165 OFFCURVE",
"513 207 OFFCURVE",
"513 285 CURVE SMOOTH",
"513 688 LINE",
"739 688 LINE",
"739 285 LINE SMOOTH",
"739 74 OFFCURVE",
"562 -16 OFFCURVE",
"399 -16 CURVE SMOOTH",
"306 -16 OFFCURVE",
"228 10 OFFCURVE",
"163 61 CURVE SMOOTH",
"94 115 OFFCURVE",
"59 189 OFFCURVE",
"59 285 CURVE SMOOTH",
"59 688 LINE",
"285 688 LINE",
"285 285 LINE SMOOTH",
"285 205 OFFCURVE",
"323 165 OFFCURVE",
"399 165 CURVE SMOOTH"
);
}
);
width = 798;
}
);
leftKerningGroup = U;
rightKerningGroup = U;
unicode = 0055;
},
{
glyphname = V;
layers = (
{
hints = (
{
horizontal = 1;
place = "{0, 21}";
target = up;
type = BottomGhost;
},
{
horizontal = 1;
place = "{688, -20}";
target = down;
type = TopGhost;
}
);
layerId = UUID0;
paths = (
{
closed = 1;
nodes = (
"2 688 LINE",
"228 688 LINE",
"334 259 LINE",
"440 688 LINE",
"676 688 LINE",
"461 0 LINE",
"206 0 LINE"
);
}
);
width = 672;
}
);
unicode = 0056;
},
{
glyphname = W;
layers = (
{
hints = (
{
horizontal = 1;
place = "{0, 21}";
target = up;
type = BottomGhost;
},
{
horizontal = 1;
place = "{688, -20}";
target = down;
type = TopGhost;
}
);
layerId = UUID0;
paths = (
{
closed = 1;
nodes = (
"21 688 LINE",
"246 688 LINE",
"311 249 LINE",
"378 571 LINE",
"611 571 LINE",
"679 249 LINE",
"744 688 LINE",
"969 688 LINE",
"813 0 LINE",
"580 0 LINE",
"495 370 LINE",
"410 0 LINE",
"177 0 LINE"
);
}
);
width = 990;
}
);
leftKerningGroup = W;
rightKerningGroup = W;
unicode = 0057;
},
{
glyphname = X;
layers = (
{
hints = (
{
horizontal = 1;
place = "{0, 21}";
target = up;
type = BottomGhost;
},
{
horizontal = 1;
place = "{688, -20}";
target = down;
type = TopGhost;
}
);
layerId = UUID0;
paths = (
{
closed = 1;
nodes = (
"191 342 LINE",
"6 688 LINE",
"233 688 LINE",
"314 514 LINE",
"395 688 LINE",
"626 688 LINE",
"440 342 LINE",
"632 0 LINE",
"401 0 LINE",
"314 171 LINE",
"227 0 LINE",
"0 0 LINE"
);
}
);
width = 633;
}
);
unicode = 0058;
},
{
glyphname = Y;
layers = (
{
hints = (
{
horizontal = 1;
place = "{0, 21}";
target = up;
type = BottomGhost;
},
{
horizontal = 1;
place = "{688, -20}";
target = down;
type = TopGhost;
}
);
layerId = UUID0;
paths = (
{
closed = 1;
nodes = (
"195 191 LINE",
"-3 688 LINE",
"206 688 LINE",
"303 379 LINE",
"398 688 LINE",
"618 688 LINE",
"410 191 LINE",
"410 0 LINE",
"195 0 LINE"
);
}
);
width = 612;
}
);
leftKerningGroup = Y;
rightKerningGroup = Y;
unicode = 0059;
},
{
glyphname = Z;
layers = (
{
hints = (
{
horizontal = 1;
place = "{0, 145}";
},
{
horizontal = 1;
place = "{542, 146}";
}
);
layerId = UUID0;
paths = (
{
closed = 1;
nodes = (
"36 145 LINE",
"271 542 LINE",
"45 542 LINE",
"45 688 LINE",
"495 688 LINE",
"495 542 LINE",
"265 145 LINE",
"505 145 LINE",
"505 0 LINE",
"36 0 LINE"
);
}
);
width = 541;
}
);
leftKerningGroup = Z;
rightKerningGroup = Z;
unicode = 005A;
},
{
glyphname = a;
layers = (
{
hints = (
{
horizontal = 1;
place = "{-8, 158}";
},
{
horizontal = 1;
place = "{350, 159}";
},
{
horizontal = 1;
place = "{0, 21}";
target = up;
type = BottomGhost;
}
);
layerId = UUID0;
paths = (
{
closed = 1;
nodes = (
"435 93 LINE",
"403 28 OFFCURVE",
"351 -8 OFFCURVE",
"271 -8 CURVE SMOOTH",
"140 -8 OFFCURVE",
"25 104 OFFCURVE",
"25 253 CURVE SMOOTH",
"25 402 OFFCURVE",
"142 508 OFFCURVE",
"271 508 CURVE SMOOTH",
"336 508 OFFCURVE",
"403 474 OFFCURVE",
"435 392 CURVE",
"435 508 LINE",
"645 508 LINE",
"645 0 LINE",
"435 0 LINE"
);
},
{
closed = 1;
nodes = (
"435 254 LINE",
"432 307 OFFCURVE",
"387 350 OFFCURVE",
"336 350 CURVE SMOOTH",
"279 350 OFFCURVE",
"235 304 OFFCURVE",
"235 250 CURVE SMOOTH",
"235 193 OFFCURVE",
"283 150 OFFCURVE",
"336 150 CURVE SMOOTH",
"391 150 OFFCURVE",
"432 195 OFFCURVE",
"435 246 CURVE"
);
}
);
width = 696;
}
);
leftKerningGroup = a;
rightKerningGroup = a;
unicode = 0061;
},
{
glyphname = ae;
layers = (
{
hints = (
{
horizontal = 1;
place = "{-16, 144}";
},
{
horizontal = 1;
place = "{350, 166}";
},
{
horizontal = 1;
place = "{387, 129}";
},
{
horizontal = 1;
place = "{-16, 166}";
}
);
layerId = UUID0;
paths = (
{
closed = 1;
nodes = (
"1013 25 LINE",
"943 -2 OFFCURVE",
"865 -16 OFFCURVE",
"780 -16 CURVE SMOOTH",
"731 -16 OFFCURVE",
"674 5 OFFCURVE",
"630 44 CURVE",
"630 0 LINE",
"435 -16 LINE",
"435 93 LINE",
"403 28 OFFCURVE",
"350 -16 OFFCURVE",
"270 -16 CURVE SMOOTH",
"139 -16 OFFCURVE",
"25 104 OFFCURVE",
"25 253 CURVE SMOOTH",
"25 402 OFFCURVE",
"142 516 OFFCURVE",
"271 516 CURVE SMOOTH",
"336 516 OFFCURVE",
"403 474 OFFCURVE",
"435 392 CURVE",
"435 516 LINE",
"630 501 LINE",
"630 457 LINE",
"672 496 OFFCURVE",
"725 516 OFFCURVE",
"788 516 CURVE SMOOTH",
"938 516 OFFCURVE",
"1034 412 OFFCURVE",
"1034 263 CURVE SMOOTH",
"1034 253 OFFCURVE",
"1033 245 OFFCURVE",
"1032 237 CURVE",
"703 198 LINE",
"721 151 OFFCURVE",
"762 128 OFFCURVE",
"827 128 CURVE SMOOTH",
"878 128 OFFCURVE",
"932 140 OFFCURVE",
"989 163 CURVE"
);
},
{
closed = 1;
nodes = (
"435 254 LINE",
"432 307 OFFCURVE",
"387 350 OFFCURVE",
"336 350 CURVE SMOOTH",
"279 350 OFFCURVE",
"235 304 OFFCURVE",
"235 250 CURVE SMOOTH",
"235 193 OFFCURVE",
"283 150 OFFCURVE",
"336 150 CURVE SMOOTH",
"391 150 OFFCURVE",
"432 195 OFFCURVE",
"435 246 CURVE"
);
},
{
closed = 1;
nodes = (
"878 324 LINE",
"865 364 OFFCURVE",
"833 387 OFFCURVE",
"788 387 CURVE SMOOTH",
"730 387 OFFCURVE",
"696 349 OFFCURVE",
"694 290 CURVE"
);
}
);
width = 1056;
}
);
leftKerningGroup = a;
rightKerningGroup = e;
unicode = 00E6;
},
{
glyphname = b;
layers = (
{
hints = (
{
horizontal = 1;
place = "{0, 150}";
},
{
horizontal = 1;
place = "{350, 159}";
},
{
horizontal = 1;
place = "{-8, 21}";
target = up;
type = BottomGhost;
},
{
horizontal = 1;
place = "{690, -20}";
target = down;
type = TopGhost;
}
);
layerId = UUID0;
paths = (
{
closed = 1;
nodes = (
"351 -8 OFFCURVE",
"296 26 OFFCURVE",
"264 93 CURVE",
"264 0 LINE",
"52 0 LINE",
"52 659 LINE",
"264 690 LINE",
"264 407 LINE",
"298 479 OFFCURVE",
"352 508 OFFCURVE",
"426 508 CURVE SMOOTH",
"562 508 OFFCURVE",
"671 398 OFFCURVE",
"671 250 CURVE SMOOTH",
"671 102 OFFCURVE",
"556 -8 OFFCURVE",
"427 -8 CURVE SMOOTH"
);
},
{
closed = 1;
nodes = (
"264 250 LINE SMOOTH",
"264 193 OFFCURVE",
"310 150 OFFCURVE",
"363 150 CURVE SMOOTH",
"419 150 OFFCURVE",
"462 198 OFFCURVE",
"462 250 CURVE SMOOTH",
"462 307 OFFCURVE",
"416 350 OFFCURVE",
"363 350 CURVE SMOOTH",
"308 350 OFFCURVE",
"266 306 OFFCURVE",
"264 254 CURVE SMOOTH"
);
}
);
width = 697;
}
);
rightKerningGroup = b;
unicode = 0062;
},
{
glyphname = c;
layers = (
{
hints = (
{
horizontal = 1;
place = "{-8, 155}";
},
{
horizontal = 1;
place = "{352, 157}";
}
);
layerId = UUID0;
paths = (
{
closed = 1;
nodes = (
"431 335 LINE",
"396 346 OFFCURVE",
"363 352 OFFCURVE",
"333 352 CURVE SMOOTH",
"272 352 OFFCURVE",
"233 311 OFFCURVE",
"233 250 CURVE SMOOTH",
"233 189 OFFCURVE",
"272 147 OFFCURVE",
"335 147 CURVE SMOOTH",
"365 147 OFFCURVE",
"396 153 OFFCURVE",
"429 164 CURVE",
"448 24 LINE",
"398 -1 OFFCURVE",
"353 -8 OFFCURVE",
"297 -8 CURVE SMOOTH",
"139 -8 OFFCURVE",
"25 95 OFFCURVE",
"25 250 CURVE SMOOTH",
"25 405 OFFCURVE",
"152 508 OFFCURVE",
"297 508 CURVE SMOOTH",
"361 508 OFFCURVE",
"396 500 OFFCURVE",
"450 468 CURVE"
);
}
);
width = 472;
}
);
leftKerningGroup = c;
rightKerningGroup = c;
unicode = 0063;
},
{
glyphname = d;
layers = (
{
hints = (
{
horizontal = 1;
place = "{-8, 158}";
},
{
horizontal = 1;
place = "{350, 159}";
},
{
horizontal = 1;
place = "{0, 21}";
target = up;
type = BottomGhost;
},
{
horizontal = 1;
place = "{690, -20}";
target = down;
type = TopGhost;
}
);
layerId = UUID0;
paths = (
{
closed = 1;
nodes = (
"346 508 OFFCURVE",
"400 479 OFFCURVE",
"434 407 CURVE",
"434 659 LINE",
"645 690 LINE",
"645 0 LINE",
"434 0 LINE",
"434 93 LINE",
"403 26 OFFCURVE",
"350 -8 OFFCURVE",
"269 -8 CURVE SMOOTH",
"130 -8 OFFCURVE",
"26 115 OFFCURVE",
"26 250 CURVE SMOOTH",
"26 396 OFFCURVE",
"140 508 OFFCURVE",
"270 508 CURVE SMOOTH"
);
},
{
closed = 1;
nodes = (
"434 254 LINE SMOOTH",
"432 307 OFFCURVE",
"387 350 OFFCURVE",
"335 350 CURVE SMOOTH",
"278 350 OFFCURVE",
"236 303 OFFCURVE",
"236 250 CURVE SMOOTH",
"236 193 OFFCURVE",
"282 150 OFFCURVE",
"335 150 CURVE SMOOTH",
"392 150 OFFCURVE",
"434 198 OFFCURVE",
"434 250 CURVE SMOOTH"
);
}
);
width = 697;
}
);
leftKerningGroup = a;
unicode = 0064;
},
{
glyphname = eth;
layers = (
{
hints = (
{
horizontal = 1;
place = "{-16, 163}";
},
{
horizontal = 1;
place = "{290, 140}";
},
{
horizontal = 1;
place = "{527, 176}";
}
);
layerId = UUID0;
paths = (
{
closed = 1;
nodes = (
"571 539 LINE",
"601 480 OFFCURVE",
"616 413 OFFCURVE",
"616 337 CURVE SMOOTH",
"616 124 OFFCURVE",
"493 -16 OFFCURVE",
"309 -16 CURVE SMOOTH",
"133 -16 OFFCURVE",
"16 80 OFFCURVE",
"16 217 CURVE SMOOTH",
"16 353 OFFCURVE",
"113 430 OFFCURVE",
"264 430 CURVE SMOOTH",
"314 430 OFFCURVE",
"358 415 OFFCURVE",
"395 385 CURVE",
"390 420 OFFCURVE",
"382 448 OFFCURVE",
"372 468 CURVE",
"300 442 LINE",
"278 499 LINE",
"329 517 LINE",
"315 524 OFFCURVE",
"300 527 OFFCURVE",
"283 527 CURVE SMOOTH",
"241 527 OFFCURVE",
"186 519 OFFCURVE",
"117 501 CURVE",
"64 649 LINE",
"148 685 OFFCURVE",
"230 703 OFFCURVE",
"309 703 CURVE SMOOTH",
"404 703 OFFCURVE",
"480 666 OFFCURVE",
"538 591 CURVE",
"609 616 LINE",
"631 560 LINE"
);
},
{
closed = 1;
nodes = (
"366 147 OFFCURVE",
"386 207 OFFCURVE",
"394 275 CURVE",
"367 285 OFFCURVE",
"337 290 OFFCURVE",
"304 290 CURVE SMOOTH",
"259 290 OFFCURVE",
"225 262 OFFCURVE",
"225 217 CURVE SMOOTH",
"225 173 OFFCURVE",
"260 147 OFFCURVE",
"309 147 CURVE SMOOTH"
);
}
);
width = 646;
}
);
unicode = 00F0;
},
{
glyphname = dslash;
layers = (
{
hints = (
{
horizontal = 1;
place = "{-16, 166}";
},
{
horizontal = 1;
place = "{0, 150}";
},
{
horizontal = 1;
place = "{350, 166}";
},
{
horizontal = 1;
place = "{540, 85}";
},
{
horizontal = 1;
place = "{690, -20}";
target = down;
type = TopGhost;
}
);
layerId = UUID0;
paths = (
{
closed = 1;
nodes = (
"346 516 OFFCURVE",
"400 479 OFFCURVE",
"434 407 CURVE",
"434 540 LINE",
"365 540 LINE",
"365 625 LINE",
"434 625 LINE",
"434 659 LINE",
"645 690 LINE",
"645 625 LINE",
"677 625 LINE",
"677 540 LINE",
"645 540 LINE",
"645 0 LINE",
"434 0 LINE",
"434 93 LINE",
"403 26 OFFCURVE",
"349 -16 OFFCURVE",
"269 -16 CURVE SMOOTH",
"207 -16 OFFCURVE",
"152 9 OFFCURVE",
"104 57 CURVE SMOOTH",
"52 109 OFFCURVE",
"26 173 OFFCURVE",
"26 250 CURVE SMOOTH",
"26 397 OFFCURVE",
"140 516 OFFCURVE",
"270 516 CURVE SMOOTH"
);
},
{
closed = 1;
nodes = (
"434 254 LINE SMOOTH",
"432 307 OFFCURVE",
"387 350 OFFCURVE",
"335 350 CURVE SMOOTH",
"278 350 OFFCURVE",
"236 303 OFFCURVE",
"236 250 CURVE SMOOTH",
"236 193 OFFCURVE",
"282 150 OFFCURVE",
"335 150 CURVE SMOOTH",
"392 150 OFFCURVE",
"434 198 OFFCURVE",
"434 250 CURVE SMOOTH"
);
}
);
width = 697;
}
);
leftKerningGroup = a;
unicode = 0111;
},
{
glyphname = e;
layers = (
{
hints = (
{
horizontal = 1;
place = "{-8, 140}";
},
{
horizontal = 1;
place = "{387, 122}";
}
);
layerId = UUID0;
paths = (
{
closed = 1;
nodes = (
"386 132 OFFCURVE",
"436 144 OFFCURVE",
"488 167 CURVE",
"513 33 LINE",
"452 6 OFFCURVE",
"384 -8 OFFCURVE",
"309 -8 CURVE SMOOTH",
"141 -8 OFFCURVE",
"25 101 OFFCURVE",
"25 250 CURVE SMOOTH",
"25 406 OFFCURVE",
"149 508 OFFCURVE",
"302 508 CURVE SMOOTH",
"456 508 OFFCURVE",
"533 398 OFFCURVE",
"533 263 CURVE SMOOTH",
"533 253 OFFCURVE",
"533 245 OFFCURVE",
"531 237 CURVE",
"231 198 LINE",
"247 151 OFFCURVE",
"284 132 OFFCURVE",
"341 132 CURVE SMOOTH"
);
},
{
closed = 1;
nodes = (
"378 324 LINE",
"367 366 OFFCURVE",
"341 387 OFFCURVE",
"302 387 CURVE SMOOTH",
"252 387 OFFCURVE",
"224 345 OFFCURVE",
"223 290 CURVE"
);
}
);
width = 556;
}
);
leftKerningGroup = c;
rightKerningGroup = e;
unicode = 0065;
},
{
glyphname = f;
layers = (
{
hints = (
{
horizontal = 1;
place = "{377, 124}";
},
{
horizontal = 1;
place = "{617, 150}";
},
{
horizontal = 1;
place = "{0, 21}";
target = up;
type = BottomGhost;
}
);
layerId = UUID0;
paths = (
{
closed = 1;
nodes = (
"291 617 OFFCURVE",
"268 598 OFFCURVE",
"268 561 CURVE SMOOTH",
"268 543 OFFCURVE",
"274 523 OFFCURVE",
"285 501 CURVE",
"425 501 LINE",
"425 377 LINE",
"299 377 LINE",
"299 0 LINE",
"88 0 LINE",
"88 377 LINE",
"25 377 LINE",
"25 501 LINE",
"88 501 LINE",
"88 687 OFFCURVE",
"139 768 OFFCURVE",
"271 768 CURVE SMOOTH",
"322 768 OFFCURVE",
"376 755 OFFCURVE",
"434 729 CURVE",
"427 594 LINE",
"389 609 OFFCURVE",
"356 617 OFFCURVE",
"330 617 CURVE SMOOTH"
);
}
);
width = 435;
}
);
leftKerningGroup = f;
unicode = 0066;
},
{
glyphname = g;
layers = (
{
hints = (
{
horizontal = 1;
place = "{-229, 153}";
},
{
horizontal = 1;
place = "{0, 150}";
},
{
horizontal = 1;
place = "{350, 159}";
}
);
layerId = UUID0;
paths = (
{
closed = 1;
nodes = (
"409 28 OFFCURVE",
"349 0 OFFCURVE",
"268 0 CURVE SMOOTH",
"139 0 OFFCURVE",
"26 107 OFFCURVE",
"26 253 CURVE SMOOTH",
"26 406 OFFCURVE",
"144 508 OFFCURVE",
"267 508 CURVE SMOOTH",
"349 508 OFFCURVE",
"414 462 OFFCURVE",
"433 392 CURVE",
"433 508 LINE",
"644 508 LINE",
"644 127 LINE SMOOTH",
"644 -92 OFFCURVE",
"548 -229 OFFCURVE",
"333 -229 CURVE SMOOTH",
"302 -229 OFFCURVE",
"267 -226 OFFCURVE",
"228 -220 CURVE",
"244 -70 LINE",
"276 -74 OFFCURVE",
"299 -76 OFFCURVE",
"312 -76 CURVE SMOOTH",
"412 -76 OFFCURVE",
"434 -8 OFFCURVE",
"448 83 CURVE"
);
},
{
closed = 1;
nodes = (
"433 254 LINE",
"431 306 OFFCURVE",
"384 350 OFFCURVE",
"333 350 CURVE SMOOTH",
"276 350 OFFCURVE",
"234 303 OFFCURVE",
"234 250 CURVE SMOOTH",
"234 186 OFFCURVE",
"288 150 OFFCURVE",
"333 150 CURVE SMOOTH",
"387 150 OFFCURVE",
"431 195 OFFCURVE",
"433 246 CURVE"
);
}
);
width = 695;
}
);
leftKerningGroup = a;
rightKerningGroup = g;
unicode = 0067;
},
{
glyphname = h;
layers = (
{
hints = (
{
horizontal = 1;
place = "{350, 159}";
},
{
horizontal = 1;
place = "{0, 21}";
target = up;
type = BottomGhost;
},
{
horizontal = 1;
place = "{690, -20}";
target = down;
type = TopGhost;
}
);
layerId = UUID0;
paths = (
{
closed = 1;
nodes = (
"52 659 LINE",
"263 690 LINE",
"263 390 LINE",
"297 472 OFFCURVE",
"354 508 OFFCURVE",
"428 508 CURVE SMOOTH",
"549 508 OFFCURVE",
"643 406 OFFCURVE",
"643 254 CURVE SMOOTH",
"643 0 LINE",
"433 0 LINE",
"433 250 LINE SMOOTH",
"433 301 OFFCURVE",
"403 350 OFFCURVE",
"363 350 CURVE SMOOTH",
"306 350 OFFCURVE",
"263 300 OFFCURVE",
"263 243 CURVE SMOOTH",
"263 0 LINE",
"52 0 LINE"
);
}
);
width = 690;
}
);
rightKerningGroup = h;
unicode = 0068;
},
{
glyphname = hbar;
layers = (
{
hints = (
{
horizontal = 1;
place = "{350, 166}";
},
{
horizontal = 1;
place = "{540, 85}";
},
{
horizontal = 1;
place = "{0, 21}";
target = up;
type = BottomGhost;
},
{
horizontal = 1;
place = "{690, -20}";
target = down;
type = TopGhost;
}
);
layerId = UUID0;
paths = (
{
closed = 1;
nodes = (
"-7 625 LINE",
"52 625 LINE",
"52 659 LINE",
"263 690 LINE",
"263 625 LINE",
"368 625 LINE",
"368 540 LINE",
"263 540 LINE",
"263 390 LINE",
"297 472 OFFCURVE",
"354 516 OFFCURVE",
"428 516 CURVE SMOOTH",
"549 516 OFFCURVE",
"643 406 OFFCURVE",
"643 254 CURVE SMOOTH",
"643 0 LINE",
"433 0 LINE",
"433 250 LINE SMOOTH",
"433 301 OFFCURVE",
"403 350 OFFCURVE",
"363 350 CURVE SMOOTH",
"306 350 OFFCURVE",
"263 300 OFFCURVE",
"263 243 CURVE SMOOTH",
"263 0 LINE",
"52 0 LINE",
"52 540 LINE",
"-7 540 LINE"
);
}
);
width = 690;
}
);
rightKerningGroup = h;
unicode = 0127;
},
{
glyphname = i;
layers = (
{
hints = (
{
horizontal = 1;
place = "{-8, 162}";
},
{
horizontal = 1;
place = "{565, 202}";
},
{
horizontal = 1;
place = "{501, -20}";
target = down;
type = TopGhost;
}
);
layerId = UUID0;
paths = (
{
closed = 1;
nodes = (
"44 726 OFFCURVE",
"99 768 OFFCURVE",
"158 768 CURVE SMOOTH",
"226 768 OFFCURVE",
"270 715 OFFCURVE",
"270 667 CURVE SMOOTH",
"270 607 OFFCURVE",
"216 565 OFFCURVE",
"158 565 CURVE SMOOTH",
"94 565 OFFCURVE",
"44 610 OFFCURVE",
"44 667 CURVE SMOOTH"
);
},
{
closed = 1;
nodes = (
"357 26 LINE",
"317 3 OFFCURVE",
"274 -8 OFFCURVE",
"226 -8 CURVE SMOOTH",
"112 -8 OFFCURVE",
"48 71 OFFCURVE",
"48 192 CURVE SMOOTH",
"48 501 LINE",
"260 501 LINE",
"260 202 LINE SMOOTH",
"260 170 OFFCURVE",
"279 154 OFFCURVE",
"305 154 CURVE SMOOTH",
"318 154 OFFCURVE",
"332 158 OFFCURVE",
"346 166 CURVE"
);
}
);
width = 365;
}
);
rightKerningGroup = i;
unicode = 0069;
},
{
glyphname = dotlessi;
layers = (
{
hints = (
{
horizontal = 1;
place = "{-16, 162}";
},
{
horizontal = 1;
place = "{501, -20}";
target = down;
type = TopGhost;
}
);
layerId = UUID0;
paths = (
{
closed = 1;
nodes = (
"357 19 LINE",
"317 -4 OFFCURVE",
"274 -16 OFFCURVE",
"226 -16 CURVE SMOOTH",
"112 -16 OFFCURVE",
"48 63 OFFCURVE",
"48 185 CURVE SMOOTH",
"48 501 LINE",
"260 501 LINE",
"260 194 LINE SMOOTH",
"260 163 OFFCURVE",
"279 146 OFFCURVE",
"305 146 CURVE SMOOTH",
"318 146 OFFCURVE",
"332 150 OFFCURVE",
"346 158 CURVE"
);
}
);
width = 365;
}
);
rightKerningGroup = i;
unicode = 0131;
},
{
glyphname = j;
layers = (
{
hints = (
{
horizontal = 1;
place = "{-216, 162}";
},
{
horizontal = 1;
place = "{565, 202}";
},
{
horizontal = 1;
place = "{501, -20}";
target = down;
type = TopGhost;
}
);
layerId = UUID0;
paths = (
{
closed = 1;
nodes = (
"30 -54 OFFCURVE",
"52 -26 OFFCURVE",
"52 29 CURVE SMOOTH",
"52 501 LINE",
"263 501 LINE",
"263 29 LINE SMOOTH",
"263 -123 OFFCURVE",
"179 -216 OFFCURVE",
"42 -216 CURVE SMOOTH",
"-20 -216 OFFCURVE",
"-77 -198 OFFCURVE",
"-129 -163 CURVE",
"-83 -39 LINE",
"-53 -49 OFFCURVE",
"-30 -54 OFFCURVE",
"-14 -54 CURVE SMOOTH"
);
},
{
closed = 1;
nodes = (
"42 725 OFFCURVE",
"97 768 OFFCURVE",
"154 768 CURVE SMOOTH",
"222 768 OFFCURVE",
"267 716 OFFCURVE",
"267 667 CURVE SMOOTH",
"267 607 OFFCURVE",
"214 565 OFFCURVE",
"154 565 CURVE SMOOTH",
"90 565 OFFCURVE",
"42 612 OFFCURVE",
"42 667 CURVE SMOOTH"
);
}
);
width = 315;
}
);
leftKerningGroup = j;
rightKerningGroup = j;
unicode = 006A;
},
{
glyphname = dotlessj;
layers = (
{
hints = (
{
horizontal = 1;
place = "{-216, 162}";
},
{
horizontal = 1;
place = "{501, -20}";
target = down;
type = TopGhost;
}
);
layerId = UUID0;
paths = (
{
closed = 1;
nodes = (
"30 -54 OFFCURVE",
"52 -26 OFFCURVE",
"52 29 CURVE SMOOTH",
"52 501 LINE",
"263 501 LINE",
"263 29 LINE SMOOTH",
"263 -123 OFFCURVE",
"179 -216 OFFCURVE",
"42 -216 CURVE SMOOTH",
"-20 -216 OFFCURVE",
"-77 -198 OFFCURVE",
"-129 -163 CURVE",
"-83 -39 LINE",
"-53 -49 OFFCURVE",
"-30 -54 OFFCURVE",
"-14 -54 CURVE SMOOTH"
);
}
);
width = 315;
}
);
leftKerningGroup = j;
rightKerningGroup = j;
unicode = 0237;
},
{
glyphname = k;
layers = (
{
hints = (
{
horizontal = 1;
place = "{-8, 161}";
},
{
horizontal = 1;
place = "{690, -20}";
target = down;
type = TopGhost;
},
{
horizontal = 1;
place = "{0, 21}";
target = up;
type = BottomGhost;
}
);
layerId = UUID0;
paths = (
{
closed = 1;
nodes = (
"475 289 LINE",
"482 247 OFFCURVE",
"489 218 OFFCURVE",
"497 204 CURVE",
"512 170 OFFCURVE",
"538 153 OFFCURVE",
"576 153 CURVE SMOOTH",
"585 153 OFFCURVE",
"600 155 OFFCURVE",
"619 159 CURVE",
"599 -5 LINE",
"579 -7 OFFCURVE",
"560 -8 OFFCURVE",
"543 -8 CURVE SMOOTH",
"401 -8 OFFCURVE",
"359 49 OFFCURVE",
"323 185 CURVE",
"264 138 LINE",
"264 0 LINE",
"52 0 LINE",
"52 659 LINE",
"264 690 LINE",
"264 348 LINE",
"521 558 LINE",
"636 401 LINE"
);
}
);
width = 642;
}
);
rightKerningGroup = k;
unicode = 006B;
},
{
glyphname = kgreenlandic;
layers = (
{
hints = (
{
horizontal = 1;
place = "{-15, 168}";
},
{
horizontal = 1;
place = "{500, -20}";
target = down;
type = TopGhost;
},
{
horizontal = 1;
place = "{0, 21}";
target = up;
type = BottomGhost;
}
);
layerId = UUID0;
paths = (
{
closed = 1;
nodes = (
"579 153 OFFCURVE",
"594 155 OFFCURVE",
"614 159 CURVE",
"598 -12 LINE",
"579 -14 OFFCURVE",
"561 -15 OFFCURVE",
"543 -15 CURVE SMOOTH",
"403 -15 OFFCURVE",
"358 46 OFFCURVE",
"322 175 CURVE",
"263 128 LINE",
"263 0 LINE",
"52 0 LINE",
"52 500 LINE",
"263 500 LINE",
"263 338 LINE",
"452 500 LINE",
"559 500 LINE",
"631 414 LINE",
"464 279 LINE",
"470 250 LINE",
"478 225 LINE SMOOTH",
"489 186 OFFCURVE",
"512 153 OFFCURVE",
"571 153 CURVE SMOOTH"
);
}
);
width = 639;
}
);
unicode = 0138;
},
{
glyphname = l;
layers = (
{
hints = (
{
horizontal = 1;
place = "{-8, 162}";
},
{
horizontal = 1;
place = "{690, -20}";
target = down;
type = TopGhost;
}
);
layerId = UUID0;
paths = (
{
closed = 1;
nodes = (
"376 26 LINE",
"331 3 OFFCURVE",
"281 -8 OFFCURVE",
"226 -8 CURVE SMOOTH",
"112 -8 OFFCURVE",
"48 69 OFFCURVE",
"48 192 CURVE SMOOTH",
"48 659 LINE",
"259 690 LINE",
"259 207 LINE SMOOTH",
"259 171 OFFCURVE",
"284 154 OFFCURVE",
"323 154 CURVE SMOOTH",
"338 154 OFFCURVE",
"353 158 OFFCURVE",
"369 166 CURVE"
);
}
);
width = 378;
}
);
rightKerningGroup = l;
unicode = 006C;
},
{
glyphname = lslash;
layers = (
{
hints = (
{
horizontal = 1;
place = "{-16, 162}";
},
{
horizontal = 1;
place = "{690, -20}";
target = down;
type = TopGhost;
}
);
layerId = UUID0;
paths = (
{
closed = 1;
nodes = (
"404 19 LINE",
"361 -4 OFFCURVE",
"316 -16 OFFCURVE",
"269 -16 CURVE SMOOTH",
"156 -16 OFFCURVE",
"92 63 OFFCURVE",
"92 185 CURVE SMOOTH",
"92 325 LINE",
"8 300 LINE",
"8 385 LINE",
"92 410 LINE",
"92 659 LINE",
"303 690 LINE",
"303 475 LINE",
"389 501 LINE",
"389 416 LINE",
"303 390 LINE",
"303 199 LINE SMOOTH",
"303 164 OFFCURVE",
"319 146 OFFCURVE",
"351 146 CURVE SMOOTH",
"365 146 OFFCURVE",
"379 150 OFFCURVE",
"394 158 CURVE"
);
}
);
width = 421;
}
);
rightKerningGroup = l;
unicode = 0142;
},
{
glyphname = m;
layers = (
{
hints = (
{
horizontal = 1;
place = "{348, 146}";
},
{
horizontal = 1;
place = "{348, 161}";
},
{
horizontal = 1;
place = "{0, 21}";
target = up;
type = BottomGhost;
}
);
layerId = UUID0;
paths = (
{
closed = 1;
nodes = (
"633 466 OFFCURVE",
"693 508 OFFCURVE",
"789 508 CURVE SMOOTH",
"898 508 OFFCURVE",
"979 402 OFFCURVE",
"979 250 CURVE SMOOTH",
"979 0 LINE",
"768 0 LINE",
"768 250 LINE SMOOTH",
"768 306 OFFCURVE",
"742 348 OFFCURVE",
"699 348 CURVE SMOOTH",
"643 348 OFFCURVE",
"619 291 OFFCURVE",
"619 250 CURVE SMOOTH",
"619 0 LINE",
"410 0 LINE",
"410 250 LINE SMOOTH",
"410 305 OFFCURVE",
"385 348 OFFCURVE",
"340 348 CURVE SMOOTH",
"292 348 OFFCURVE",
"262 305 OFFCURVE",
"261 254 CURVE",
"261 0 LINE",
"50 0 LINE",
"50 494 LINE",
"261 494 LINE",
"261 392 LINE",
"298 474 OFFCURVE",
"355 508 OFFCURVE",
"432 508 CURVE SMOOTH",
"505 508 OFFCURVE",
"573 472 OFFCURVE",
"605 384 CURVE"
);
}
);
width = 1025;
}
);
leftKerningGroup = m;
rightKerningGroup = h;
unicode = 006D;
},
{
glyphname = n;
layers = (
{
hints = (
{
horizontal = 1;
place = "{360, 133}";
},
{
horizontal = 1;
place = "{360, 148}";
},
{
horizontal = 1;
place = "{0, 21}";
target = up;
type = BottomGhost;
}
);
layerId = UUID0;
paths = (
{
closed = 1;
nodes = (
"50 494 LINE",
"251 494 LINE",
"251 392 LINE",
"290 470 OFFCURVE",
"352 508 OFFCURVE",
"435 508 CURVE SMOOTH",
"567 508 OFFCURVE",
"640 405 OFFCURVE",
"640 250 CURVE SMOOTH",
"640 0 LINE",
"430 0 LINE",
"430 271 LINE SMOOTH",
"430 323 OFFCURVE",
"411 360 OFFCURVE",
"364 360 CURVE SMOOTH",
"307 360 OFFCURVE",
"267 296 OFFCURVE",
"261 265 CURVE",
"261 0 LINE",
"50 0 LINE"
);
}
);
width = 687;
}
);
leftKerningGroup = m;
rightKerningGroup = h;
unicode = 006E;
},
{
glyphname = eng;
layers = (
{
hints = (
{
horizontal = 1;
place = "{-246, 163}";
},
{
horizontal = 1;
place = "{350, 166}";
},
{
horizontal = 1;
place = "{0, 21}";
target = up;
type = BottomGhost;
}
);
layerId = UUID0;
paths = (
{
closed = 1;
nodes = (
"407 -83 OFFCURVE",
"430 -55 OFFCURVE",
"430 0 CURVE SMOOTH",
"430 250 LINE SMOOTH",
"430 301 OFFCURVE",
"400 350 OFFCURVE",
"359 350 CURVE SMOOTH",
"305 350 OFFCURVE",
"262 305 OFFCURVE",
"261 254 CURVE",
"261 0 LINE",
"50 0 LINE",
"50 483 LINE",
"261 516 LINE",
"261 392 LINE",
"296 470 OFFCURVE",
"356 516 OFFCURVE",
"435 516 CURVE SMOOTH",
"552 516 OFFCURVE",
"640 399 OFFCURVE",
"640 250 CURVE SMOOTH",
"640 0 LINE SMOOTH",
"640 -152 OFFCURVE",
"558 -246 OFFCURVE",
"419 -246 CURVE SMOOTH",
"358 -246 OFFCURVE",
"301 -229 OFFCURVE",
"248 -193 CURVE",
"294 -69 LINE",
"320 -79 OFFCURVE",
"343 -83 OFFCURVE",
"362 -83 CURVE SMOOTH"
);
}
);
width = 687;
}
);
leftKerningGroup = m;
rightKerningGroup = h;
unicode = 014B;
},
{
glyphname = o;
layers = (
{
hints = (
{
horizontal = 1;
place = "{-8, 149}";
},
{
horizontal = 1;
place = "{360, 148}";
}
);
layerId = UUID0;
paths = (
{
closed = 1;
nodes = (
"221 178 OFFCURVE",
"268 142 OFFCURVE",
"315 142 CURVE SMOOTH",
"362 142 OFFCURVE",
"409 178 OFFCURVE",
"409 251 CURVE SMOOTH",
"409 324 OFFCURVE",
"362 360 OFFCURVE",
"315 360 CURVE SMOOTH",
"268 360 OFFCURVE",
"221 324 OFFCURVE",
"221 251 CURVE SMOOTH"
);
},
{
closed = 1;
nodes = (
"32 418 OFFCURVE",
"160 508 OFFCURVE",
"314 508 CURVE SMOOTH",
"484 508 OFFCURVE",
"602 402 OFFCURVE",
"602 251 CURVE SMOOTH",
"602 67 OFFCURVE",
"450 -8 OFFCURVE",
"313 -8 CURVE SMOOTH",
"142 -8 OFFCURVE",
"25 97 OFFCURVE",
"25 251 CURVE"
);
}
);
width = 627;
}
);
leftKerningGroup = c;
rightKerningGroup = o;
unicode = 006F;
},
{
glyphname = oslash;
layers = (
{
hints = (
{
horizontal = 1;
place = "{360, 155}";
},
{
horizontal = 1;
place = "{-85, 21}";
target = up;
type = BottomGhost;
},
{
horizontal = 1;
place = "{-16, 21}";
target = up;
type = BottomGhost;
},
{
horizontal = 1;
place = "{587, -20}";
target = down;
type = TopGhost;
}
);
layerId = UUID0;
paths = (
{
closed = 1;
nodes = (
"211 -1 LINE",
"101 34 OFFCURVE",
"26 124 OFFCURVE",
"26 251 CURVE SMOOTH",
"26 435 OFFCURVE",
"171 516 OFFCURVE",
"320 516 CURVE SMOOTH",
"325 516 LINE SMOOTH",
"328 516 OFFCURVE",
"332 515 OFFCURVE",
"336 515 CURVE SMOOTH",
"337 515 LINE",
"354 587 LINE",
"412 587 LINE",
"392 504 LINE",
"503 470 OFFCURVE",
"581 379 OFFCURVE",
"581 251 CURVE SMOOTH",
"581 65 OFFCURVE",
"427 -16 OFFCURVE",
"281 -16 CURVE SMOOTH",
"273 -16 LINE SMOOTH",
"271 -16 OFFCURVE",
"267 -15 OFFCURVE",
"264 -15 CURVE",
"247 -85 LINE",
"190 -85 LINE"
);
},
{
closed = 1;
nodes = (
"303 141 LINE",
"355 148 OFFCURVE",
"396 197 OFFCURVE",
"396 251 CURVE SMOOTH",
"396 290 OFFCURVE",
"377 323 OFFCURVE",
"352 342 CURVE"
);
},
{
closed = 1;
nodes = (
"300 360 LINE",
"247 358 OFFCURVE",
"210 309 OFFCURVE",
"210 251 CURVE SMOOTH",
"210 212 OFFCURVE",
"227 179 OFFCURVE",
"251 160 CURVE"
);
}
);
width = 607;
}
);
leftKerningGroup = c;
rightKerningGroup = o;
unicode = 00F8;
},
{
glyphname = oe;
layers = (
{
hints = (
{
horizontal = 1;
place = "{-16, 144}";
},
{
horizontal = 1;
place = "{351, 165}";
},
{
horizontal = 1;
place = "{387, 129}";
},
{
horizontal = 1;
place = "{-16, 167}";
}
);
layerId = UUID0;
paths = (
{
closed = 1;
nodes = (
"729 128 OFFCURVE",
"747 130 OFFCURVE",
"767 134 CURVE SMOOTH",
"811 144 OFFCURVE",
"812 145 OFFCURVE",
"857 163 CURVE",
"882 25 LINE",
"821 -2 OFFCURVE",
"753 -16 OFFCURVE",
"677 -16 CURVE SMOOTH",
"605 -16 OFFCURVE",
"543 11 OFFCURVE",
"492 65 CURVE",
"443 11 OFFCURVE",
"383 -16 OFFCURVE",
"313 -16 CURVE SMOOTH",
"142 -16 OFFCURVE",
"25 97 OFFCURVE",
"25 251 CURVE SMOOTH",
"25 337 OFFCURVE",
"61 403 OFFCURVE",
"116 448 CURVE SMOOTH",
"163 487 OFFCURVE",
"232 516 OFFCURVE",
"314 516 CURVE SMOOTH",
"381 516 OFFCURVE",
"441 492 OFFCURVE",
"492 444 CURVE",
"543 492 OFFCURVE",
"603 516 OFFCURVE",
"671 516 CURVE SMOOTH",
"810 516 OFFCURVE",
"902 416 OFFCURVE",
"902 263 CURVE SMOOTH",
"902 253 OFFCURVE",
"902 245 OFFCURVE",
"900 237 CURVE",
"600 198 LINE",
"617 151 OFFCURVE",
"649 128 OFFCURVE",
"710 128 CURVE SMOOTH"
);
},
{
closed = 1;
nodes = (
"375 151 OFFCURVE",
"404 212 OFFCURVE",
"404 251 CURVE SMOOTH",
"404 306 OFFCURVE",
"363 351 OFFCURVE",
"314 351 CURVE SMOOTH",
"261 351 OFFCURVE",
"225 304 OFFCURVE",
"225 251 CURVE SMOOTH",
"225 195 OFFCURVE",
"266 151 OFFCURVE",
"314 151 CURVE SMOOTH"
);
},
{
closed = 1;
nodes = (
"747 324 LINE",
"736 366 OFFCURVE",
"710 387 OFFCURVE",
"671 387 CURVE SMOOTH",
"620 387 OFFCURVE",
"594 345 OFFCURVE",
"592 290 CURVE"
);
}
);
width = 925;
}
);
leftKerningGroup = c;
rightKerningGroup = e;
unicode = 0153;
},
{
glyphname = p;
layers = (
{
hints = (
{
horizontal = 1;
place = "{-8, 158}";
},
{
horizontal = 1;
place = "{350, 144}";
},
{
horizontal = 1;
place = "{350, 159}";
},
{
horizontal = 1;
place = "{-170, 21}";
target = up;
type = BottomGhost;
}
);
layerId = UUID0;
paths = (
{
closed = 1;
nodes = (
"351 -8 OFFCURVE",
"296 21 OFFCURVE",
"261 93 CURVE",
"261 -130 LINE",
"50 -170 LINE",
"50 494 LINE",
"261 494 LINE",
"261 407 LINE",
"295 479 OFFCURVE",
"350 508 OFFCURVE",
"424 508 CURVE SMOOTH",
"486 508 OFFCURVE",
"542 492 OFFCURVE",
"591 443 CURVE SMOOTH",
"643 392 OFFCURVE",
"669 328 OFFCURVE",
"669 250 CURVE SMOOTH",
"669 173 OFFCURVE",
"643 109 OFFCURVE",
"591 57 CURVE SMOOTH",
"543 9 OFFCURVE",
"487 -8 OFFCURVE",
"425 -8 CURVE SMOOTH"
);
},
{
closed = 1;
nodes = (
"261 250 LINE SMOOTH",
"261 193 OFFCURVE",
"307 150 OFFCURVE",
"359 150 CURVE SMOOTH",
"417 150 OFFCURVE",
"460 197 OFFCURVE",
"460 250 CURVE SMOOTH",
"460 313 OFFCURVE",
"408 350 OFFCURVE",
"359 350 CURVE SMOOTH",
"297 350 OFFCURVE",
"265 296 OFFCURVE",
"261 254 CURVE"
);
}
);
width = 695;
}
);
rightKerningGroup = b;
unicode = 0070;
},
{
glyphname = thorn;
layers = (
{
hints = (
{
horizontal = 1;
place = "{-16, 166}";
},
{
horizontal = 1;
place = "{350, 166}";
},
{
horizontal = 1;
place = "{690, -20}";
target = down;
type = TopGhost;
},
{
horizontal = 1;
place = "{-249, 21}";
target = up;
type = BottomGhost;
}
);
layerId = UUID0;
paths = (
{
closed = 1;
nodes = (
"349 -16 OFFCURVE",
"294 26 OFFCURVE",
"263 93 CURVE",
"263 -249 LINE",
"52 -249 LINE",
"52 659 LINE",
"263 690 LINE",
"263 407 LINE",
"297 479 OFFCURVE",
"351 516 OFFCURVE",
"426 516 CURVE SMOOTH",
"562 516 OFFCURVE",
"671 397 OFFCURVE",
"671 250 CURVE SMOOTH",
"671 104 OFFCURVE",
"557 -16 OFFCURVE",
"427 -16 CURVE SMOOTH"
);
},
{
closed = 1;
nodes = (
"263 250 LINE SMOOTH",
"263 194 OFFCURVE",
"309 150 OFFCURVE",
"362 150 CURVE SMOOTH",
"418 150 OFFCURVE",
"462 197 OFFCURVE",
"462 250 CURVE SMOOTH",
"462 314 OFFCURVE",
"409 350 OFFCURVE",
"362 350 CURVE SMOOTH",
"307 350 OFFCURVE",
"265 306 OFFCURVE",
"263 254 CURVE SMOOTH"
);
}
);
width = 697;
}
);
rightKerningGroup = b;
unicode = 00FE;
},
{
glyphname = q;
layers = (
{
hints = (
{
horizontal = 1;
place = "{-8, 158}";
},
{
horizontal = 1;
place = "{350, 144}";
},
{
horizontal = 1;
place = "{350, 159}";
},
{
horizontal = 1;
place = "{-170, 21}";
target = up;
type = BottomGhost;
}
);
layerId = UUID0;
paths = (
{
closed = 1;
nodes = (
"345 508 OFFCURVE",
"400 479 OFFCURVE",
"435 407 CURVE",
"435 494 LINE",
"646 494 LINE",
"646 -130 LINE",
"435 -170 LINE",
"435 93 LINE",
"399 21 OFFCURVE",
"344 -8 OFFCURVE",
"270 -8 CURVE SMOOTH",
"121 -8 OFFCURVE",
"26 115 OFFCURVE",
"26 250 CURVE SMOOTH",
"26 398 OFFCURVE",
"137 508 OFFCURVE",
"271 508 CURVE SMOOTH"
);
},
{
closed = 1;
nodes = (
"435 254 LINE",
"433 307 OFFCURVE",
"386 350 OFFCURVE",
"336 350 CURVE SMOOTH",
"280 350 OFFCURVE",
"236 303 OFFCURVE",
"236 250 CURVE SMOOTH",
"236 193 OFFCURVE",
"284 150 OFFCURVE",
"336 150 CURVE SMOOTH",
"390 150 OFFCURVE",
"433 195 OFFCURVE",
"435 246 CURVE"
);
}
);
width = 696;
}
);
leftKerningGroup = a;
unicode = 0071;
},
{
glyphname = r;
layers = (
{
hints = (
{
horizontal = 1;
place = "{345, 164}";
},
{
horizontal = 1;
place = "{0, 21}";
target = up;
type = BottomGhost;
}
);
layerId = UUID0;
paths = (
{
closed = 1;
nodes = (
"50 494 LINE",
"261 494 LINE",
"261 392 LINE",
"292 472 OFFCURVE",
"347 508 OFFCURVE",
"416 508 CURVE",
"445 345 LINE",
"318 345 OFFCURVE",
"261 319 OFFCURVE",
"261 260 CURVE SMOOTH",
"261 0 LINE",
"50 0 LINE"
);
}
);
width = 446;
}
);
leftKerningGroup = m;
rightKerningGroup = r;
unicode = 0072;
},
{
glyphname = s;
layers = (
{
hints = (
{
horizontal = 1;
place = "{-8, 121}";
},
{
horizontal = 1;
place = "{384, 125}";
}
);
layerId = UUID0;
paths = (
{
closed = 1;
nodes = (
"227 384 OFFCURVE",
"207 377 OFFCURVE",
"207 363 CURVE SMOOTH",
"207 343 OFFCURVE",
"233 330 OFFCURVE",
"257 327 CURVE",
"359 312 OFFCURVE",
"438 266 OFFCURVE",
"438 159 CURVE SMOOTH",
"438 54 OFFCURVE",
"358 -8 OFFCURVE",
"253 -8 CURVE SMOOTH",
"167 -8 OFFCURVE",
"98 -2 OFFCURVE",
"39 23 CURVE",
"62 139 LINE",
"83 133 OFFCURVE",
"99 128 OFFCURVE",
"109 126 CURVE SMOOTH",
"128 122 OFFCURVE",
"173 113 OFFCURVE",
"202 113 CURVE SMOOTH",
"235 113 OFFCURVE",
"252 121 OFFCURVE",
"252 137 CURVE",
"248 162 OFFCURVE",
"218 173 OFFCURVE",
"183 180 CURVE",
"81 199 OFFCURVE",
"27 241 OFFCURVE",
"27 345 CURVE",
"33 462 OFFCURVE",
"120 508 OFFCURVE",
"241 508 CURVE SMOOTH",
"304 508 OFFCURVE",
"360 504 OFFCURVE",
"409 480 CURVE",
"388 361 LINE",
"339 376 OFFCURVE",
"298 384 OFFCURVE",
"267 384 CURVE SMOOTH"
);
}
);
width = 462;
}
);
leftKerningGroup = s;
rightKerningGroup = s;
unicode = 0073;
},
{
glyphname = germandbls;
layers = (
{
hints = (
{
horizontal = 1;
place = "{-45, 160}";
},
{
horizontal = 1;
place = "{570, 133}";
}
);
layerId = UUID0;
paths = (
{
closed = 1;
nodes = (
"295 570 OFFCURVE",
"267 544 OFFCURVE",
"267 503 CURVE SMOOTH",
"267 0 LINE",
"52 -16 LINE",
"52 539 LINE SMOOTH",
"52 633 OFFCURVE",
"175 703 OFFCURVE",
"341 703 CURVE SMOOTH",
"475 703 OFFCURVE",
"593 641 OFFCURVE",
"593 534 CURVE SMOOTH",
"593 471 OFFCURVE",
"563 425 OFFCURVE",
"518 397 CURVE",
"612 370 OFFCURVE",
"688 291 OFFCURVE",
"688 195 CURVE SMOOTH",
"688 26 OFFCURVE",
"544 -45 OFFCURVE",
"391 -45 CURVE SMOOTH",
"377 -45 OFFCURVE",
"337 -44 OFFCURVE",
"324 -44 CURVE",
"324 117 LINE",
"341 116 OFFCURVE",
"357 115 OFFCURVE",
"373 115 CURVE SMOOTH",
"437 115 OFFCURVE",
"474 164 OFFCURVE",
"474 229 CURVE SMOOTH",
"474 284 OFFCURVE",
"430 331 OFFCURVE",
"344 351 CURVE",
"344 443 LINE",
"391 451 OFFCURVE",
"427 478 OFFCURVE",
"427 513 CURVE SMOOTH",
"427 552 OFFCURVE",
"386 570 OFFCURVE",
"339 570 CURVE SMOOTH"
);
}
);
width = 707;
}
);
leftKerningGroup = f;
unicode = 00DF;
},
{
glyphname = t;
layers = (
{
hints = (
{
horizontal = 1;
place = "{-8, 162}";
},
{
horizontal = 1;
place = "{377, 124}";
},
{
horizontal = 1;
place = "{690, -20}";
target = down;
type = TopGhost;
}
);
layerId = UUID0;
paths = (
{
closed = 1;
nodes = (
"410 26 LINE",
"364 3 OFFCURVE",
"314 -8 OFFCURVE",
"259 -8 CURVE SMOOTH",
"146 -8 OFFCURVE",
"82 69 OFFCURVE",
"82 192 CURVE",
"83 377 LINE",
"19 377 LINE",
"19 501 LINE",
"98 501 LINE",
"191 690 LINE",
"292 690 LINE",
"292 501 LINE",
"408 501 LINE",
"408 377 LINE",
"292 377 LINE",
"292 207 LINE SMOOTH",
"292 172 OFFCURVE",
"317 154 OFFCURVE",
"356 154 CURVE SMOOTH",
"371 154 OFFCURVE",
"387 158 OFFCURVE",
"402 166 CURVE"
);
}
);
width = 435;
}
);
leftKerningGroup = t;
rightKerningGroup = t;
unicode = 0074;
},
{
glyphname = tbar;
layers = (
{
hints = (
{
horizontal = 1;
place = "{-16, 162}";
},
{
horizontal = 1;
place = "{253, 85}";
},
{
horizontal = 1;
place = "{377, 124}";
},
{
horizontal = 1;
place = "{690, -20}";
target = down;
type = TopGhost;
}
);
layerId = UUID0;
paths = (
{
closed = 1;
nodes = (
"418 19 LINE",
"373 -4 OFFCURVE",
"323 -16 OFFCURVE",
"268 -16 CURVE SMOOTH",
"153 -16 OFFCURVE",
"90 62 OFFCURVE",
"90 185 CURVE SMOOTH",
"90 253 LINE",
"34 253 LINE",
"34 338 LINE",
"91 338 LINE",
"91 377 LINE",
"27 377 LINE",
"27 501 LINE",
"91 501 LINE",
"91 622 LINE",
"301 690 LINE",
"301 501 LINE",
"416 501 LINE",
"416 377 LINE",
"301 377 LINE",
"301 338 LINE",
"410 338 LINE",
"410 253 LINE",
"301 253 LINE",
"301 199 LINE SMOOTH",
"301 164 OFFCURVE",
"325 146 OFFCURVE",
"364 146 CURVE SMOOTH",
"379 146 OFFCURVE",
"395 150 OFFCURVE",
"410 158 CURVE"
);
}
);
width = 450;
}
);
leftKerningGroup = t;
rightKerningGroup = t;
unicode = 0167;
},
{
glyphname = u;
layers = (
{
hints = (
{
horizontal = 1;
place = "{-8, 156}";
},
{
horizontal = 1;
place = "{501, -20}";
target = down;
type = TopGhost;
}
);
layerId = UUID0;
paths = (
{
closed = 1;
nodes = (
"252 208 LINE SMOOTH",
"252 173 OFFCURVE",
"282 148 OFFCURVE",
"317 148 CURVE SMOOTH",
"351 148 OFFCURVE",
"379 175 OFFCURVE",
"379 208 CURVE SMOOTH",
"379 501 LINE",
"581 501 LINE",
"581 215 LINE SMOOTH",
"581 77 OFFCURVE",
"468 -8 OFFCURVE",
"316 -8 CURVE SMOOTH",
"167 -8 OFFCURVE",
"46 74 OFFCURVE",
"46 215 CURVE SMOOTH",
"46 501 LINE",
"252 501 LINE"
);
}
);
width = 628;
}
);
leftKerningGroup = u;
rightKerningGroup = u;
unicode = 0075;
},
{
glyphname = v;
layers = (
{
hints = (
{
horizontal = 1;
place = "{0, 21}";
target = up;
type = BottomGhost;
},
{
horizontal = 1;
place = "{501, -20}";
target = down;
type = TopGhost;
}
);
layerId = UUID0;
paths = (
{
closed = 1;
nodes = (
"1 501 LINE",
"233 501 LINE",
"313 193 LINE",
"325 262 LINE",
"385 501 LINE",
"568 501 LINE",
"409 0 LINE",
"166 0 LINE"
);
}
);
width = 570;
}
);
unicode = 0076;
},
{
glyphname = w;
layers = (
{
hints = (
{
horizontal = 1;
place = "{0, 21}";
target = up;
type = BottomGhost;
},
{
horizontal = 1;
place = "{501, -20}";
target = down;
type = TopGhost;
}
);
layerId = UUID0;
paths = (
{
closed = 1;
nodes = (
"20 501 LINE",
"224 501 LINE",
"281 176 LINE",
"296 241 OFFCURVE",
"309 305 OFFCURVE",
"329 399 CURVE SMOOTH",
"350 501 LINE",
"522 501 LINE",
"572 266 LINE",
"590 168 LINE",
"610 266 LINE",
"649 501 LINE",
"813 501 LINE",
"709 0 LINE",
"467 0 LINE",
"414 265 LINE",
"361 0 LINE",
"130 0 LINE"
);
}
);
width = 833;
}
);
leftKerningGroup = w;
rightKerningGroup = w;
unicode = 0077;
},
{
glyphname = x;
layers = (
{
hints = (
{
horizontal = 1;
place = "{0, 21}";
target = up;
type = BottomGhost;
},
{
horizontal = 1;
place = "{501, -20}";
target = down;
type = TopGhost;
}
);
layerId = UUID0;
paths = (
{
closed = 1;
nodes = (
"154 260 LINE",
"12 501 LINE",
"223 501 LINE",
"279 383 LINE",
"337 501 LINE",
"542 501 LINE",
"402 260 LINE",
"552 0 LINE",
"347 0 LINE",
"279 128 LINE",
"213 0 LINE",
"2 0 LINE"
);
}
);
width = 555;
}
);
unicode = 0078;
},
{
glyphname = y;
layers = (
{
hints = (
{
horizontal = 1;
place = "{-234, 168}";
},
{
horizontal = 1;
place = "{0, 150}";
},
{
horizontal = 1;
place = "{501, -20}";
target = down;
type = TopGhost;
}
);
layerId = UUID0;
paths = (
{
closed = 1;
nodes = (
"385 28 OFFCURVE",
"337 0 OFFCURVE",
"271 0 CURVE SMOOTH",
"152 0 OFFCURVE",
"48 89 OFFCURVE",
"48 212 CURVE SMOOTH",
"48 501 LINE",
"258 501 LINE",
"258 222 LINE SMOOTH",
"258 183 OFFCURVE",
"293 150 OFFCURVE",
"326 150 CURVE SMOOTH",
"375 150 OFFCURVE",
"406 188 OFFCURVE",
"406 235 CURVE SMOOTH",
"406 501 LINE",
"617 501 LINE",
"617 127 LINE SMOOTH",
"617 -107 OFFCURVE",
"518 -234 OFFCURVE",
"337 -234 CURVE SMOOTH",
"316 -234 OFFCURVE",
"288 -231 OFFCURVE",
"250 -225 CURVE",
"271 -61 LINE",
"289 -65 OFFCURVE",
"305 -66 OFFCURVE",
"321 -66 CURVE SMOOTH",
"396 -66 OFFCURVE",
"410 12 OFFCURVE",
"416 83 CURVE"
);
}
);
width = 668;
}
);
leftKerningGroup = y;
rightKerningGroup = y;
unicode = 0079;
},
{
glyphname = z;
layers = (
{
hints = (
{
horizontal = 1;
place = "{0, 128}";
},
{
horizontal = 1;
place = "{373, 128}";
}
);
layerId = UUID0;
paths = (
{
closed = 1;
nodes = (
"31 107 LINE",
"207 373 LINE",
"38 373 LINE",
"38 501 LINE",
"454 501 LINE",
"454 393 LINE",
"298 128 LINE",
"458 128 LINE",
"458 0 LINE",
"31 0 LINE"
);
}
);
width = 490;
}
);
leftKerningGroup = z;
rightKerningGroup = z;
unicode = 007A;
},
{
glyphname = fi;
layers = (
{
hints = (
{
horizontal = 1;
place = "{-16, 162}";
},
{
horizontal = 1;
place = "{377, 124}";
},
{
horizontal = 1;
place = "{565, 202}";
},
{
horizontal = 1;
place = "{608, 159}";
},
{
horizontal = 1;
place = "{0, 21}";
target = up;
type = BottomGhost;
}
);
layerId = UUID0;
paths = (
{
closed = 1;
nodes = (
"838 19 LINE",
"798 -4 OFFCURVE",
"755 -16 OFFCURVE",
"707 -16 CURVE SMOOTH",
"594 -16 OFFCURVE",
"530 63 OFFCURVE",
"530 185 CURVE SMOOTH",
"530 377 LINE",
"299 377 LINE",
"299 0 LINE",
"88 0 LINE",
"88 377 LINE",
"25 377 LINE",
"25 501 LINE",
"88 501 LINE",
"88 555 LINE SMOOTH",
"88 689 OFFCURVE",
"147 768 OFFCURVE",
"271 768 CURVE SMOOTH",
"322 768 OFFCURVE",
"376 755 OFFCURVE",
"434 729 CURVE",
"427 594 LINE",
"397 604 OFFCURVE",
"374 608 OFFCURVE",
"355 608 CURVE SMOOTH",
"318 608 OFFCURVE",
"299 588 OFFCURVE",
"299 548 CURVE SMOOTH",
"299 501 LINE",
"741 501 LINE",
"741 194 LINE SMOOTH",
"741 163 OFFCURVE",
"760 146 OFFCURVE",
"786 146 CURVE SMOOTH",
"799 146 OFFCURVE",
"813 150 OFFCURVE",
"827 158 CURVE"
);
},
{
closed = 1;
nodes = (
"525 725 OFFCURVE",
"581 768 OFFCURVE",
"639 768 CURVE SMOOTH",
"699 768 OFFCURVE",
"751 721 OFFCURVE",
"751 667 CURVE SMOOTH",
"751 606 OFFCURVE",
"696 565 OFFCURVE",
"639 565 CURVE SMOOTH",
"576 565 OFFCURVE",
"525 610 OFFCURVE",
"525 667 CURVE SMOOTH"
);
}
);
width = 846;
}
);
leftKerningGroup = f;
rightKerningGroup = i;
unicode = FB01;
},
{
glyphname = fl;
layers = (
{
hints = (
{
horizontal = 1;
place = "{-16, 162}";
},
{
horizontal = 1;
place = "{377, 124}";
},
{
horizontal = 1;
place = "{608, 141}";
},
{
horizontal = 1;
place = "{0, 21}";
target = up;
type = BottomGhost;
}
);
layerId = UUID0;
paths = (
{
closed = 1;
nodes = (
"333 608 OFFCURVE",
"299 588 OFFCURVE",
"299 548 CURVE SMOOTH",
"299 501 LINE",
"425 501 LINE",
"425 377 LINE",
"299 377 LINE",
"299 0 LINE",
"88 0 LINE",
"88 377 LINE",
"25 377 LINE",
"25 501 LINE",
"88 501 LINE",
"88 555 LINE SMOOTH",
"88 718 OFFCURVE",
"246 749 OFFCURVE",
"440 749 CURVE SMOOTH",
"495 749 OFFCURVE",
"521 744 OFFCURVE",
"727 701 CURVE",
"727 199 LINE SMOOTH",
"727 164 OFFCURVE",
"743 146 OFFCURVE",
"774 146 CURVE SMOOTH",
"789 146 OFFCURVE",
"803 150 OFFCURVE",
"817 158 CURVE",
"829 19 LINE",
"786 -4 OFFCURVE",
"740 -16 OFFCURVE",
"692 -16 CURVE SMOOTH",
"573 -16 OFFCURVE",
"516 72 OFFCURVE",
"516 185 CURVE SMOOTH",
"516 600 LINE",
"472 605 OFFCURVE",
"434 608 OFFCURVE",
"403 608 CURVE SMOOTH"
);
}
);
width = 834;
}
);
leftKerningGroup = f;
rightKerningGroup = l;
unicode = FB02;
},
{
glyphname = mu;
layers = (
{
hints = (
{
horizontal = 1;
place = "{-16, 164}";
},
{
horizontal = 1;
place = "{501, -20}";
target = down;
type = TopGhost;
},
{
horizontal = 1;
place = "{-146, 21}";
target = up;
type = BottomGhost;
}
);
layerId = UUID0;
paths = (
{
closed = 1;
nodes = (
"333 -16 OFFCURVE",
"295 -6 OFFCURVE",
"257 12 CURVE",
"257 -132 LINE",
"57 -146 LINE",
"57 501 LINE",
"263 501 LINE",
"263 168 LINE",
"283 155 OFFCURVE",
"303 148 OFFCURVE",
"325 148 CURVE SMOOTH",
"359 148 OFFCURVE",
"386 175 OFFCURVE",
"386 208 CURVE SMOOTH",
"386 501 LINE",
"587 501 LINE",
"587 215 LINE SMOOTH",
"587 82 OFFCURVE",
"492 -16 OFFCURVE",
"369 -16 CURVE SMOOTH"
);
}
);
width = 621;
}
);
unicode = 03BC;
},
{
glyphname = pi;
layers = (
{
hints = (
{
horizontal = 1;
place = "{-16, 162}";
},
{
horizontal = 1;
place = "{416, 85}";
}
);
layerId = UUID0;
paths = (
{
closed = 1;
nodes = (
"117 501 LINE",
"644 501 LINE",
"644 1 LINE",
"433 1 LINE",
"433 416 LINE",
"329 416 LINE",
"329 185 LINE SMOOTH",
"329 60 OFFCURVE",
"262 -16 OFFCURVE",
"151 -16 CURVE SMOOTH",
"104 -16 OFFCURVE",
"60 -4 OFFCURVE",
"21 19 CURVE",
"31 158 LINE",
"45 150 OFFCURVE",
"59 146 OFFCURVE",
"72 146 CURVE SMOOTH",
"98 146 OFFCURVE",
"117 163 OFFCURVE",
"117 194 CURVE SMOOTH",
"117 199 LINE"
);
}
);
width = 699;
}
);
unicode = 03C0;
},
{
glyphname = zero;
layers = (
{
hints = (
{
horizontal = 1;
place = "{-8, 166}";
},
{
horizontal = 1;
place = "{517, 166}";
}
);
layerId = UUID0;
paths = (
{
closed = 1;
nodes = (
"633 510 OFFCURVE",
"660 431 OFFCURVE",
"660 338 CURVE SMOOTH",
"660 245 OFFCURVE",
"633 166 OFFCURVE",
"580 100 CURVE SMOOTH",
"521 28 OFFCURVE",
"443 -8 OFFCURVE",
"347 -8 CURVE SMOOTH",
"149 -8 OFFCURVE",
"33 152 OFFCURVE",
"33 338 CURVE SMOOTH",
"33 557 OFFCURVE",
"182 683 OFFCURVE",
"347 683 CURVE SMOOTH",
"442 683 OFFCURVE",
"520 647 OFFCURVE",
"579 575 CURVE SMOOTH"
);
},
{
closed = 1;
nodes = (
"241 382 OFFCURVE",
"239 360 OFFCURVE",
"239 338 CURVE SMOOTH",
"239 248 OFFCURVE",
"275 158 OFFCURVE",
"347 158 CURVE SMOOTH",
"407 158 OFFCURVE",
"454 233 OFFCURVE",
"454 338 CURVE SMOOTH",
"454 433 OFFCURVE",
"416 517 OFFCURVE",
"347 517 CURVE SMOOTH",
"282 517 OFFCURVE",
"257 455 OFFCURVE",
"245 403 CURVE"
);
}
);
width = 693;
}
);
unicode = 0030;
},
{
glyphname = one;
layers = (
{
hints = (
{
horizontal = 1;
place = "{0, 147}";
},
{
horizontal = 1;
place = "{477, 127}";
},
{
horizontal = 1;
place = "{669, -20}";
target = down;
type = TopGhost;
}
);
layerId = UUID0;
paths = (
{
closed = 1;
nodes = (
"43 147 LINE",
"127 147 LINE",
"127 480 LINE",
"43 474 LINE",
"43 604 LINE",
"100 604 OFFCURVE",
"171 625 OFFCURVE",
"237 669 CURVE",
"342 669 LINE",
"342 147 LINE",
"426 147 LINE",
"426 0 LINE",
"43 0 LINE"
);
}
);
width = 452;
}
);
unicode = 0031;
},
{
glyphname = two;
layers = (
{
hints = (
{
horizontal = 1;
place = "{0, 146}";
},
{
horizontal = 1;
place = "{510, 166}";
}
);
layerId = UUID0;
paths = (
{
closed = 1;
nodes = (
"178 510 OFFCURVE",
"146 500 OFFCURVE",
"134 497 CURVE",
"125 493 OFFCURVE",
"77 471 OFFCURVE",
"78 471 CURVE",
"27 620 LINE",
"113 655 OFFCURVE",
"185 676 OFFCURVE",
"267 676 CURVE SMOOTH",
"403 676 OFFCURVE",
"479 575 OFFCURVE",
"479 455 CURVE SMOOTH",
"479 329 OFFCURVE",
"369 226 OFFCURVE",
"249 155 CURVE SMOOTH",
"233 146 LINE",
"458 146 LINE",
"458 0 LINE",
"39 0 LINE",
"39 141 LINE",
"179 272 OFFCURVE",
"273 394 OFFCURVE",
"273 454 CURVE SMOOTH",
"273 495 OFFCURVE",
"233 510 OFFCURVE",
"198 510 CURVE SMOOTH"
);
}
);
width = 518;
}
);
unicode = 0032;
},
{
glyphname = three;
layers = (
{
hints = (
{
horizontal = 1;
place = "{-11, 153}";
},
{
horizontal = 1;
place = "{283, 124}";
},
{
horizontal = 1;
place = "{521, 155}";
}
);
layerId = UUID0;
paths = (
{
closed = 1;
nodes = (
"181 521 OFFCURVE",
"128 512 OFFCURVE",
"63 492 CURVE",
"29 623 LINE",
"106 659 OFFCURVE",
"182 677 OFFCURVE",
"255 677 CURVE SMOOTH",
"370 677 OFFCURVE",
"460 607 OFFCURVE",
"460 523 CURVE SMOOTH",
"460 456 OFFCURVE",
"428 401 OFFCURVE",
"365 360 CURVE",
"445 327 OFFCURVE",
"490 265 OFFCURVE",
"490 179 CURVE SMOOTH",
"490 69 OFFCURVE",
"393 -11 OFFCURVE",
"244 -11 CURVE SMOOTH",
"182 -11 OFFCURVE",
"110 2 OFFCURVE",
"29 28 CURVE",
"63 175 LINE",
"116 153 OFFCURVE",
"166 143 OFFCURVE",
"212 143 CURVE SMOOTH",
"265 143 OFFCURVE",
"292 157 OFFCURVE",
"292 200 CURVE SMOOTH",
"292 275 OFFCURVE",
"195 283 OFFCURVE",
"110 283 CURVE",
"110 407 LINE",
"226 407 OFFCURVE",
"287 433 OFFCURVE",
"287 476 CURVE SMOOTH",
"287 511 OFFCURVE",
"266 521 OFFCURVE",
"223 521 CURVE SMOOTH"
);
}
);
width = 523;
}
);
unicode = 0033;
},
{
glyphname = four;
layers = (
{
hints = (
{
horizontal = 1;
place = "{163, 139}";
},
{
horizontal = 1;
place = "{0, 21}";
target = up;
type = BottomGhost;
},
{
horizontal = 1;
place = "{669, -20}";
target = down;
type = TopGhost;
}
);
layerId = UUID0;
paths = (
{
closed = 1;
nodes = (
"18 163 LINE",
"18 303 LINE",
"284 669 LINE",
"508 669 LINE",
"508 301 LINE",
"604 301 LINE",
"604 162 LINE",
"508 162 LINE",
"508 0 LINE",
"295 0 LINE",
"295 163 LINE"
);
},
{
closed = 1;
nodes = (
"165 301 LINE",
"295 301 LINE",
"295 499 LINE"
);
}
);
width = 635;
}
);
unicode = 0034;
},
{
glyphname = five;
layers = (
{
hints = (
{
horizontal = 1;
place = "{-13, 153}";
},
{
horizontal = 1;
place = "{295, 150}";
},
{
horizontal = 1;
place = "{526, 144}";
}
);
layerId = UUID0;
paths = (
{
closed = 1;
nodes = (
"378 11 OFFCURVE",
"315 -13 OFFCURVE",
"237 -13 CURVE SMOOTH",
"180 -13 OFFCURVE",
"117 1 OFFCURVE",
"47 30 CURVE",
"60 171 LINE",
"119 150 OFFCURVE",
"177 140 OFFCURVE",
"234 140 CURVE SMOOTH",
"279 140 OFFCURVE",
"311 173 OFFCURVE",
"311 221 CURVE SMOOTH",
"311 262 OFFCURVE",
"287 295 OFFCURVE",
"246 295 CURVE SMOOTH",
"220 295 OFFCURVE",
"187 282 OFFCURVE",
"147 255 CURVE",
"43 300 LINE",
"69 669 LINE",
"455 669 LINE",
"440 526 LINE",
"204 526 LINE",
"191 422 LINE",
"218 431 LINE",
"246 437 OFFCURVE",
"264 446 OFFCURVE",
"300 446 CURVE SMOOTH",
"390 446 OFFCURVE",
"452 405 OFFCURVE",
"487 322 CURVE SMOOTH",
"501 291 OFFCURVE",
"508 256 OFFCURVE",
"508 221 CURVE SMOOTH",
"508 149 OFFCURVE",
"480 91 OFFCURVE",
"425 48 CURVE SMOOTH"
);
}
);
width = 535;
}
);
unicode = 0035;
},
{
glyphname = six;
layers = (
{
hints = (
{
horizontal = 1;
place = "{-7, 144}";
},
{
horizontal = 1;
place = "{289, 131}";
},
{
horizontal = 1;
place = "{524, 155}";
}
);
layerId = UUID0;
paths = (
{
closed = 1;
nodes = (
"415 520 OFFCURVE",
"389 524 OFFCURVE",
"364 524 CURVE SMOOTH",
"278 524 OFFCURVE",
"246 453 OFFCURVE",
"236 376 CURVE SMOOTH",
"232 349 LINE",
"251 367 LINE SMOOTH",
"289 402 OFFCURVE",
"332 419 OFFCURVE",
"379 419 CURVE SMOOTH",
"513 419 OFFCURVE",
"596 343 OFFCURVE",
"596 216 CURVE SMOOTH",
"596 149 OFFCURVE",
"568 95 OFFCURVE",
"512 53 CURVE SMOOTH",
"460 13 OFFCURVE",
"400 -7 OFFCURVE",
"333 -7 CURVE SMOOTH",
"151 -7 OFFCURVE",
"34 119 OFFCURVE",
"34 316 CURVE SMOOTH",
"34 534 OFFCURVE",
"178 679 OFFCURVE",
"341 679 CURVE SMOOTH",
"426 679 OFFCURVE",
"489 656 OFFCURVE",
"565 612 CURVE",
"518 481 LINE",
"490 493 OFFCURVE",
"465 502 OFFCURVE",
"442 511 CURVE"
);
},
{
closed = 1;
nodes = (
"236 271 LINE",
"237 263 LINE SMOOTH",
"245 206 OFFCURVE",
"259 136 OFFCURVE",
"322 136 CURVE SMOOTH",
"371 136 OFFCURVE",
"411 167 OFFCURVE",
"411 216 CURVE SMOOTH",
"411 261 OFFCURVE",
"374 289 OFFCURVE",
"331 289 CURVE SMOOTH",
"295 289 OFFCURVE",
"266 284 OFFCURVE",
"243 273 CURVE SMOOTH"
);
}
);
width = 626;
}
);
unicode = 0036;
},
{
glyphname = seven;
layers = (
{
hints = (
{
horizontal = 1;
place = "{524, 146}";
},
{
horizontal = 1;
place = "{-17, 21}";
target = up;
type = BottomGhost;
}
);
layerId = UUID0;
paths = (
{
closed = 1;
nodes = (
"240 524 LINE",
"26 524 LINE",
"26 669 LINE",
"445 669 LINE",
"445 504 LINE",
"233 -17 LINE",
"48 60 LINE"
);
}
);
width = 466;
}
);
unicode = 0037;
},
{
glyphname = eight;
layers = (
{
hints = (
{
horizontal = 1;
place = "{-13, 139}";
},
{
horizontal = 1;
place = "{570, 108}";
}
);
layerId = UUID0;
paths = (
{
closed = 1;
nodes = (
"37 125 OFFCURVE",
"30 155 OFFCURVE",
"30 188 CURVE SMOOTH",
"30 277 OFFCURVE",
"88 314 OFFCURVE",
"152 340 CURVE",
"156 342 LINE",
"153 345 LINE SMOOTH",
"104 385 OFFCURVE",
"80 438 OFFCURVE",
"80 504 CURVE SMOOTH",
"80 605 OFFCURVE",
"174 678 OFFCURVE",
"313 678 CURVE SMOOTH",
"440 678 OFFCURVE",
"545 623 OFFCURVE",
"545 523 CURVE SMOOTH",
"545 453 OFFCURVE",
"512 417 OFFCURVE",
"466 392 CURVE SMOOTH",
"462 390 LINE",
"466 388 LINE SMOOTH",
"535 350 OFFCURVE",
"596 300 OFFCURVE",
"596 198 CURVE SMOOTH",
"596 50 OFFCURVE",
"468 -13 OFFCURVE",
"314 -13 CURVE SMOOTH",
"190 -13 OFFCURVE",
"95 26 OFFCURVE",
"51 101 CURVE SMOOTH"
);
},
{
closed = 1;
nodes = (
"262 280 LINE",
"261 279 LINE SMOOTH",
"241 258 OFFCURVE",
"230 233 OFFCURVE",
"230 198 CURVE SMOOTH",
"230 153 OFFCURVE",
"266 125 OFFCURVE",
"315 125 CURVE SMOOTH",
"363 125 OFFCURVE",
"400 144 OFFCURVE",
"400 178 CURVE SMOOTH",
"400 219 OFFCURVE",
"356 244 OFFCURVE",
"304 263 CURVE",
"282 272 LINE SMOOTH",
"272 276 OFFCURVE",
"266 279 OFFCURVE",
"264 280 CURVE SMOOTH"
);
},
{
closed = 1;
nodes = (
"388 545 OFFCURVE",
"361 570 OFFCURVE",
"314 570 CURVE SMOOTH",
"274 570 OFFCURVE",
"237 558 OFFCURVE",
"237 518 CURVE SMOOTH",
"237 480 OFFCURVE",
"267 459 OFFCURVE",
"355 426 CURVE SMOOTH",
"357 426 LINE",
"358 427 LINE SMOOTH",
"378 446 OFFCURVE",
"388 469 OFFCURVE",
"388 498 CURVE SMOOTH"
);
}
);
width = 627;
}
);
unicode = 0038;
},
{
glyphname = nine;
layers = (
{
hints = (
{
horizontal = 1;
place = "{-4, 151}";
},
{
horizontal = 1;
place = "{257, 115}";
},
{
horizontal = 1;
place = "{539, 139}";
}
);
layerId = UUID0;
paths = (
{
closed = 1;
nodes = (
"106 189 LINE",
"143 173 LINE SMOOTH",
"179 158 OFFCURVE",
"220 147 OFFCURVE",
"257 147 CURVE SMOOTH",
"329 147 OFFCURVE",
"372 194 OFFCURVE",
"386 288 CURVE SMOOTH",
"391 320 LINE",
"367 299 LINE SMOOTH",
"337 273 OFFCURVE",
"305 257 OFFCURVE",
"252 257 CURVE SMOOTH",
"116 257 OFFCURVE",
"30 333 OFFCURVE",
"30 458 CURVE SMOOTH",
"30 584 OFFCURVE",
"146 678 OFFCURVE",
"299 678 CURVE SMOOTH",
"492 678 OFFCURVE",
"582 508 OFFCURVE",
"582 337 CURVE SMOOTH",
"582 128 OFFCURVE",
"443 -4 OFFCURVE",
"281 -4 CURVE SMOOTH",
"201 -4 OFFCURVE",
"137 20 OFFCURVE",
"62 63 CURVE"
);
},
{
closed = 1;
nodes = (
"298 372 LINE SMOOTH",
"328 372 OFFCURVE",
"353 378 OFFCURVE",
"377 388 CURVE SMOOTH",
"386 391 LINE",
"385 400 LINE SMOOTH",
"375 494 OFFCURVE",
"348 539 OFFCURVE",
"299 539 CURVE SMOOTH",
"250 539 OFFCURVE",
"209 510 OFFCURVE",
"209 458 CURVE SMOOTH",
"209 408 OFFCURVE",
"243 372 OFFCURVE",
"290 372 CURVE"
);
}
);
width = 616;
}
);
unicode = 0039;
},
{
glyphname = onesuperior;
layers = (
{
hints = (
{
horizontal = 1;
place = "{333, 78}";
},
{
horizontal = 1;
place = "{688, -20}";
target = down;
type = TopGhost;
}
);
layerId = UUID0;
paths = (
{
closed = 1;
nodes = (
"42 653 LINE",
"79 653 OFFCURVE",
"113 665 OFFCURVE",
"144 688 CURVE",
"199 688 LINE",
"199 411 LINE",
"243 411 LINE",
"243 333 LINE",
"42 333 LINE",
"42 411 LINE",
"86 411 LINE",
"86 588 LINE",
"42 584 LINE"
);
}
);
width = 273;
}
);
unicode = 00B9;
},
{
glyphname = twosuperior;
layers = (
{
hints = (
{
horizontal = 1;
place = "{335, 83}";
},
{
horizontal = 1;
place = "{608, 95}";
}
);
layerId = UUID0;
paths = (
{
closed = 1;
nodes = (
"34 672 LINE",
"82 693 OFFCURVE",
"127 703 OFFCURVE",
"170 703 CURVE SMOOTH",
"242 703 OFFCURVE",
"288 654 OFFCURVE",
"288 582 CURVE SMOOTH",
"288 521 OFFCURVE",
"244 465 OFFCURVE",
"160 418 CURVE",
"277 418 LINE",
"277 335 LINE",
"41 335 LINE",
"41 414 LINE",
"129 496 OFFCURVE",
"171 552 OFFCURVE",
"171 581 CURVE SMOOTH",
"171 599 OFFCURVE",
"158 608 OFFCURVE",
"131 608 CURVE SMOOTH",
"116 608 OFFCURVE",
"93 601 OFFCURVE",
"63 587 CURVE"
);
}
);
width = 325;
}
);
unicode = 00B2;
},
{
glyphname = threesuperior;
layers = (
{
hints = (
{
horizontal = 1;
place = "{320, 86}";
},
{
horizontal = 1;
place = "{483, 67}";
},
{
horizontal = 1;
place = "{613, 90}";
}
);
layerId = UUID0;
paths = (
{
closed = 1;
nodes = (
"262 505 OFFCURVE",
"285 472 OFFCURVE",
"285 426 CURVE SMOOTH",
"285 357 OFFCURVE",
"227 320 OFFCURVE",
"150 320 CURVE SMOOTH",
"119 320 OFFCURVE",
"80 328 OFFCURVE",
"33 344 CURVE",
"52 424 LINE",
"87 412 OFFCURVE",
"115 406 OFFCURVE",
"136 406 CURVE SMOOTH",
"159 406 OFFCURVE",
"177 414 OFFCURVE",
"177 432 CURVE SMOOTH",
"177 466 OFFCURVE",
"144 483 OFFCURVE",
"78 483 CURVE",
"78 551 LINE",
"133 551 OFFCURVE",
"174 559 OFFCURVE",
"174 591 CURVE SMOOTH",
"174 606 OFFCURVE",
"162 613 OFFCURVE",
"145 613 CURVE SMOOTH",
"120 613 OFFCURVE",
"89 608 OFFCURVE",
"52 597 CURVE",
"33 674 LINE",
"76 693 OFFCURVE",
"117 703 OFFCURVE",
"156 703 CURVE SMOOTH",
"217 703 OFFCURVE",
"269 667 OFFCURVE",
"269 614 CURVE SMOOTH",
"269 578 OFFCURVE",
"251 548 OFFCURVE",
"217 525 CURVE"
);
}
);
width = 314;
}
);
unicode = 00B3;
},
{
glyphname = foursuperior;
layers = (
{
hints = (
{
horizontal = 1;
place = "{401, 76}";
},
{
horizontal = 1;
place = "{317, 21}";
target = up;
type = BottomGhost;
},
{
horizontal = 1;
place = "{672, -20}";
target = down;
type = TopGhost;
}
);
layerId = UUID0;
paths = (
{
closed = 1;
nodes = (
"20 478 LINE",
"167 672 LINE",
"292 672 LINE",
"292 478 LINE",
"338 478 LINE",
"338 401 LINE",
"292 401 LINE",
"292 317 LINE",
"172 317 LINE",
"172 401 LINE",
"20 401 LINE"
);
},
{
closed = 1;
nodes = (
"172 478 LINE",
"172 576 LINE",
"102 478 LINE"
);
}
);
width = 364;
}
);
unicode = 2074;
},
{
glyphname = fraction;
layers = (
{
hints = (
{
horizontal = 1;
place = "{0, 21}";
target = up;
type = BottomGhost;
},
{
horizontal = 1;
place = "{688, -20}";
target = down;
type = TopGhost;
}
);
layerId = UUID0;
paths = (
{
closed = 1;
nodes = (
"170 688 LINE",
"270 688 LINE",
"104 0 LINE",
"6 0 LINE"
);
}
);
width = 274;
}
);
unicode = 2044;
},
{
glyphname = asterisk;
layers = (
{
hints = (
{
horizontal = 1;
place = "{231, 21}";
target = up;
type = BottomGhost;
},
{
horizontal = 1;
place = "{688, -20}";
target = down;
type = TopGhost;
}
);
layerId = UUID0;
paths = (
{
closed = 1;
nodes = (
"186 432 LINE",
"32 499 LINE",
"85 605 LINE",
"220 524 LINE",
"209 688 LINE",
"331 688 LINE",
"318 525 LINE",
"449 607 LINE",
"505 499 LINE",
"349 432 LINE",
"463 312 LINE",
"362 231 LINE",
"266 376 LINE",
"172 231 LINE",
"72 313 LINE"
);
}
);
width = 535;
}
);
unicode = 002A;
},
{
glyphname = backslash;
layers = (
{
hints = (
{
horizontal = 1;
place = "{688, -20}";
target = down;
type = TopGhost;
},
{
horizontal = 1;
place = "{0, 21}";
target = up;
type = BottomGhost;
}
);
layerId = UUID0;
paths = (
{
closed = 1;
nodes = (
"292 0 LINE",
"194 0 LINE",
"28 688 LINE",
"127 688 LINE"
);
}
);
width = 320;
}
);
unicode = 005C;
},
{
glyphname = middot;
layers = (
{
hints = (
{
horizontal = 1;
place = "{300, 202}";
}
);
layerId = UUID0;
paths = (
{
closed = 1;
nodes = (
"42 458 OFFCURVE",
"96 502 OFFCURVE",
"154 502 CURVE SMOOTH",
"216 502 OFFCURVE",
"267 454 OFFCURVE",
"267 400 CURVE SMOOTH",
"267 340 OFFCURVE",
"211 300 OFFCURVE",
"154 300 CURVE SMOOTH",
"92 300 OFFCURVE",
"42 344 OFFCURVE",
"42 400 CURVE SMOOTH"
);
}
);
width = 308;
}
);
unicode = 00B7;
},
{
glyphname = bullet;
layers = (
{
hints = (
{
horizontal = 1;
place = "{56, 21}";
target = up;
type = BottomGhost;
},
{
horizontal = 1;
place = "{462, -20}";
target = down;
type = TopGhost;
}
);
layerId = UUID0;
paths = (
{
closed = 1;
nodes = (
"33 374 OFFCURVE",
"123 462 OFFCURVE",
"253 462 CURVE SMOOTH",
"381 462 OFFCURVE",
"473 378 OFFCURVE",
"473 259 CURVE SMOOTH",
"473 130 OFFCURVE",
"371 56 OFFCURVE",
"252 56 CURVE SMOOTH",
"126 56 OFFCURVE",
"33 139 OFFCURVE",
"33 259 CURVE SMOOTH"
);
}
);
width = 506;
}
);
unicode = 2022;
},
{
glyphname = colon;
layers = (
{
hints = (
{
horizontal = 1;
place = "{0, 202}";
},
{
horizontal = 1;
place = "{300, 202}";
}
);
layerId = UUID0;
paths = (
{
closed = 1;
nodes = (
"42 160 OFFCURVE",
"98 202 OFFCURVE",
"156 202 CURVE SMOOTH",
"218 202 OFFCURVE",
"267 153 OFFCURVE",
"267 101 CURVE SMOOTH",
"267 42 OFFCURVE",
"213 0 OFFCURVE",
"156 0 CURVE SMOOTH",
"93 0 OFFCURVE",
"42 44 OFFCURVE",
"42 101 CURVE SMOOTH"
);
},
{
closed = 1;
nodes = (
"42 459 OFFCURVE",
"98 502 OFFCURVE",
"156 502 CURVE SMOOTH",
"218 502 OFFCURVE",
"267 453 OFFCURVE",
"267 400 CURVE SMOOTH",
"267 342 OFFCURVE",
"213 300 OFFCURVE",
"156 300 CURVE SMOOTH",
"93 300 OFFCURVE",
"42 344 OFFCURVE",
"42 400 CURVE SMOOTH"
);
}
);
width = 310;
}
);
unicode = 003A;
},
{
glyphname = comma;
layers = (
{
hints = (
{
horizontal = 1;
place = "{-169, 117}";
},
{
horizontal = 1;
place = "{0, 187}";
}
);
layerId = UUID0;
paths = (
{
closed = 1;
nodes = (
"46 -52 LINE",
"135 -52 OFFCURVE",
"139 -53 OFFCURVE",
"139 0 CURVE",
"46 0 LINE",
"46 187 LINE",
"251 187 LINE",
"249 85 LINE SMOOTH",
"245 -130 OFFCURVE",
"229 -169 OFFCURVE",
"46 -169 CURVE"
);
}
);
width = 295;
}
);
unicode = 002C;
},
{
glyphname = ellipsis;
layers = (
{
hints = (
{
horizontal = 1;
place = "{-16, 202}";
}
);
layerId = UUID0;
paths = (
{
closed = 1;
nodes = (
"28 145 OFFCURVE",
"83 187 OFFCURVE",
"141 187 CURVE SMOOTH",
"201 187 OFFCURVE",
"253 140 OFFCURVE",
"253 86 CURVE SMOOTH",
"253 25 OFFCURVE",
"198 -16 OFFCURVE",
"141 -16 CURVE SMOOTH",
"78 -16 OFFCURVE",
"28 29 OFFCURVE",
"28 86 CURVE SMOOTH"
);
},
{
closed = 1;
nodes = (
"336 145 OFFCURVE",
"391 187 OFFCURVE",
"449 187 CURVE SMOOTH",
"510 187 OFFCURVE",
"562 140 OFFCURVE",
"562 86 CURVE SMOOTH",
"562 25 OFFCURVE",
"506 -16 OFFCURVE",
"449 -16 CURVE SMOOTH",
"386 -16 OFFCURVE",
"336 29 OFFCURVE",
"336 86 CURVE SMOOTH"
);
},
{
closed = 1;
nodes = (
"645 145 OFFCURVE",
"698 187 OFFCURVE",
"757 187 CURVE SMOOTH",
"817 187 OFFCURVE",
"869 141 OFFCURVE",
"869 86 CURVE SMOOTH",
"869 25 OFFCURVE",
"815 -16 OFFCURVE",
"757 -16 CURVE SMOOTH",
"694 -16 OFFCURVE",
"645 29 OFFCURVE",
"645 86 CURVE SMOOTH"
);
}
);
width = 897;
}
);
leftKerningGroup = period;
unicode = 2026;
},
{
glyphname = exclam;
layers = (
{
hints = (
{
horizontal = 1;
place = "{-16, 202}";
},
{
horizontal = 1;
place = "{690, -20}";
target = down;
type = TopGhost;
}
);
layerId = UUID0;
paths = (
{
closed = 1;
nodes = (
"46 535 LINE",
"46 690 LINE",
"257 690 LINE",
"257 535 LINE",
"218 252 LINE",
"86 252 LINE"
);
},
{
closed = 1;
nodes = (
"42 146 OFFCURVE",
"96 187 OFFCURVE",
"155 187 CURVE SMOOTH",
"216 187 OFFCURVE",
"268 142 OFFCURVE",
"268 86 CURVE SMOOTH",
"268 27 OFFCURVE",
"212 -16 OFFCURVE",
"155 -16 CURVE SMOOTH",
"92 -16 OFFCURVE",
"42 29 OFFCURVE",
"42 86 CURVE SMOOTH"
);
}
);
width = 305;
}
);
unicode = 0021;
},
{
glyphname = numbersign;
layers = (
{
hints = (
{
horizontal = 1;
place = "{245, 60}";
},
{
horizontal = 1;
place = "{379, 62}";
},
{
horizontal = 1;
place = "{0, 21}";
target = up;
type = BottomGhost;
},
{
horizontal = 1;
place = "{672, -20}";
target = down;
type = TopGhost;
}
);
layerId = UUID0;
paths = (
{
closed = 1;
nodes = (
"104 245 LINE",
"27 245 LINE",
"35 305 LINE",
"117 305 LINE",
"136 379 LINE",
"46 379 LINE",
"54 440 LINE",
"150 440 LINE",
"208 672 LINE",
"297 672 LINE",
"239 440 LINE",
"334 440 LINE",
"391 672 LINE",
"479 672 LINE",
"423 440 LINE",
"494 440 LINE",
"486 379 LINE",
"406 379 LINE",
"389 305 LINE",
"476 305 LINE",
"468 245 LINE",
"373 245 LINE",
"313 0 LINE",
"227 0 LINE",
"286 245 LINE",
"190 245 LINE",
"131 0 LINE",
"44 0 LINE"
);
},
{
closed = 1;
nodes = (
"301 305 LINE",
"318 379 LINE",
"224 379 LINE",
"205 305 LINE"
);
}
);
width = 521;
}
);
unicode = 0023;
},
{
glyphname = period;
layers = (
{
hints = (
{
horizontal = 1;
place = "{-16, 202}";
}
);
layerId = UUID0;
paths = (
{
closed = 1;
nodes = (
"28 145 OFFCURVE",
"83 187 OFFCURVE",
"141 187 CURVE SMOOTH",
"201 187 OFFCURVE",
"253 140 OFFCURVE",
"253 86 CURVE SMOOTH",
"253 25 OFFCURVE",
"198 -16 OFFCURVE",
"141 -16 CURVE SMOOTH",
"78 -16 OFFCURVE",
"28 29 OFFCURVE",
"28 86 CURVE SMOOTH"
);
}
);
width = 280;
}
);
leftKerningGroup = period;
unicode = 002E;
},
{
glyphname = question;
layers = (
{
hints = (
{
horizontal = 1;
place = "{-16, 202}";
},
{
horizontal = 1;
place = "{533, 170}";
}
);
layerId = UUID0;
paths = (
{
closed = 1;
nodes = (
"261 522 OFFCURVE",
"234 533 OFFCURVE",
"182 533 CURVE SMOOTH",
"130 533 OFFCURVE",
"87 524 OFFCURVE",
"52 507 CURVE",
"38 659 LINE",
"109 688 OFFCURVE",
"176 703 OFFCURVE",
"239 703 CURVE SMOOTH",
"376 703 OFFCURVE",
"481 632 OFFCURVE",
"481 517 CURVE SMOOTH",
"481 435 OFFCURVE",
"432 395 OFFCURVE",
"370 364 CURVE",
"338 349 OFFCURVE",
"284 327 OFFCURVE",
"268 309 CURVE SMOOTH",
"256 297 OFFCURVE",
"257 284 OFFCURVE",
"257 267 CURVE SMOOTH",
"257 254 LINE",
"117 254 LINE",
"105 292 LINE",
"103 302 OFFCURVE",
"100 318 OFFCURVE",
"100 332 CURVE SMOOTH",
"100 381 OFFCURVE",
"122 408 OFFCURVE",
"153 429 CURVE SMOOTH",
"191 455 OFFCURVE",
"261 477 OFFCURVE",
"261 501 CURVE SMOOTH"
);
},
{
closed = 1;
nodes = (
"72 144 OFFCURVE",
"128 187 OFFCURVE",
"186 187 CURVE SMOOTH",
"246 187 OFFCURVE",
"298 140 OFFCURVE",
"298 86 CURVE SMOOTH",
"298 25 OFFCURVE",
"243 -16 OFFCURVE",
"186 -16 CURVE SMOOTH",
"123 -16 OFFCURVE",
"72 29 OFFCURVE",
"72 86 CURVE SMOOTH"
);
}
);
width = 505;
}
);
unicode = 003F;
},
{
glyphname = questiondown;
layers = (
{
hints = (
{
horizontal = 1;
place = "{-16, 170}";
},
{
horizontal = 1;
place = "{501, 202}";
}
);
layerId = UUID0;
paths = (
{
closed = 1;
nodes = (
"245 165 OFFCURVE",
"271 154 OFFCURVE",
"324 154 CURVE SMOOTH",
"375 154 OFFCURVE",
"418 163 OFFCURVE",
"454 181 CURVE",
"467 28 LINE",
"396 -1 OFFCURVE",
"329 -16 OFFCURVE",
"266 -16 CURVE SMOOTH",
"131 -16 OFFCURVE",
"24 54 OFFCURVE",
"24 171 CURVE SMOOTH",
"24 252 OFFCURVE",
"75 295 OFFCURVE",
"128 321 CURVE SMOOTH",
"236 373 OFFCURVE",
"249 369 OFFCURVE",
"249 421 CURVE SMOOTH",
"249 434 LINE",
"388 434 LINE",
"399 396 LINE SMOOTH",
"403 385 OFFCURVE",
"406 370 OFFCURVE",
"406 355 CURVE SMOOTH",
"404 307 OFFCURVE",
"384 279 OFFCURVE",
"353 258 CURVE SMOOTH",
"315 233 OFFCURVE",
"245 210 OFFCURVE",
"245 187 CURVE SMOOTH"
);
},
{
closed = 1;
nodes = (
"433 542 OFFCURVE",
"376 501 OFFCURVE",
"320 501 CURVE SMOOTH",
"259 501 OFFCURVE",
"208 547 OFFCURVE",
"208 602 CURVE SMOOTH",
"208 661 OFFCURVE",
"261 703 OFFCURVE",
"320 703 CURVE SMOOTH",
"382 703 OFFCURVE",
"433 657 OFFCURVE",
"433 602 CURVE SMOOTH"
);
}
);
width = 506;
}
);
unicode = 00BF;
},
{
glyphname = quotedbl;
layers = (
{
hints = (
{
horizontal = 1;
place = "{501, 248}";
}
);
layerId = UUID0;
paths = (
{
closed = 1;
nodes = (
"218 749 LINE",
"362 749 LINE",
"334 501 LINE",
"238 501 LINE"
);
},
{
closed = 1;
nodes = (
"29 749 LINE",
"173 749 LINE",
"145 501 LINE",
"49 501 LINE"
);
}
);
width = 387;
}
);
leftKerningGroup = quotedbl;
rightKerningGroup = quotedbl;
unicode = 0022;
},
{
glyphname = quotesingle;
layers = (
{
hints = (
{
horizontal = 1;
place = "{501, 248}";
}
);
layerId = UUID0;
paths = (
{
closed = 1;
nodes = (
"29 749 LINE",
"174 749 LINE",
"146 501 LINE",
"50 501 LINE"
);
}
);
width = 198;
}
);
leftKerningGroup = quotedbl;
rightKerningGroup = quotedbl;
unicode = 0027;
},
{
glyphname = semicolon;
layers = (
{
hints = (
{
horizontal = 1;
place = "{-169, 117}";
},
{
horizontal = 1;
place = "{0, 187}";
},
{
horizontal = 1;
place = "{300, 202}";
}
);
layerId = UUID0;
paths = (
{
closed = 1;
nodes = (
"51 -52 LINE",
"139 -52 OFFCURVE",
"145 -53 OFFCURVE",
"145 0 CURVE",
"51 0 LINE",
"51 187 LINE",
"256 187 LINE",
"254 125 LINE",
"250 -132 OFFCURVE",
"243 -169 OFFCURVE",
"51 -169 CURVE"
);
},
{
closed = 1;
nodes = (
"38 460 OFFCURVE",
"95 502 OFFCURVE",
"151 502 CURVE SMOOTH",
"212 502 OFFCURVE",
"263 454 OFFCURVE",
"263 400 CURVE SMOOTH",
"263 342 OFFCURVE",
"209 300 OFFCURVE",
"151 300 CURVE SMOOTH",
"88 300 OFFCURVE",
"38 344 OFFCURVE",
"38 400 CURVE SMOOTH"
);
}
);
width = 299;
}
);
unicode = 003B;
},
{
glyphname = slash;
layers = (
{
hints = (
{
horizontal = 1;
place = "{0, 21}";
target = up;
type = BottomGhost;
},
{
horizontal = 1;
place = "{688, -20}";
target = down;
type = TopGhost;
}
);
layerId = UUID0;
paths = (
{
closed = 1;
nodes = (
"193 688 LINE",
"293 688 LINE",
"127 0 LINE",
"29 0 LINE"
);
}
);
width = 321;
}
);
unicode = 002F;
},
{
glyphname = underscore;
layers = (
{
hints = (
{
horizontal = 1;
place = "{-16, 85}";
}
);
layerId = UUID0;
paths = (
{
closed = 1;
nodes = (
"40 69 LINE",
"372 69 LINE",
"372 -16 LINE",
"40 -16 LINE"
);
}
);
width = 412;
}
);
unicode = 005F;
},
{
glyphname = braceleft;
layers = (
{
hints = (
{
horizontal = 1;
place = "{-36, 21}";
target = up;
type = BottomGhost;
},
{
horizontal = 1;
place = "{712, -20}";
target = down;
type = TopGhost;
}
);
layerId = UUID0;
paths = (
{
closed = 1;
nodes = (
"67 275 OFFCURVE",
"43 295 OFFCURVE",
"6 299 CURVE",
"6 377 LINE",
"43 381 OFFCURVE",
"67 399 OFFCURVE",
"67 437 CURVE SMOOTH",
"67 599 OFFCURVE",
"167 699 OFFCURVE",
"322 712 CURVE",
"322 625 LINE",
"278 609 OFFCURVE",
"261 541 OFFCURVE",
"261 437 CURVE SMOOTH",
"261 391 OFFCURVE",
"231 362 OFFCURVE",
"185 338 CURVE",
"232 313 OFFCURVE",
"261 285 OFFCURVE",
"261 238 CURVE SMOOTH",
"261 130 OFFCURVE",
"281 66 OFFCURVE",
"322 51 CURVE",
"322 -36 LINE",
"164 -24 OFFCURVE",
"67 81 OFFCURVE",
"67 238 CURVE SMOOTH"
);
}
);
width = 355;
}
);
unicode = 007B;
},
{
glyphname = braceright;
layers = (
{
hints = (
{
horizontal = 1;
place = "{712, -20}";
target = down;
type = TopGhost;
},
{
horizontal = 1;
place = "{-36, 21}";
target = up;
type = BottomGhost;
}
);
layerId = UUID0;
paths = (
{
closed = 1;
nodes = (
"350 299 LINE",
"313 295 OFFCURVE",
"288 275 OFFCURVE",
"288 238 CURVE SMOOTH",
"288 76 OFFCURVE",
"189 -23 OFFCURVE",
"33 -36 CURVE",
"33 51 LINE",
"77 67 OFFCURVE",
"95 134 OFFCURVE",
"95 238 CURVE SMOOTH",
"95 285 OFFCURVE",
"124 313 OFFCURVE",
"171 338 CURVE",
"124 362 OFFCURVE",
"95 391 OFFCURVE",
"95 437 CURVE SMOOTH",
"95 546 OFFCURVE",
"74 609 OFFCURVE",
"33 625 CURVE",
"33 712 LINE",
"193 699 OFFCURVE",
"288 595 OFFCURVE",
"288 437 CURVE SMOOTH",
"288 399 OFFCURVE",
"313 381 OFFCURVE",
"350 377 CURVE"
);
}
);
width = 355;
}
);
unicode = 007D;
},
{
glyphname = bracketleft;
layers = (
{
hints = (
{
horizontal = 1;
place = "{0, 147}";
},
{
horizontal = 1;
place = "{539, 148}";
}
);
layerId = UUID0;
paths = (
{
closed = 1;
nodes = (
"58 688 LINE",
"413 688 LINE",
"413 539 LINE",
"273 539 LINE",
"273 147 LINE",
"413 147 LINE",
"413 0 LINE",
"58 0 LINE"
);
}
);
width = 447;
}
);
unicode = 005B;
},
{
glyphname = bracketright;
layers = (
{
hints = (
{
horizontal = 1;
place = "{0, 147}";
},
{
horizontal = 1;
place = "{539, 148}";
}
);
layerId = UUID0;
paths = (
{
closed = 1;
nodes = (
"34 147 LINE",
"174 147 LINE",
"174 539 LINE",
"34 539 LINE",
"34 688 LINE",
"389 688 LINE",
"389 0 LINE",
"34 0 LINE"
);
}
);
width = 447;
}
);
unicode = 005D;
},
{
glyphname = parenleft;
layers = (
{
hints = (
{
horizontal = 1;
place = "{772, -20}";
target = down;
type = TopGhost;
},
{
horizontal = 1;
place = "{-129, 21}";
target = up;
type = BottomGhost;
}
);
layerId = UUID0;
paths = (
{
closed = 1;
nodes = (
"395 -129 LINE",
"152 -107 OFFCURVE",
"20 76 OFFCURVE",
"20 326 CURVE SMOOTH",
"20 590 OFFCURVE",
"165 749 OFFCURVE",
"395 772 CURVE",
"395 646 LINE",
"302 630 OFFCURVE",
"243 521 OFFCURVE",
"243 326 CURVE SMOOTH",
"243 150 OFFCURVE",
"285 18 OFFCURVE",
"395 -2 CURVE"
);
}
);
width = 417;
}
);
unicode = 0028;
},
{
glyphname = parenright;
layers = (
{
hints = (
{
horizontal = 1;
place = "{-129, 21}";
target = up;
type = BottomGhost;
},
{
horizontal = 1;
place = "{772, -20}";
target = down;
type = TopGhost;
}
);
layerId = UUID0;
paths = (
{
closed = 1;
nodes = (
"22 -2 LINE",
"116 14 OFFCURVE",
"175 125 OFFCURVE",
"175 326 CURVE SMOOTH",
"175 511 OFFCURVE",
"121 630 OFFCURVE",
"22 646 CURVE",
"22 772 LINE",
"271 747 OFFCURVE",
"397 568 OFFCURVE",
"397 326 CURVE SMOOTH",
"397 68 OFFCURVE",
"259 -107 OFFCURVE",
"22 -129 CURVE"
);
}
);
width = 417;
}
);
unicode = 0029;
},
{
glyphname = emdash;
layers = (
{
hints = (
{
horizontal = 1;
place = "{147, 85}";
}
);
layerId = UUID0;
paths = (
{
closed = 1;
nodes = (
"47 232 LINE",
"560 232 LINE",
"560 147 LINE",
"47 147 LINE"
);
}
);
width = 607;
}
);
leftKerningGroup = hyphen;
rightKerningGroup = hyphen;
unicode = 2014;
},
{
glyphname = endash;
layers = (
{
hints = (
{
horizontal = 1;
place = "{147, 85}";
}
);
layerId = UUID0;
paths = (
{
closed = 1;
nodes = (
"47 232 LINE",
"428 232 LINE",
"428 147 LINE",
"47 147 LINE"
);
}
);
width = 475;
}
);
leftKerningGroup = hyphen;
rightKerningGroup = hyphen;
unicode = 2013;
},
{
glyphname = hyphen;
layers = (
{
hints = (
{
horizontal = 1;
place = "{199, 118}";
}
);
layerId = UUID0;
paths = (
{
closed = 1;
nodes = (
"46 317 LINE",
"315 317 LINE",
"315 199 LINE",
"46 199 LINE"
);
}
);
width = 361;
}
);
leftKerningGroup = hyphen;
rightKerningGroup = hyphen;
unicode = 002D;
},
{
glyphname = guillemotleft;
layers = (
{
hints = (
{
horizontal = 1;
place = "{63, 21}";
target = up;
type = BottomGhost;
},
{
horizontal = 1;
place = "{545, -20}";
target = down;
type = TopGhost;
}
);
layerId = UUID0;
paths = (
{
closed = 1;
nodes = (
"286 396 LINE",
"496 545 LINE",
"496 363 LINE",
"399 306 LINE",
"496 245 LINE",
"496 63 LINE",
"286 216 LINE"
);
},
{
closed = 1;
nodes = (
"26 396 LINE",
"236 545 LINE",
"236 363 LINE",
"140 306 LINE",
"236 245 LINE",
"236 63 LINE",
"26 216 LINE"
);
}
);
width = 542;
}
);
leftKerningGroup = guillemotleft;
rightKerningGroup = guillemotleft;
unicode = 00AB;
},
{
glyphname = guillemotright;
layers = (
{
hints = (
{
horizontal = 1;
place = "{63, 21}";
target = up;
type = BottomGhost;
},
{
horizontal = 1;
place = "{545, -20}";
target = down;
type = TopGhost;
}
);
layerId = UUID0;
paths = (
{
closed = 1;
nodes = (
"305 245 LINE",
"400 306 LINE",
"305 363 LINE",
"305 545 LINE",
"515 396 LINE",
"515 216 LINE",
"305 63 LINE"
);
},
{
closed = 1;
nodes = (
"46 245 LINE",
"142 306 LINE",
"46 363 LINE",
"46 545 LINE",
"256 396 LINE",
"256 216 LINE",
"46 63 LINE"
);
}
);
width = 541;
}
);
leftKerningGroup = guillemotright;
rightKerningGroup = guillemotright;
unicode = 00BB;
},
{
glyphname = guilsinglleft;
layers = (
{
hints = (
{
horizontal = 1;
place = "{63, 21}";
target = up;
type = BottomGhost;
},
{
horizontal = 1;
place = "{545, -20}";
target = down;
type = TopGhost;
}
);
layerId = UUID0;
paths = (
{
closed = 1;
nodes = (
"26 396 LINE",
"236 545 LINE",
"236 363 LINE",
"139 306 LINE",
"236 245 LINE",
"236 63 LINE",
"26 216 LINE"
);
}
);
width = 282;
}
);
leftKerningGroup = guillemotleft;
rightKerningGroup = guillemotleft;
unicode = 2039;
},
{
glyphname = guilsinglright;
layers = (
{
hints = (
{
horizontal = 1;
place = "{63, 21}";
target = up;
type = BottomGhost;
},
{
horizontal = 1;
place = "{545, -20}";
target = down;
type = TopGhost;
}
);
layerId = UUID0;
paths = (
{
closed = 1;
nodes = (
"46 245 LINE",
"142 306 LINE",
"46 363 LINE",
"46 545 LINE",
"256 396 LINE",
"256 216 LINE",
"46 63 LINE"
);
}
);
width = 282;
}
);
leftKerningGroup = guillemotright;
rightKerningGroup = guillemotright;
unicode = 203A;
},
{
glyphname = quotedblbase;
layers = (
{
hints = (
{
horizontal = 1;
place = "{-102, 248}";
}
);
layerId = UUID0;
paths = (
{
closed = 1;
nodes = (
"228 146 LINE",
"372 146 LINE",
"344 -102 LINE",
"248 -102 LINE"
);
},
{
closed = 1;
nodes = (
"39 146 LINE",
"183 146 LINE",
"154 -102 LINE",
"59 -102 LINE"
);
}
);
width = 409;
}
);
leftKerningGroup = quotesinglbase;
rightKerningGroup = quotesinglbase;
unicode = 201E;
},
{
glyphname = quotedblleft;
layers = (
{
hints = (
{
horizontal = 1;
place = "{347, 188}";
},
{
horizontal = 1;
place = "{586, 117}";
}
);
layerId = UUID0;
paths = (
{
closed = 1;
nodes = (
"246 586 LINE",
"212 586 LINE SMOOTH",
"161 586 OFFCURVE",
"153 582 OFFCURVE",
"153 534 CURVE",
"246 534 LINE",
"246 347 LINE",
"41 347 LINE",
"42 359 OFFCURVE",
"42 379 OFFCURVE",
"42 409 CURVE SMOOTH",
"43 473 LINE",
"49 665 OFFCURVE",
"66 703 OFFCURVE",
"246 703 CURVE"
);
},
{
closed = 1;
nodes = (
"521 586 LINE",
"487 586 LINE SMOOTH",
"436 586 OFFCURVE",
"427 582 OFFCURVE",
"427 534 CURVE",
"521 534 LINE",
"521 347 LINE",
"315 347 LINE",
"316 359 OFFCURVE",
"316 379 OFFCURVE",
"316 409 CURVE SMOOTH",
"318 473 LINE SMOOTH",
"322 676 OFFCURVE",
"351 703 OFFCURVE",
"521 703 CURVE"
);
}
);
width = 567;
}
);
leftKerningGroup = quoteleft;
rightKerningGroup = quoteleft;
unicode = 201C;
},
{
glyphname = quotedblright;
layers = (
{
hints = (
{
horizontal = 1;
place = "{331, 117}";
},
{
horizontal = 1;
place = "{500, 188}";
}
);
layerId = UUID0;
paths = (
{
closed = 1;
nodes = (
"49 448 LINE",
"137 448 OFFCURVE",
"143 447 OFFCURVE",
"143 500 CURVE",
"49 500 LINE",
"49 688 LINE",
"254 688 LINE",
"252 625 LINE",
"249 377 OFFCURVE",
"246 331 OFFCURVE",
"49 331 CURVE"
);
},
{
closed = 1;
nodes = (
"323 448 LINE",
"413 448 OFFCURVE",
"416 447 OFFCURVE",
"416 500 CURVE",
"323 500 LINE",
"323 688 LINE",
"528 688 LINE",
"527 625 LINE",
"523 376 OFFCURVE",
"521 331 OFFCURVE",
"323 331 CURVE"
);
}
);
width = 563;
}
);
leftKerningGroup = quoteright;
rightKerningGroup = quoteright;
unicode = 201D;
},
{
glyphname = quoteleft;
layers = (
{
hints = (
{
horizontal = 1;
place = "{347, 188}";
},
{
horizontal = 1;
place = "{586, 117}";
}
);
layerId = UUID0;
paths = (
{
closed = 1;
nodes = (
"246 586 LINE",
"212 586 LINE SMOOTH",
"161 586 OFFCURVE",
"153 582 OFFCURVE",
"153 534 CURVE",
"246 534 LINE",
"246 347 LINE",
"41 347 LINE",
"42 359 OFFCURVE",
"42 379 OFFCURVE",
"42 409 CURVE SMOOTH",
"43 473 LINE",
"49 665 OFFCURVE",
"66 703 OFFCURVE",
"246 703 CURVE"
);
}
);
width = 293;
}
);
leftKerningGroup = quoteleft;
rightKerningGroup = quoteleft;
unicode = 2018;
},
{
glyphname = quoteright;
layers = (
{
hints = (
{
horizontal = 1;
place = "{331, 117}";
},
{
horizontal = 1;
place = "{500, 188}";
}
);
layerId = UUID0;
paths = (
{
closed = 1;
nodes = (
"49 448 LINE",
"137 448 OFFCURVE",
"143 447 OFFCURVE",
"143 500 CURVE",
"49 500 LINE",
"49 688 LINE",
"254 688 LINE",
"252 625 LINE",
"249 377 OFFCURVE",
"246 331 OFFCURVE",
"49 331 CURVE"
);
}
);
width = 288;
}
);
leftKerningGroup = quoteright;
rightKerningGroup = quoteright;
unicode = 2019;
},
{
glyphname = quotesinglbase;
layers = (
{
hints = (
{
horizontal = 1;
place = "{-125, 248}";
}
);
layerId = UUID0;
paths = (
{
closed = 1;
nodes = (
"40 124 LINE",
"185 124 LINE",
"156 -125 LINE",
"61 -125 LINE"
);
}
);
width = 224;
}
);
leftKerningGroup = quotesinglbase;
rightKerningGroup = quotesinglbase;
unicode = 201A;
},
{
glyphname = .notdef;
layers = (
{
hints = (
{
horizontal = 1;
place = "{0, 33}";
},
{
horizontal = 1;
place = "{633, 33}";
}
);
layerId = UUID0;
paths = (
{
closed = 1;
nodes = (
"33 0 LINE",
"33 667 LINE",
"299 667 LINE",
"299 0 LINE"
);
},
{
closed = 1;
nodes = (
"66 33 LINE",
"266 33 LINE",
"266 633 LINE",
"66 633 LINE"
);
}
);
width = 365;
}
);
},
{
glyphname = Euro;
layers = (
{
hints = (
{
horizontal = 1;
place = "{-16, 181}";
},
{
horizontal = 1;
place = "{240, 60}";
},
{
horizontal = 1;
place = "{374, 62}";
},
{
horizontal = 1;
place = "{510, 181}";
}
);
layerId = UUID0;
paths = (
{
closed = 1;
nodes = (
"523 165 OFFCURVE",
"552 174 OFFCURVE",
"602 193 CURVE",
"627 36 LINE",
"567 1 OFFCURVE",
"504 -16 OFFCURVE",
"439 -16 CURVE SMOOTH",
"268 -16 OFFCURVE",
"134 91 OFFCURVE",
"94 240 CURVE",
"26 240 LINE",
"26 300 LINE",
"83 300 LINE",
"82 313 OFFCURVE",
"81 326 OFFCURVE",
"81 339 CURVE SMOOTH",
"81 351 OFFCURVE",
"82 362 OFFCURVE",
"83 374 CURVE",
"26 374 LINE",
"26 436 LINE",
"93 436 LINE",
"132 585 OFFCURVE",
"270 690 OFFCURVE",
"434 690 CURVE SMOOTH",
"501 690 OFFCURVE",
"566 673 OFFCURVE",
"628 638 CURVE",
"602 482 LINE",
"552 500 OFFCURVE",
"509 510 OFFCURVE",
"472 510 CURVE SMOOTH",
"402 510 OFFCURVE",
"354 485 OFFCURVE",
"327 436 CURVE",
"472 436 LINE",
"472 374 LINE",
"308 374 LINE",
"306 363 OFFCURVE",
"306 352 OFFCURVE",
"306 340 CURVE SMOOTH",
"306 325 OFFCURVE",
"307 312 OFFCURVE",
"309 300 CURVE",
"472 300 LINE",
"472 240 LINE",
"330 240 LINE",
"358 190 OFFCURVE",
"408 165 OFFCURVE",
"478 165 CURVE SMOOTH"
);
}
);
width = 664;
}
);
unicode = 20AC;
},
{
glyphname = cent;
layers = (
{
hints = (
{
horizontal = 1;
place = "{581, -20}";
target = down;
type = TopGhost;
},
{
horizontal = 1;
place = "{-16, 21}";
target = up;
type = BottomGhost;
},
{
horizontal = 1;
place = "{-91, 21}";
target = up;
type = BottomGhost;
}
);
layerId = UUID0;
paths = (
{
closed = 1;
nodes = (
"448 24 LINE",
"428 15 OFFCURVE",
"403 5 OFFCURVE",
"370 -6 CURVE",
"370 -91 LINE",
"305 -91 LINE",
"305 -16 LINE",
"296 -16 LINE SMOOTH",
"140 -16 OFFCURVE",
"25 95 OFFCURVE",
"25 250 CURVE SMOOTH",
"25 404 OFFCURVE",
"143 516 OFFCURVE",
"296 516 CURVE SMOOTH",
"305 516 LINE",
"305 581 LINE",
"370 581 LINE",
"370 505 LINE",
"400 495 OFFCURVE",
"426 482 OFFCURVE",
"450 468 CURVE",
"430 335 LINE",
"407 342 OFFCURVE",
"387 346 OFFCURVE",
"370 349 CURVE",
"370 150 LINE",
"390 152 OFFCURVE",
"409 157 OFFCURVE",
"428 164 CURVE"
);
},
{
closed = 1;
nodes = (
"305 349 LINE",
"262 338 OFFCURVE",
"233 301 OFFCURVE",
"233 250 CURVE SMOOTH",
"233 199 OFFCURVE",
"264 160 OFFCURVE",
"305 151 CURVE"
);
}
);
width = 492;
}
);
unicode = 00A2;
},
{
glyphname = currency;
layers = (
{
hints = (
{
horizontal = 1;
place = "{116, 114}";
},
{
horizontal = 1;
place = "{399, 117}";
},
{
horizontal = 1;
place = "{69, 21}";
target = up;
type = BottomGhost;
},
{
horizontal = 1;
place = "{556, -20}";
target = down;
type = TopGhost;
}
);
layerId = UUID0;
paths = (
{
closed = 1;
nodes = (
"107 185 LINE",
"75 221 OFFCURVE",
"59 265 OFFCURVE",
"59 314 CURVE SMOOTH",
"59 364 OFFCURVE",
"75 407 OFFCURVE",
"105 442 CURVE",
"36 511 LINE",
"81 556 LINE",
"154 483 LINE",
"190 505 OFFCURVE",
"231 516 OFFCURVE",
"277 516 CURVE SMOOTH",
"323 516 OFFCURVE",
"365 504 OFFCURVE",
"403 481 CURVE",
"478 556 LINE",
"523 511 LINE",
"452 440 LINE",
"483 406 OFFCURVE",
"498 364 OFFCURVE",
"498 314 CURVE SMOOTH",
"498 265 OFFCURVE",
"482 222 OFFCURVE",
"450 187 CURVE",
"523 114 LINE",
"479 69 LINE",
"400 147 LINE",
"363 126 OFFCURVE",
"322 116 OFFCURVE",
"276 116 CURVE SMOOTH",
"231 116 OFFCURVE",
"192 125 OFFCURVE",
"157 146 CURVE",
"81 69 LINE",
"36 114 LINE"
);
},
{
closed = 1;
nodes = (
"233 238 OFFCURVE",
"253 230 OFFCURVE",
"278 230 CURVE SMOOTH",
"327 230 OFFCURVE",
"360 266 OFFCURVE",
"360 314 CURVE SMOOTH",
"360 363 OFFCURVE",
"328 399 OFFCURVE",
"278 399 CURVE SMOOTH",
"229 399 OFFCURVE",
"195 365 OFFCURVE",
"195 314 CURVE SMOOTH",
"195 289 OFFCURVE",
"203 268 OFFCURVE",
"218 253 CURVE SMOOTH"
);
}
);
width = 559;
}
);
unicode = 00A4;
},
{
glyphname = dollar;
layers = (
{
hints = (
{
horizontal = 1;
place = "{-91, 21}";
target = up;
type = BottomGhost;
},
{
horizontal = 1;
place = "{770, -20}";
target = down;
type = TopGhost;
}
);
layerId = UUID0;
paths = (
{
closed = 1;
nodes = (
"31 604 OFFCURVE",
"107 670 OFFCURVE",
"229 686 CURVE",
"229 770 LINE",
"330 770 LINE",
"330 688 LINE",
"390 683 OFFCURVE",
"447 664 OFFCURVE",
"502 630 CURVE",
"451 516 LINE",
"396 533 LINE SMOOTH",
"374 541 OFFCURVE",
"352 545 OFFCURVE",
"330 549 CURVE",
"330 408 LINE",
"463 362 OFFCURVE",
"541 300 OFFCURVE",
"541 183 CURVE SMOOTH",
"541 90 OFFCURVE",
"457 -2 OFFCURVE",
"330 -10 CURVE",
"330 -91 LINE",
"229 -91 LINE",
"229 -15 LINE",
"152 -7 OFFCURVE",
"89 12 OFFCURVE",
"41 43 CURVE",
"91 163 LINE",
"148 144 OFFCURVE",
"194 133 OFFCURVE",
"229 132 CURVE",
"229 264 LINE",
"118 291 OFFCURVE",
"34 342 OFFCURVE",
"31 477 CURVE"
);
},
{
closed = 1;
nodes = (
"229 538 LINE",
"205 526 OFFCURVE",
"190 513 OFFCURVE",
"190 487 CURVE SMOOTH",
"190 460 OFFCURVE",
"202 448 OFFCURVE",
"229 437 CURVE"
);
},
{
closed = 1;
nodes = (
"330 142 LINE",
"357 152 OFFCURVE",
"375 161 OFFCURVE",
"375 188 CURVE SMOOTH",
"375 208 OFFCURVE",
"354 225 OFFCURVE",
"330 231 CURVE"
);
}
);
width = 566;
}
);
unicode = 0024;
},
{
glyphname = florin;
layers = (
{
hints = (
{
horizontal = 1;
place = "{377, 124}";
},
{
horizontal = 1;
place = "{608, 159}";
},
{
horizontal = 1;
place = "{0, 21}";
target = up;
type = BottomGhost;
}
);
layerId = UUID0;
paths = (
{
closed = 1;
nodes = (
"318 608 OFFCURVE",
"299 588 OFFCURVE",
"299 548 CURVE SMOOTH",
"299 501 LINE",
"425 501 LINE",
"425 377 LINE",
"299 377 LINE",
"299 0 LINE",
"87 0 LINE",
"87 377 LINE",
"26 377 LINE",
"26 501 LINE",
"87 501 LINE",
"87 555 LINE SMOOTH",
"87 689 OFFCURVE",
"147 768 OFFCURVE",
"271 768 CURVE SMOOTH",
"319 768 OFFCURVE",
"374 755 OFFCURVE",
"434 729 CURVE",
"427 594 LINE",
"398 604 OFFCURVE",
"374 608 OFFCURVE",
"356 608 CURVE SMOOTH"
);
}
);
width = 435;
}
);
unicode = 0192;
},
{
glyphname = sterling;
layers = (
{
hints = (
{
horizontal = 1;
place = "{0, 146}";
},
{
horizontal = 1;
place = "{301, 85}";
},
{
horizontal = 1;
place = "{553, 150}";
}
);
layerId = UUID0;
paths = (
{
closed = 1;
nodes = (
"337 553 OFFCURVE",
"314 533 OFFCURVE",
"314 496 CURVE SMOOTH",
"314 386 LINE",
"439 386 LINE",
"439 301 LINE",
"314 301 LINE",
"314 146 LINE",
"482 146 LINE",
"482 0 LINE",
"36 0 LINE",
"36 63 LINE",
"77 65 OFFCURVE",
"100 97 OFFCURVE",
"100 146 CURVE SMOOTH",
"100 301 LINE",
"36 301 LINE",
"36 386 LINE",
"100 386 LINE",
"100 437 LINE SMOOTH",
"100 606 OFFCURVE",
"149 703 OFFCURVE",
"317 703 CURVE SMOOTH",
"372 703 OFFCURVE",
"429 690 OFFCURVE",
"490 665 CURVE",
"473 529 LINE",
"435 545 OFFCURVE",
"403 553 OFFCURVE",
"376 553 CURVE SMOOTH"
);
}
);
width = 524;
}
);
unicode = 00A3;
},
{
glyphname = yen;
layers = (
{
hints = (
{
horizontal = 1;
place = "{189, 63}";
},
{
horizontal = 1;
place = "{86, 60}";
},
{
horizontal = 1;
place = "{0, 21}";
target = up;
type = BottomGhost;
},
{
horizontal = 1;
place = "{672, -20}";
target = down;
type = TopGhost;
}
);
layerId = UUID0;
paths = (
{
closed = 1;
nodes = (
"77 146 LINE",
"228 146 LINE",
"228 189 LINE",
"77 189 LINE",
"77 252 LINE",
"202 252 LINE",
"23 672 LINE",
"154 672 LINE",
"286 309 LINE",
"416 672 LINE",
"547 672 LINE",
"369 252 LINE",
"502 252 LINE",
"502 189 LINE",
"343 189 LINE",
"343 146 LINE",
"502 146 LINE",
"502 86 LINE",
"343 86 LINE",
"343 0 LINE",
"228 0 LINE",
"228 86 LINE",
"77 86 LINE"
);
}
);
width = 572;
}
);
unicode = 00A5;
},
{
glyphname = plus;
layers = (
{
hints = (
{
horizontal = 1;
place = "{224, 56}";
},
{
horizontal = 1;
place = "{0, 21}";
target = up;
type = BottomGhost;
},
{
horizontal = 1;
place = "{501, -20}";
target = down;
type = TopGhost;
}
);
layerId = UUID0;
paths = (
{
closed = 1;
nodes = (
"238 224 LINE",
"23 224 LINE",
"23 279 LINE",
"238 279 LINE",
"238 501 LINE",
"297 501 LINE",
"297 279 LINE",
"510 279 LINE",
"510 224 LINE",
"297 224 LINE",
"297 0 LINE",
"238 0 LINE"
);
}
);
width = 533;
}
);
unicode = 002B;
},
{
glyphname = minus;
layers = (
{
hints = (
{
horizontal = 1;
place = "{0, 56}";
}
);
layerId = UUID0;
paths = (
{
closed = 1;
nodes = (
"50 56 LINE",
"453 56 LINE",
"453 0 LINE",
"50 0 LINE"
);
}
);
width = 503;
}
);
unicode = 2212;
},
{
glyphname = multiply;
layers = (
{
hints = (
{
horizontal = 1;
place = "{60, 21}";
target = up;
type = BottomGhost;
},
{
horizontal = 1;
place = "{449, -20}";
target = down;
type = TopGhost;
}
);
layerId = UUID0;
paths = (
{
closed = 1;
nodes = (
"188 251 LINE",
"32 408 LINE",
"73 449 LINE",
"230 293 LINE",
"387 449 LINE",
"428 408 LINE",
"272 251 LINE",
"424 99 LINE",
"384 60 LINE",
"230 212 LINE",
"76 60 LINE",
"36 99 LINE"
);
}
);
width = 459;
}
);
unicode = 00D7;
},
{
glyphname = divide;
layers = (
{
hints = (
{
horizontal = 1;
place = "{10, 177}";
},
{
horizontal = 1;
place = "{228, 56}";
},
{
horizontal = 1;
place = "{325, 177}";
}
);
layerId = UUID0;
paths = (
{
closed = 1;
nodes = (
"24 283 LINE",
"428 283 LINE",
"428 228 LINE",
"24 228 LINE"
);
},
{
closed = 1;
nodes = (
"126 150 OFFCURVE",
"174 187 OFFCURVE",
"226 187 CURVE SMOOTH",
"279 187 OFFCURVE",
"323 146 OFFCURVE",
"323 98 CURVE SMOOTH",
"323 47 OFFCURVE",
"278 10 OFFCURVE",
"226 10 CURVE SMOOTH",
"171 10 OFFCURVE",
"126 49 OFFCURVE",
"126 98 CURVE SMOOTH"
);
},
{
closed = 1;
nodes = (
"126 464 OFFCURVE",
"175 502 OFFCURVE",
"226 502 CURVE SMOOTH",
"279 502 OFFCURVE",
"323 460 OFFCURVE",
"323 413 CURVE SMOOTH",
"323 362 OFFCURVE",
"278 325 OFFCURVE",
"226 325 CURVE SMOOTH",
"169 325 OFFCURVE",
"126 364 OFFCURVE",
"126 413 CURVE SMOOTH"
);
}
);
width = 452;
}
);
unicode = 00F7;
},
{
glyphname = equal;
layers = (
{
hints = (
{
horizontal = 1;
place = "{155, 61}";
},
{
horizontal = 1;
place = "{290, 62}";
}
);
layerId = UUID0;
paths = (
{
closed = 1;
nodes = (
"52 216 LINE",
"357 216 LINE",
"357 155 LINE",
"52 155 LINE"
);
},
{
closed = 1;
nodes = (
"52 352 LINE",
"357 352 LINE",
"357 290 LINE",
"52 290 LINE"
);
}
);
width = 409;
}
);
unicode = 003D;
},
{
glyphname = notequal;
layers = (
{
hints = (
{
horizontal = 1;
place = "{0, 216}";
},
{
horizontal = 1;
place = "{155, 61}";
},
{
horizontal = 1;
place = "{290, 62}";
},
{
horizontal = 1;
place = "{290, 211}";
}
);
layerId = UUID0;
paths = (
{
closed = 1;
nodes = (
"33 216 LINE",
"142 216 LINE",
"161 290 LINE",
"33 290 LINE",
"33 352 LINE",
"177 352 LINE",
"217 501 LINE",
"286 501 LINE",
"246 352 LINE",
"338 352 LINE",
"338 290 LINE",
"229 290 LINE",
"210 216 LINE",
"338 216 LINE",
"338 155 LINE",
"194 155 LINE",
"152 0 LINE",
"85 0 LINE",
"125 155 LINE",
"33 155 LINE"
);
}
);
width = 371;
}
);
unicode = 2260;
},
{
glyphname = greater;
layers = (
{
hints = (
{
horizontal = 1;
place = "{0, 21}";
target = up;
type = BottomGhost;
},
{
horizontal = 1;
place = "{602, -20}";
target = down;
type = TopGhost;
}
);
layerId = UUID0;
paths = (
{
closed = 1;
nodes = (
"50 162 LINE",
"347 303 LINE",
"50 451 LINE",
"50 602 LINE",
"431 393 LINE",
"431 223 LINE",
"50 0 LINE"
);
}
);
width = 458;
}
);
unicode = 003E;
},
{
glyphname = less;
layers = (
{
hints = (
{
horizontal = 1;
place = "{0, 21}";
target = up;
type = BottomGhost;
},
{
horizontal = 1;
place = "{602, -20}";
target = down;
type = TopGhost;
}
);
layerId = UUID0;
paths = (
{
closed = 1;
nodes = (
"27 393 LINE",
"408 602 LINE",
"408 451 LINE",
"111 303 LINE",
"408 162 LINE",
"408 0 LINE",
"27 223 LINE"
);
}
);
width = 458;
}
);
unicode = 003C;
},
{
glyphname = greaterequal;
layers = (
{
hints = (
{
horizontal = 1;
place = "{0, 56}";
},
{
horizontal = 1;
place = "{772, -20}";
target = down;
type = TopGhost;
}
);
layerId = UUID0;
paths = (
{
closed = 1;
nodes = (
"56 333 LINE",
"353 474 LINE",
"56 622 LINE",
"56 772 LINE",
"437 563 LINE",
"437 394 LINE",
"56 171 LINE"
);
},
{
closed = 1;
nodes = (
"44 56 LINE",
"447 56 LINE",
"447 0 LINE",
"44 0 LINE"
);
}
);
width = 481;
}
);
unicode = 2265;
},
{
glyphname = lessequal;
layers = (
{
hints = (
{
horizontal = 1;
place = "{0, 56}";
},
{
horizontal = 1;
place = "{772, -20}";
target = down;
type = TopGhost;
}
);
layerId = UUID0;
paths = (
{
closed = 1;
nodes = (
"45 563 LINE",
"426 772 LINE",
"426 622 LINE",
"129 474 LINE",
"426 333 LINE",
"426 171 LINE",
"45 394 LINE"
);
},
{
closed = 1;
nodes = (
"33 56 LINE",
"437 56 LINE",
"437 0 LINE",
"33 0 LINE"
);
}
);
width = 481;
}
);
unicode = 2264;
},
{
glyphname = plusminus;
layers = (
{
hints = (
{
horizontal = 1;
place = "{0, 56}";
},
{
horizontal = 1;
place = "{314, 57}";
},
{
horizontal = 1;
place = "{592, -20}";
target = down;
type = TopGhost;
}
);
layerId = UUID0;
paths = (
{
closed = 1;
nodes = (
"250 314 LINE",
"35 314 LINE",
"35 371 LINE",
"250 371 LINE",
"250 592 LINE",
"309 592 LINE",
"309 371 LINE",
"521 371 LINE",
"521 314 LINE",
"309 314 LINE",
"309 91 LINE",
"250 91 LINE"
);
},
{
closed = 1;
nodes = (
"35 56 LINE",
"521 56 LINE",
"521 0 LINE",
"35 0 LINE"
);
}
);
width = 557;
}
);
unicode = 00B1;
},
{
glyphname = asciitilde;
layers = (
{
hints = (
{
horizontal = 1;
place = "{292, 169}";
},
{
horizontal = 1;
place = "{347, 169}";
}
);
layerId = UUID0;
paths = (
{
closed = 1;
nodes = (
"162 347 OFFCURVE",
"150 322 OFFCURVE",
"139 295 CURVE",
"21 343 LINE",
"58 452 OFFCURVE",
"123 516 OFFCURVE",
"191 516 CURVE SMOOTH",
"222 516 OFFCURVE",
"256 507 OFFCURVE",
"275 500 CURVE SMOOTH",
"348 471 OFFCURVE",
"359 461 OFFCURVE",
"397 461 CURVE SMOOTH",
"425 461 OFFCURVE",
"438 479 OFFCURVE",
"448 506 CURVE",
"564 458 LINE",
"527 347 OFFCURVE",
"474 292 OFFCURVE",
"401 292 CURVE SMOOTH",
"354 292 OFFCURVE",
"323 303 OFFCURVE",
"286 317 CURVE",
"237 338 LINE SMOOTH",
"223 344 OFFCURVE",
"208 347 OFFCURVE",
"190 347 CURVE SMOOTH"
);
}
);
width = 580;
}
);
unicode = 007E;
},
{
glyphname = logicalnot;
layers = (
{
hints = (
{
horizontal = 1;
place = "{259, 157}";
},
{
horizontal = 1;
place = "{85, 21}";
target = up;
type = BottomGhost;
}
);
layerId = UUID0;
paths = (
{
closed = 1;
nodes = (
"479 416 LINE",
"479 85 LINE",
"372 85 LINE",
"372 259 LINE",
"39 259 LINE",
"39 416 LINE"
);
}
);
width = 534;
}
);
unicode = 00AC;
},
{
glyphname = increment;
layers = (
{
hints = (
{
horizontal = 1;
place = "{0, 112}";
},
{
horizontal = 1;
place = "{672, -20}";
target = down;
type = TopGhost;
}
);
layerId = UUID0;
paths = (
{
closed = 1;
nodes = (
"206 672 LINE",
"383 672 LINE",
"567 0 LINE",
"25 0 LINE"
);
},
{
closed = 1;
nodes = (
"390 112 LINE",
"295 518 LINE",
"204 112 LINE"
);
}
);
width = 591;
}
);
unicode = 0394;
},
{
glyphname = percent;
layers = (
{
hints = (
{
horizontal = 1;
place = "{-16, 100}";
},
{
horizontal = 1;
place = "{274, 102}";
},
{
horizontal = 1;
place = "{300, 99}";
},
{
horizontal = 1;
place = "{590, 101}";
},
{
horizontal = 1;
place = "{0, 21}";
target = up;
type = BottomGhost;
}
);
layerId = UUID0;
paths = (
{
closed = 1;
nodes = (
"487 672 LINE",
"557 672 LINE",
"391 0 LINE",
"323 0 LINE"
);
},
{
closed = 1;
nodes = (
"568 -16 OFFCURVE",
"500 69 OFFCURVE",
"500 180 CURVE SMOOTH",
"500 293 OFFCURVE",
"576 376 OFFCURVE",
"682 376 CURVE SMOOTH",
"795 376 OFFCURVE",
"863 283 OFFCURVE",
"863 180 CURVE SMOOTH",
"863 66 OFFCURVE",
"789 -16 OFFCURVE",
"682 -16 CURVE SMOOTH"
);
},
{
closed = 1;
nodes = (
"723 84 OFFCURVE",
"739 138 OFFCURVE",
"739 180 CURVE SMOOTH",
"739 229 OFFCURVE",
"718 274 OFFCURVE",
"682 274 CURVE SMOOTH",
"642 274 OFFCURVE",
"624 228 OFFCURVE",
"624 180 CURVE SMOOTH",
"624 129 OFFCURVE",
"644 84 OFFCURVE",
"682 84 CURVE SMOOTH"
);
},
{
closed = 1;
nodes = (
"88 300 OFFCURVE",
"24 391 OFFCURVE",
"24 495 CURVE SMOOTH",
"24 610 OFFCURVE",
"100 690 OFFCURVE",
"208 690 CURVE SMOOTH",
"327 690 OFFCURVE",
"388 590 OFFCURVE",
"388 495 CURVE SMOOTH",
"388 380 OFFCURVE",
"313 300 OFFCURVE",
"205 300 CURVE SMOOTH"
);
},
{
closed = 1;
nodes = (
"248 398 OFFCURVE",
"264 452 OFFCURVE",
"264 495 CURVE SMOOTH",
"264 545 OFFCURVE",
"242 590 OFFCURVE",
"205 590 CURVE SMOOTH",
"163 590 OFFCURVE",
"148 540 OFFCURVE",
"148 495 CURVE SMOOTH",
"148 445 OFFCURVE",
"168 398 OFFCURVE",
"205 398 CURVE SMOOTH"
);
}
);
width = 888;
}
);
unicode = 0025;
},
{
glyphname = perthousand;
layers = (
{
hints = (
{
horizontal = 1;
place = "{-16, 100}";
},
{
horizontal = 1;
place = "{274, 102}";
},
{
horizontal = 1;
place = "{300, 99}";
},
{
horizontal = 1;
place = "{590, 101}";
},
{
horizontal = 1;
place = "{0, 21}";
target = up;
type = BottomGhost;
}
);
layerId = UUID0;
paths = (
{
closed = 1;
nodes = (
"487 672 LINE",
"557 672 LINE",
"391 0 LINE",
"323 0 LINE"
);
},
{
closed = 1;
nodes = (
"566 -16 OFFCURVE",
"501 76 OFFCURVE",
"501 180 CURVE SMOOTH",
"501 293 OFFCURVE",
"576 376 OFFCURVE",
"682 376 CURVE SMOOTH",
"796 376 OFFCURVE",
"863 283 OFFCURVE",
"863 180 CURVE SMOOTH",
"863 65 OFFCURVE",
"790 -16 OFFCURVE",
"682 -16 CURVE SMOOTH"
);
},
{
closed = 1;
nodes = (
"722 84 OFFCURVE",
"739 132 OFFCURVE",
"739 180 CURVE SMOOTH",
"739 229 OFFCURVE",
"719 274 OFFCURVE",
"682 274 CURVE SMOOTH",
"640 274 OFFCURVE",
"625 224 OFFCURVE",
"625 180 CURVE SMOOTH",
"625 130 OFFCURVE",
"645 84 OFFCURVE",
"682 84 CURVE SMOOTH"
);
},
{
closed = 1;
nodes = (
"88 300 OFFCURVE",
"24 392 OFFCURVE",
"24 495 CURVE SMOOTH",
"24 616 OFFCURVE",
"106 690 OFFCURVE",
"208 690 CURVE SMOOTH",
"327 690 OFFCURVE",
"388 592 OFFCURVE",
"388 495 CURVE SMOOTH",
"388 380 OFFCURVE",
"314 300 OFFCURVE",
"205 300 CURVE SMOOTH"
);
},
{
closed = 1;
nodes = (
"249 398 OFFCURVE",
"264 451 OFFCURVE",
"264 495 CURVE SMOOTH",
"264 543 OFFCURVE",
"244 590 OFFCURVE",
"205 590 CURVE SMOOTH",
"166 590 OFFCURVE",
"148 543 OFFCURVE",
"148 495 CURVE SMOOTH",
"148 444 OFFCURVE",
"168 398 OFFCURVE",
"205 398 CURVE SMOOTH"
);
},
{
closed = 1;
nodes = (
"978 -16 OFFCURVE",
"911 76 OFFCURVE",
"911 180 CURVE SMOOTH",
"911 293 OFFCURVE",
"987 376 OFFCURVE",
"1093 376 CURVE SMOOTH",
"1206 376 OFFCURVE",
"1274 283 OFFCURVE",
"1274 180 CURVE SMOOTH",
"1274 65 OFFCURVE",
"1201 -16 OFFCURVE",
"1093 -16 CURVE SMOOTH"
);
},
{
closed = 1;
nodes = (
"1133 84 OFFCURVE",
"1150 132 OFFCURVE",
"1150 180 CURVE SMOOTH",
"1150 229 OFFCURVE",
"1130 274 OFFCURVE",
"1093 274 CURVE SMOOTH",
"1053 274 OFFCURVE",
"1035 228 OFFCURVE",
"1035 180 CURVE SMOOTH",
"1035 129 OFFCURVE",
"1055 84 OFFCURVE",
"1093 84 CURVE SMOOTH"
);
}
);
width = 1299;
}
);
unicode = 2030;
},
{
glyphname = lozenge;
layers = (
{
hints = (
{
horizontal = 1;
place = "{0, 21}";
target = up;
type = BottomGhost;
},
{
horizontal = 1;
place = "{688, -20}";
target = down;
type = TopGhost;
}
);
layerId = UUID0;
paths = (
{
closed = 1;
nodes = (
"335 347 LINE",
"253 604 LINE",
"163 347 LINE",
"253 84 LINE"
);
},
{
closed = 1;
nodes = (
"27 347 LINE",
"153 688 LINE",
"348 688 LINE",
"482 347 LINE",
"335 0 LINE",
"153 0 LINE"
);
}
);
width = 509;
}
);
unicode = 25CA;
},
{
glyphname = at;
layers = (
{
hints = (
{
horizontal = 1;
place = "{-16, 120}";
},
{
horizontal = 1;
place = "{185, 99}";
},
{
horizontal = 1;
place = "{440, 102}";
},
{
horizontal = 1;
place = "{624, 117}";
},
{
horizontal = 1;
place = "{185, 111}";
}
);
layerId = UUID0;
paths = (
{
closed = 1;
nodes = (
"594 184 OFFCURVE",
"544 208 OFFCURVE",
"514 258 CURVE",
"490 213 OFFCURVE",
"450 185 OFFCURVE",
"393 185 CURVE SMOOTH",
"285 185 OFFCURVE",
"228 284 OFFCURVE",
"228 366 CURVE SMOOTH",
"228 466 OFFCURVE",
"308 542 OFFCURVE",
"394 542 CURVE SMOOTH",
"464 542 OFFCURVE",
"538 539 OFFCURVE",
"616 533 CURVE",
"616 304 LINE",
"628 291 OFFCURVE",
"641 284 OFFCURVE",
"652 284 CURVE SMOOTH",
"700 284 OFFCURVE",
"711 355 OFFCURVE",
"711 408 CURVE SMOOTH",
"711 552 OFFCURVE",
"622 624 OFFCURVE",
"444 624 CURVE SMOOTH",
"276 624 OFFCURVE",
"157 512 OFFCURVE",
"157 360 CURVE SMOOTH",
"157 188 OFFCURVE",
"294 104 OFFCURVE",
"439 104 CURVE SMOOTH",
"513 104 OFFCURVE",
"580 119 OFFCURVE",
"640 150 CURVE",
"698 50 LINE",
"620 5 OFFCURVE",
"547 -16 OFFCURVE",
"439 -16 CURVE SMOOTH",
"194 -16 OFFCURVE",
"31 142 OFFCURVE",
"31 359 CURVE SMOOTH",
"31 564 OFFCURVE",
"183 740 OFFCURVE",
"443 740 CURVE SMOOTH",
"681 740 OFFCURVE",
"838 622 OFFCURVE",
"838 410 CURVE SMOOTH",
"838 274 OFFCURVE",
"779 184 OFFCURVE",
"665 184 CURVE SMOOTH"
);
},
{
closed = 1;
nodes = (
"494 440 LINE",
"428 440 LINE SMOOTH",
"387 440 OFFCURVE",
"360 405 OFFCURVE",
"360 364 CURVE SMOOTH",
"360 326 OFFCURVE",
"389 296 OFFCURVE",
"428 296 CURVE SMOOTH",
"465 296 OFFCURVE",
"494 327 OFFCURVE",
"494 361 CURVE SMOOTH"
);
}
);
width = 864;
}
);
unicode = 0040;
},
{
glyphname = ampersand;
layers = (
{
hints = (
{
horizontal = 1;
place = "{-16, 147}";
},
{
horizontal = 1;
place = "{560, 131}";
},
{
horizontal = 1;
place = "{0, 21}";
target = up;
type = BottomGhost;
}
);
layerId = UUID0;
paths = (
{
closed = 1;
nodes = (
"637 246 LINE",
"613 200 OFFCURVE",
"585 164 OFFCURVE",
"553 136 CURVE",
"671 0 LINE",
"470 0 LINE",
"427 50 LINE",
"378 11 OFFCURVE",
"319 -16 OFFCURVE",
"256 -16 CURVE SMOOTH",
"119 -16 OFFCURVE",
"28 63 OFFCURVE",
"28 188 CURVE SMOOTH",
"28 289 OFFCURVE",
"88 334 OFFCURVE",
"167 371 CURVE",
"120 422 OFFCURVE",
"97 470 OFFCURVE",
"97 516 CURVE SMOOTH",
"97 603 OFFCURVE",
"184 690 OFFCURVE",
"326 690 CURVE SMOOTH",
"445 690 OFFCURVE",
"531 623 OFFCURVE",
"531 518 CURVE SMOOTH",
"531 447 OFFCURVE",
"487 375 OFFCURVE",
"400 338 CURVE",
"413 323 OFFCURVE",
"453 271 OFFCURVE",
"467 256 CURVE",
"547 342 LINE"
);
},
{
closed = 1;
nodes = (
"206 157 OFFCURVE",
"228 132 OFFCURVE",
"265 132 CURVE SMOOTH",
"291 132 OFFCURVE",
"312 139 OFFCURVE",
"326 153 CURVE",
"244 258 LINE",
"218 244 OFFCURVE",
"206 222 OFFCURVE",
"206 194 CURVE SMOOTH"
);
},
{
closed = 1;
nodes = (
"292 560 OFFCURVE",
"275 544 OFFCURVE",
"275 514 CURVE SMOOTH",
"275 488 OFFCURVE",
"292 467 OFFCURVE",
"324 442 CURVE",
"359 458 OFFCURVE",
"374 475 OFFCURVE",
"374 514 CURVE SMOOTH",
"374 542 OFFCURVE",
"356 560 OFFCURVE",
"327 560 CURVE SMOOTH"
);
}
);
width = 671;
}
);
unicode = 0026;
},
{
glyphname = paragraph;
layers = (
{
hints = (
{
horizontal = 1;
place = "{612, 75}";
},
{
horizontal = 1;
place = "{0, 21}";
target = up;
type = BottomGhost;
}
);
layerId = UUID0;
paths = (
{
closed = 1;
nodes = (
"258 355 LINE",
"216 355 LINE SMOOTH",
"105 355 OFFCURVE",
"23 424 OFFCURVE",
"23 521 CURVE SMOOTH",
"23 618 OFFCURVE",
"115 688 OFFCURVE",
"258 688 CURVE SMOOTH",
"482 688 LINE",
"482 0 LINE",
"402 0 LINE",
"402 612 LINE",
"339 612 LINE",
"339 0 LINE",
"258 0 LINE"
);
}
);
width = 556;
}
);
unicode = 00B6;
},
{
glyphname = section;
layers = (
{
hints = (
{
horizontal = 1;
place = "{-16, 129}";
},
{
horizontal = 1;
place = "{578, 125}";
}
);
layerId = UUID0;
paths = (
{
closed = 1;
nodes = (
"472 226 OFFCURVE",
"492 188 OFFCURVE",
"492 138 CURVE SMOOTH",
"492 16 OFFCURVE",
"361 -16 OFFCURVE",
"262 -16 CURVE SMOOTH",
"190 -16 OFFCURVE",
"121 -3 OFFCURVE",
"54 21 CURVE",
"76 143 LINE",
"120 128 OFFCURVE",
"185 113 OFFCURVE",
"242 113 CURVE SMOOTH",
"272 113 OFFCURVE",
"288 121 OFFCURVE",
"288 136 CURVE SMOOTH",
"288 152 OFFCURVE",
"272 154 OFFCURVE",
"211 177 CURVE SMOOTH",
"172 191 LINE SMOOTH",
"129 207 OFFCURVE",
"42 242 OFFCURVE",
"42 327 CURVE SMOOTH",
"42 378 OFFCURVE",
"62 418 OFFCURVE",
"102 447 CURVE",
"62 473 OFFCURVE",
"42 511 OFFCURVE",
"42 563 CURVE",
"47 670 OFFCURVE",
"155 703 OFFCURVE",
"267 703 CURVE SMOOTH",
"345 703 OFFCURVE",
"411 691 OFFCURVE",
"463 666 CURVE",
"442 555 LINE",
"416 564 OFFCURVE",
"352 578 OFFCURVE",
"287 578 CURVE SMOOTH",
"255 578 OFFCURVE",
"240 572 OFFCURVE",
"240 559 CURVE SMOOTH",
"240 518 OFFCURVE",
"494 502 OFFCURVE",
"494 373 CURVE SMOOTH",
"494 318 OFFCURVE",
"470 276 OFFCURVE",
"431 252 CURVE"
);
},
{
closed = 1;
nodes = (
"214 391 OFFCURVE",
"197 375 OFFCURVE",
"197 348 CURVE SMOOTH",
"197 333 OFFCURVE",
"231 309 OFFCURVE",
"281 296 CURVE",
"311 296 OFFCURVE",
"331 312 OFFCURVE",
"331 339 CURVE SMOOTH",
"331 360 OFFCURVE",
"298 376 OFFCURVE",
"240 393 CURVE"
);
}
);
width = 533;
}
);
unicode = 00A7;
},
{
glyphname = copyright;
layers = (
{
hints = (
{
horizontal = 1;
place = "{-16, 60}";
},
{
horizontal = 1;
place = "{112, 63}";
},
{
horizontal = 1;
place = "{421, 63}";
},
{
horizontal = 1;
place = "{554, 58}";
}
);
layerId = UUID0;
paths = (
{
closed = 1;
nodes = (
"482 44 OFFCURVE",
"592 160 OFFCURVE",
"592 299 CURVE SMOOTH",
"592 450 OFFCURVE",
"472 554 OFFCURVE",
"347 554 CURVE SMOOTH",
"210 554 OFFCURVE",
"102 440 OFFCURVE",
"102 299 CURVE SMOOTH",
"102 156 OFFCURVE",
"210 44 OFFCURVE",
"347 44 CURVE SMOOTH"
);
},
{
closed = 1;
nodes = (
"260 -16 OFFCURVE",
"187 16 OFFCURVE",
"125 78 CURVE SMOOTH",
"65 140 OFFCURVE",
"35 215 OFFCURVE",
"35 302 CURVE SMOOTH",
"35 394 OFFCURVE",
"71 466 OFFCURVE",
"128 521 CURVE SMOOTH",
"179 571 OFFCURVE",
"255 611 OFFCURVE",
"351 611 CURVE SMOOTH",
"435 611 OFFCURVE",
"508 581 OFFCURVE",
"570 519 CURVE SMOOTH",
"631 458 OFFCURVE",
"662 384 OFFCURVE",
"662 299 CURVE SMOOTH",
"662 212 OFFCURVE",
"631 139 OFFCURVE",
"569 77 CURVE SMOOTH",
"508 15 OFFCURVE",
"434 -16 OFFCURVE",
"347 -16 CURVE SMOOTH"
);
},
{
closed = 1;
nodes = (
"247 221 OFFCURVE",
"289 176 OFFCURVE",
"366 176 CURVE SMOOTH",
"393 176 OFFCURVE",
"423 183 OFFCURVE",
"458 196 CURVE",
"468 138 LINE",
"435 121 OFFCURVE",
"398 112 OFFCURVE",
"359 112 CURVE",
"244 114 OFFCURVE",
"169 185 OFFCURVE",
"167 298 CURVE",
"167 413 OFFCURVE",
"257 483 OFFCURVE",
"356 483 CURVE SMOOTH",
"398 483 OFFCURVE",
"437 473 OFFCURVE",
"469 453 CURVE",
"460 397 LINE",
"430 413 OFFCURVE",
"398 421 OFFCURVE",
"367 421 CURVE SMOOTH",
"290 421 OFFCURVE",
"247 375 OFFCURVE",
"247 298 CURVE SMOOTH"
);
}
);
width = 696;
}
);
unicode = 00A9;
},
{
glyphname = registered;
layers = (
{
hints = (
{
horizontal = 1;
place = "{-16, 60}";
},
{
horizontal = 1;
place = "{125, 47}";
},
{
horizontal = 1;
place = "{291, 46}";
},
{
horizontal = 1;
place = "{438, 47}";
},
{
horizontal = 1;
place = "{554, 58}";
}
);
layerId = UUID0;
paths = (
{
closed = 1;
nodes = (
"406 276 LINE",
"418 223 OFFCURVE",
"427 172 OFFCURVE",
"494 172 CURVE SMOOTH",
"498 172 OFFCURVE",
"501 173 OFFCURVE",
"506 175 CURVE",
"494 125 LINE",
"414 126 OFFCURVE",
"384 157 OFFCURVE",
"367 221 CURVE SMOOTH",
"349 291 LINE",
"285 291 LINE",
"285 133 LINE",
"228 133 LINE",
"228 485 LINE",
"353 485 LINE SMOOTH",
"444 485 OFFCURVE",
"490 453 OFFCURVE",
"490 389 CURVE SMOOTH",
"490 333 OFFCURVE",
"461 301 OFFCURVE",
"403 294 CURVE"
);
},
{
closed = 1;
nodes = (
"428 430 OFFCURVE",
"403 438 OFFCURVE",
"348 438 CURVE SMOOTH",
"285 438 LINE",
"285 337 LINE",
"362 337 LINE",
"405 339 OFFCURVE",
"428 343 OFFCURVE",
"428 389 CURVE SMOOTH"
);
},
{
closed = 1;
nodes = (
"482 44 OFFCURVE",
"592 160 OFFCURVE",
"592 299 CURVE SMOOTH",
"592 450 OFFCURVE",
"472 554 OFFCURVE",
"347 554 CURVE SMOOTH",
"210 554 OFFCURVE",
"102 440 OFFCURVE",
"102 299 CURVE SMOOTH",
"102 156 OFFCURVE",
"210 44 OFFCURVE",
"347 44 CURVE SMOOTH"
);
},
{
closed = 1;
nodes = (
"260 -16 OFFCURVE",
"187 16 OFFCURVE",
"125 78 CURVE SMOOTH",
"65 140 OFFCURVE",
"35 215 OFFCURVE",
"35 302 CURVE SMOOTH",
"35 394 OFFCURVE",
"71 466 OFFCURVE",
"128 521 CURVE SMOOTH",
"179 571 OFFCURVE",
"255 611 OFFCURVE",
"351 611 CURVE SMOOTH",
"435 611 OFFCURVE",
"508 581 OFFCURVE",
"570 519 CURVE SMOOTH",
"631 458 OFFCURVE",
"662 384 OFFCURVE",
"662 299 CURVE SMOOTH",
"662 212 OFFCURVE",
"631 139 OFFCURVE",
"569 77 CURVE SMOOTH",
"508 15 OFFCURVE",
"434 -16 OFFCURVE",
"347 -16 CURVE SMOOTH"
);
}
);
width = 696;
}
);
unicode = 00AE;
},
{
glyphname = trademark;
layers = (
{
hints = (
{
horizontal = 1;
place = "{567, 104}";
},
{
horizontal = 1;
place = "{300, 21}";
target = up;
type = BottomGhost;
}
);
layerId = UUID0;
paths = (
{
closed = 1;
nodes = (
"134 567 LINE",
"47 567 LINE",
"47 672 LINE",
"376 672 LINE",
"376 567 LINE",
"290 567 LINE",
"290 300 LINE",
"134 300 LINE"
);
},
{
closed = 1;
nodes = (
"434 672 LINE",
"588 672 LINE",
"674 522 LINE",
"759 672 LINE",
"913 672 LINE",
"913 300 LINE",
"759 300 LINE",
"759 497 LINE",
"704 390 LINE",
"643 390 LINE",
"588 497 LINE",
"588 300 LINE",
"434 300 LINE"
);
}
);
width = 971;
}
);
unicode = 2122;
},
{
glyphname = degree;
layers = (
{
hints = (
{
horizontal = 1;
place = "{162, 126}";
},
{
horizontal = 1;
place = "{569, 125}";
}
);
layerId = UUID0;
paths = (
{
closed = 1;
nodes = (
"444 517 OFFCURVE",
"385 569 OFFCURVE",
"313 569 CURVE SMOOTH",
"233 569 OFFCURVE",
"182 509 OFFCURVE",
"182 429 CURVE SMOOTH",
"182 345 OFFCURVE",
"236 288 OFFCURVE",
"313 288 CURVE SMOOTH",
"392 288 OFFCURVE",
"444 346 OFFCURVE",
"444 429 CURVE SMOOTH"
);
},
{
closed = 1;
nodes = (
"323 694 LINE SMOOTH",
"485 694 OFFCURVE",
"590 583 OFFCURVE",
"590 432 CURVE SMOOTH",
"590 275 OFFCURVE",
"479 162 OFFCURVE",
"312 162 CURVE SMOOTH",
"156 162 OFFCURVE",
"34 266 OFFCURVE",
"34 428 CURVE SMOOTH",
"34 584 OFFCURVE",
"147 694 OFFCURVE",
"313 694 CURVE SMOOTH"
);
}
);
width = 624;
}
);
unicode = 00B0;
},
{
glyphname = bar;
layers = (
{
hints = (
{
horizontal = 1;
place = "{0, 21}";
target = up;
type = BottomGhost;
},
{
horizontal = 1;
place = "{688, -20}";
target = down;
type = TopGhost;
}
);
layerId = UUID0;
paths = (
{
closed = 1;
nodes = (
"58 688 LINE",
"154 688 LINE",
"154 0 LINE",
"58 0 LINE"
);
}
);
width = 212;
}
);
unicode = 007C;
},
{
glyphname = brokenbar;
layers = (
{
hints = (
{
horizontal = 1;
place = "{688, -20}";
target = down;
type = TopGhost;
},
{
horizontal = 1;
place = "{0, 21}";
target = up;
type = BottomGhost;
}
);
layerId = UUID0;
paths = (
{
closed = 1;
nodes = (
"59 270 LINE",
"155 270 LINE",
"155 0 LINE",
"59 0 LINE"
);
},
{
closed = 1;
nodes = (
"59 688 LINE",
"155 688 LINE",
"155 418 LINE",
"59 418 LINE"
);
}
);
width = 214;
}
);
unicode = 00A6;
},
{
glyphname = dagger;
layers = (
{
hints = (
{
horizontal = 1;
place = "{440, 62}";
},
{
horizontal = 1;
place = "{0, 21}";
target = up;
type = BottomGhost;
},
{
horizontal = 1;
place = "{672, -20}";
target = down;
type = TopGhost;
}
);
layerId = UUID0;
paths = (
{
closed = 1;
nodes = (
"23 501 LINE",
"144 501 LINE",
"144 672 LINE",
"208 672 LINE",
"208 501 LINE",
"328 501 LINE",
"328 440 LINE",
"208 440 LINE",
"208 0 LINE",
"144 0 LINE",
"144 440 LINE",
"23 440 LINE"
);
}
);
width = 352;
}
);
unicode = 2020;
},
{
glyphname = daggerdbl;
layers = (
{
hints = (
{
horizontal = 1;
place = "{198, 61}";
},
{
horizontal = 1;
place = "{440, 62}";
},
{
horizontal = 1;
place = "{0, 21}";
target = up;
type = BottomGhost;
},
{
horizontal = 1;
place = "{672, -20}";
target = down;
type = TopGhost;
}
);
layerId = UUID0;
paths = (
{
closed = 1;
nodes = (
"31 259 LINE",
"151 259 LINE",
"151 440 LINE",
"31 440 LINE",
"31 501 LINE",
"151 501 LINE",
"151 672 LINE",
"216 672 LINE",
"216 501 LINE",
"336 501 LINE",
"336 440 LINE",
"216 440 LINE",
"216 259 LINE",
"336 259 LINE",
"336 198 LINE",
"216 198 LINE",
"216 0 LINE",
"151 0 LINE",
"151 198 LINE",
"31 198 LINE"
);
}
);
width = 367;
}
);
unicode = 2021;
},
{
glyphname = asciicircum;
layers = (
{
hints = (
{
horizontal = 1;
place = "{171, 21}";
target = up;
type = BottomGhost;
},
{
horizontal = 1;
place = "{672, -20}";
target = down;
type = TopGhost;
}
);
layerId = UUID0;
paths = (
{
closed = 1;
nodes = (
"204 672 LINE",
"383 672 LINE",
"554 171 LINE",
"405 171 LINE",
"295 578 LINE",
"187 171 LINE",
"35 171 LINE"
);
}
);
width = 588;
}
);
unicode = 005E;
},
{
glyphname = uni030F;
layers = (
{
hints = (
{
horizontal = 1;
place = "{594, 21}";
target = up;
type = BottomGhost;
},
{
horizontal = 1;
place = "{981, -20}";
target = down;
type = TopGhost;
}
);
layerId = UUID0;
paths = (
{
closed = 1;
nodes = (
"313 922 LINE",
"510 979 LINE",
"580 629 LINE",
"461 595 LINE"
);
},
{
closed = 1;
nodes = (
"33 890 LINE",
"216 981 LINE",
"347 648 LINE",
"235 594 LINE"
);
}
);
width = 636;
}
);
unicode = 030F;
},
{
glyphname = uni0311;
layers = (
{
hints = (
{
horizontal = 1;
place = "{577, 186}";
},
{
horizontal = 1;
place = "{639, 124}";
}
);
layerId = UUID0;
paths = (
{
closed = 1;
nodes = (
"268 577 LINE",
"268 613 OFFCURVE",
"241 639 OFFCURVE",
"206 639 CURVE SMOOTH",
"171 639 OFFCURVE",
"145 613 OFFCURVE",
"145 577 CURVE",
"24 577 LINE",
"24 690 OFFCURVE",
"100 763 OFFCURVE",
"206 763 CURVE SMOOTH",
"315 763 OFFCURVE",
"388 686 OFFCURVE",
"388 577 CURVE"
);
}
);
width = 411;
}
);
unicode = 0311;
},
{
glyphname = acute;
layers = (
{
hints = (
{
horizontal = 1;
place = "{562, 21}";
target = up;
type = BottomGhost;
},
{
horizontal = 1;
place = "{874, -20}";
target = down;
type = TopGhost;
}
);
layerId = UUID0;
paths = (
{
closed = 1;
nodes = (
"2 669 LINE",
"295 874 LINE",
"396 695 LINE",
"63 562 LINE"
);
}
);
width = 399;
}
);
unicode = 00B4;
},
{
glyphname = breve;
layers = (
{
hints = (
{
horizontal = 1;
place = "{562, 110}";
},
{
horizontal = 1;
place = "{562, 171}";
}
);
layerId = UUID0;
paths = (
{
closed = 1;
nodes = (
"377 732 LINE",
"377 629 OFFCURVE",
"306 562 OFFCURVE",
"206 562 CURVE SMOOTH",
"104 562 OFFCURVE",
"34 632 OFFCURVE",
"34 732 CURVE",
"145 732 LINE",
"145 697 OFFCURVE",
"170 672 OFFCURVE",
"206 672 CURVE SMOOTH",
"242 672 OFFCURVE",
"264 695 OFFCURVE",
"264 732 CURVE"
);
}
);
width = 411;
}
);
unicode = 02D8;
},
{
glyphname = caron;
layers = (
{
hints = (
{
horizontal = 1;
place = "{552, 249}";
}
);
layerId = UUID0;
paths = (
{
closed = 1;
nodes = (
"23 801 LINE",
"189 801 LINE",
"228 694 LINE",
"238 655 LINE",
"249 690 OFFCURVE",
"276 764 OFFCURVE",
"288 801 CURVE",
"454 801 LINE",
"331 552 LINE",
"146 552 LINE"
);
}
);
width = 481;
}
);
unicode = 02C7;
},
{
glyphname = cedilla;
layers = (
{
hints = (
{
horizontal = 1;
place = "{-248, 52}";
},
{
horizontal = 1;
place = "{0, -20}";
target = down;
type = TopGhost;
}
);
layerId = UUID0;
paths = (
{
closed = 1;
nodes = (
"142 -103 OFFCURVE",
"119 -88 OFFCURVE",
"84 -88 CURVE SMOOTH",
"82 -88 LINE",
"111 0 LINE",
"167 0 LINE",
"147 -57 LINE",
"212 -64 OFFCURVE",
"251 -90 OFFCURVE",
"251 -135 CURVE SMOOTH",
"251 -215 OFFCURVE",
"160 -248 OFFCURVE",
"106 -248 CURVE SMOOTH",
"78 -248 OFFCURVE",
"48 -241 OFFCURVE",
"19 -227 CURVE",
"32 -189 LINE",
"49 -194 OFFCURVE",
"64 -196 OFFCURVE",
"77 -196 CURVE SMOOTH",
"120 -196 OFFCURVE",
"142 -175 OFFCURVE",
"142 -134 CURVE SMOOTH"
);
}
);
width = 273;
}
);
unicode = 00B8;
},
{
glyphname = circumflex;
layers = (
{
hints = (
{
horizontal = 1;
place = "{552, 249}";
}
);
layerId = UUID0;
paths = (
{
closed = 1;
nodes = (
"146 801 LINE",
"331 801 LINE",
"454 552 LINE",
"288 552 LINE",
"250 658 LINE",
"238 696 LINE",
"228 658 LINE",
"189 552 LINE",
"23 552 LINE"
);
}
);
width = 481;
}
);
unicode = 02C6;
},
{
glyphname = dieresis;
layers = (
{
hints = (
{
horizontal = 1;
place = "{548, 202}";
}
);
layerId = UUID0;
paths = (
{
closed = 1;
nodes = (
"343 708 OFFCURVE",
"399 750 OFFCURVE",
"456 750 CURVE SMOOTH",
"524 750 OFFCURVE",
"567 697 OFFCURVE",
"567 648 CURVE SMOOTH",
"567 590 OFFCURVE",
"514 548 OFFCURVE",
"456 548 CURVE SMOOTH",
"389 548 OFFCURVE",
"343 596 OFFCURVE",
"343 648 CURVE SMOOTH"
);
},
{
closed = 1;
nodes = (
"41 706 OFFCURVE",
"95 750 OFFCURVE",
"153 750 CURVE SMOOTH",
"215 750 OFFCURVE",
"266 702 OFFCURVE",
"266 648 CURVE SMOOTH",
"266 588 OFFCURVE",
"210 548 OFFCURVE",
"153 548 CURVE SMOOTH",
"91 548 OFFCURVE",
"41 592 OFFCURVE",
"41 648 CURVE SMOOTH"
);
}
);
width = 608;
}
);
unicode = 00A8;
},
{
glyphname = dotaccent;
layers = (
{
hints = (
{
horizontal = 1;
place = "{568, 202}";
}
);
layerId = UUID0;
paths = (
{
closed = 1;
nodes = (
"42 729 OFFCURVE",
"97 771 OFFCURVE",
"154 771 CURVE SMOOTH",
"215 771 OFFCURVE",
"267 724 OFFCURVE",
"267 670 CURVE SMOOTH",
"267 609 OFFCURVE",
"211 568 OFFCURVE",
"154 568 CURVE SMOOTH",
"92 568 OFFCURVE",
"42 613 OFFCURVE",
"42 670 CURVE SMOOTH"
);
}
);
width = 308;
}
);
unicode = 02D9;
},
{
glyphname = grave;
layers = (
{
hints = (
{
horizontal = 1;
place = "{562, 21}";
target = up;
type = BottomGhost;
},
{
horizontal = 1;
place = "{874, -20}";
target = down;
type = TopGhost;
}
);
layerId = UUID0;
paths = (
{
closed = 1;
nodes = (
"116 874 LINE",
"409 669 LINE",
"348 562 LINE",
"15 695 LINE"
);
}
);
width = 422;
}
);
unicode = 0060;
},
{
glyphname = hungarumlaut;
layers = (
{
hints = (
{
horizontal = 1;
place = "{594, 21}";
target = up;
type = BottomGhost;
},
{
horizontal = 1;
place = "{981, -20}";
target = down;
type = TopGhost;
}
);
layerId = UUID0;
paths = (
{
closed = 1;
nodes = (
"126 979 LINE",
"321 922 LINE",
"175 595 LINE",
"56 629 LINE"
);
},
{
closed = 1;
nodes = (
"420 981 LINE",
"603 890 LINE",
"399 594 LINE",
"289 648 LINE"
);
}
);
width = 636;
}
);
unicode = 02DD;
},
{
glyphname = ogonek;
layers = (
{
hints = (
{
horizontal = 1;
place = "{-248, 52}";
},
{
horizontal = 1;
place = "{0, -20}";
target = down;
type = TopGhost;
}
);
layerId = UUID0;
paths = (
{
closed = 1;
nodes = (
"209 -196 OFFCURVE",
"225 -194 OFFCURVE",
"247 -189 CURVE",
"248 -227 LINE",
"213 -241 OFFCURVE",
"181 -248 OFFCURVE",
"151 -248 CURVE SMOOTH",
"90 -248 OFFCURVE",
"42 -219 OFFCURVE",
"42 -162 CURVE SMOOTH",
"42 -116 OFFCURVE",
"87 -75 OFFCURVE",
"122 -45 CURVE SMOOTH",
"150 -22 LINE SMOOTH",
"163 -11 OFFCURVE",
"172 -5 OFFCURVE",
"177 0 CURVE",
"231 0 LINE",
"210 -43 OFFCURVE",
"190 -80 OFFCURVE",
"169 -110 CURVE",
"159 -125 LINE SMOOTH",
"155 -130 OFFCURVE",
"150 -147 OFFCURVE",
"150 -160 CURVE SMOOTH",
"150 -184 OFFCURVE",
"167 -196 OFFCURVE",
"200 -196 CURVE SMOOTH"
);
}
);
width = 313;
}
);
unicode = 02DB;
},
{
glyphname = ring;
layers = (
{
hints = (
{
horizontal = 1;
place = "{562, 110}";
},
{
horizontal = 1;
place = "{795, 110}";
}
);
layerId = UUID0;
paths = (
{
closed = 1;
nodes = (
"169 795 OFFCURVE",
"145 769 OFFCURVE",
"145 732 CURVE SMOOTH",
"145 695 OFFCURVE",
"170 672 OFFCURVE",
"206 672 CURVE SMOOTH",
"243 672 OFFCURVE",
"264 695 OFFCURVE",
"264 732 CURVE SMOOTH",
"264 770 OFFCURVE",
"240 795 OFFCURVE",
"204 795 CURVE SMOOTH"
);
},
{
closed = 1;
nodes = (
"34 837 OFFCURVE",
"107 905 OFFCURVE",
"206 905 CURVE SMOOTH",
"314 905 OFFCURVE",
"377 828 OFFCURVE",
"377 732 CURVE SMOOTH",
"377 629 OFFCURVE",
"306 562 OFFCURVE",
"206 562 CURVE SMOOTH",
"104 562 OFFCURVE",
"34 632 OFFCURVE",
"34 732 CURVE SMOOTH"
);
}
);
width = 411;
}
);
unicode = 02DA;
},
{
glyphname = tilde;
layers = (
{
hints = (
{
horizontal = 1;
place = "{563, 169}";
},
{
horizontal = 1;
place = "{618, 169}";
}
);
layerId = UUID0;
paths = (
{
closed = 1;
nodes = (
"171 618 OFFCURVE",
"158 591 OFFCURVE",
"148 565 CURVE",
"30 613 LINE",
"70 724 OFFCURVE",
"134 787 OFFCURVE",
"202 787 CURVE SMOOTH",
"222 787 OFFCURVE",
"245 778 OFFCURVE",
"256 773 CURVE",
"279 759 LINE",
"281 758 OFFCURVE",
"284 756 OFFCURVE",
"289 753 CURVE",
"310 741 LINE",
"321 735 OFFCURVE",
"333 731 OFFCURVE",
"348 731 CURVE SMOOTH",
"371 731 OFFCURVE",
"387 747 OFFCURVE",
"397 776 CURVE",
"515 729 LINE",
"474 613 OFFCURVE",
"420 563 OFFCURVE",
"352 563 CURVE SMOOTH",
"276 563 OFFCURVE",
"250 618 OFFCURVE",
"201 618 CURVE SMOOTH"
);
}
);
width = 543;
}
);
unicode = 02DC;
},
